%TF.GenerationSoftware,KiCad,Pcbnew,8.0.3*%
%TF.CreationDate,2024-09-20T11:12:47-04:00*%
%TF.ProjectId,Sequencer,53657175-656e-4636-9572-2e6b69636164,rev?*%
%TF.SameCoordinates,Original*%
%TF.FileFunction,Profile,NP*%
%FSLAX46Y46*%
G04 Gerber Fmt 4.6, Leading zero omitted, Abs format (unit mm)*
G04 Created by KiCad (PCBNEW 8.0.3) date 2024-09-20 11:12:47*
%MOMM*%
%LPD*%
G01*
G04 APERTURE LIST*
%ADD10C,0.150000*%
%TA.AperFunction,Profile*%
%ADD11C,0.050000*%
%TD*%
G04 APERTURE END LIST*
D10*
X181130461Y-68679705D02*
X181130114Y-69251133D01*
X181130287Y-68965419D02*
X180130288Y-68964813D01*
X180130288Y-68964813D02*
X180273087Y-69060138D01*
X180273087Y-69060138D02*
X180368267Y-69155433D01*
X180368267Y-69155433D02*
X180415829Y-69250700D01*
X181035482Y-68251076D02*
X181083130Y-68203486D01*
X181083130Y-68203486D02*
X181130720Y-68251133D01*
X181130720Y-68251133D02*
X181083072Y-68298724D01*
X181083072Y-68298724D02*
X181035482Y-68251076D01*
X181035482Y-68251076D02*
X181130720Y-68251133D01*
X180226218Y-67822014D02*
X180178628Y-67774366D01*
X180178628Y-67774366D02*
X180131067Y-67679099D01*
X180131067Y-67679099D02*
X180131211Y-67441004D01*
X180131211Y-67441004D02*
X180178888Y-67345795D01*
X180178888Y-67345795D02*
X180226536Y-67298205D01*
X180226536Y-67298205D02*
X180321803Y-67250643D01*
X180321803Y-67250643D02*
X180417041Y-67250701D01*
X180417041Y-67250701D02*
X180559869Y-67298407D01*
X180559869Y-67298407D02*
X181130951Y-67870182D01*
X181130951Y-67870182D02*
X181131326Y-67251134D01*
X181131615Y-66774944D02*
X181131730Y-66584468D01*
X181131730Y-66584468D02*
X181084169Y-66489201D01*
X181084169Y-66489201D02*
X181036579Y-66441553D01*
X181036579Y-66441553D02*
X180893780Y-66346228D01*
X180893780Y-66346228D02*
X180703332Y-66298494D01*
X180703332Y-66298494D02*
X180322380Y-66298263D01*
X180322380Y-66298263D02*
X180227113Y-66345824D01*
X180227113Y-66345824D02*
X180179465Y-66393414D01*
X180179465Y-66393414D02*
X180131788Y-66488623D01*
X180131788Y-66488623D02*
X180131673Y-66679100D01*
X180131673Y-66679100D02*
X180179234Y-66774366D01*
X180179234Y-66774366D02*
X180226824Y-66822014D01*
X180226824Y-66822014D02*
X180322034Y-66869691D01*
X180322034Y-66869691D02*
X180560129Y-66869835D01*
X180560129Y-66869835D02*
X180655396Y-66822274D01*
X180655396Y-66822274D02*
X180703044Y-66774684D01*
X180703044Y-66774684D02*
X180750720Y-66679475D01*
X180750720Y-66679475D02*
X180750836Y-66488999D01*
X180750836Y-66488999D02*
X180703275Y-66393732D01*
X180703275Y-66393732D02*
X180655684Y-66346084D01*
X180655684Y-66346084D02*
X180560475Y-66298407D01*
X181132192Y-65822563D02*
X181132308Y-65632087D01*
X181132308Y-65632087D02*
X181084746Y-65536820D01*
X181084746Y-65536820D02*
X181037156Y-65489172D01*
X181037156Y-65489172D02*
X180894357Y-65393847D01*
X180894357Y-65393847D02*
X180703909Y-65346113D01*
X180703909Y-65346113D02*
X180322957Y-65345882D01*
X180322957Y-65345882D02*
X180227690Y-65393443D01*
X180227690Y-65393443D02*
X180180042Y-65441033D01*
X180180042Y-65441033D02*
X180132366Y-65536243D01*
X180132366Y-65536243D02*
X180132250Y-65726719D01*
X180132250Y-65726719D02*
X180179811Y-65821986D01*
X180179811Y-65821986D02*
X180227402Y-65869634D01*
X180227402Y-65869634D02*
X180322611Y-65917310D01*
X180322611Y-65917310D02*
X180560706Y-65917455D01*
X180560706Y-65917455D02*
X180655973Y-65869893D01*
X180655973Y-65869893D02*
X180703621Y-65822303D01*
X180703621Y-65822303D02*
X180751298Y-65727094D01*
X180751298Y-65727094D02*
X180751413Y-65536618D01*
X180751413Y-65536618D02*
X180703852Y-65441351D01*
X180703852Y-65441351D02*
X180656262Y-65393703D01*
X180656262Y-65393703D02*
X180561052Y-65346026D01*
X180227950Y-64964872D02*
X180180360Y-64917224D01*
X180180360Y-64917224D02*
X180132798Y-64821957D01*
X180132798Y-64821957D02*
X180132943Y-64583862D01*
X180132943Y-64583862D02*
X180180619Y-64488653D01*
X180180619Y-64488653D02*
X180228267Y-64441062D01*
X180228267Y-64441062D02*
X180323534Y-64393501D01*
X180323534Y-64393501D02*
X180418772Y-64393559D01*
X180418772Y-64393559D02*
X180561601Y-64441264D01*
X180561601Y-64441264D02*
X181132683Y-65013039D01*
X181132683Y-65013039D02*
X181133058Y-64393992D01*
X181133779Y-63203515D02*
X180467113Y-63203111D01*
X180133780Y-63202909D02*
X180181370Y-63250557D01*
X180181370Y-63250557D02*
X180229018Y-63202967D01*
X180229018Y-63202967D02*
X180181428Y-63155319D01*
X180181428Y-63155319D02*
X180133780Y-63202909D01*
X180133780Y-63202909D02*
X180229018Y-63202967D01*
X180467402Y-62726921D02*
X181134068Y-62727325D01*
X180562640Y-62726979D02*
X180515049Y-62679331D01*
X180515049Y-62679331D02*
X180467488Y-62584064D01*
X180467488Y-62584064D02*
X180467575Y-62441207D01*
X180467575Y-62441207D02*
X180515251Y-62345998D01*
X180515251Y-62345998D02*
X180610518Y-62298437D01*
X180610518Y-62298437D02*
X181134328Y-62298754D01*
D11*
X179750000Y-82250303D02*
X182403837Y-82251911D01*
X179770000Y-49250303D02*
X182423837Y-49251911D01*
X181817417Y-82251556D02*
X181837417Y-49251556D01*
X181817417Y-82251556D02*
X181837417Y-49251556D01*
X181817417Y-82251556D02*
X181231679Y-81124697D01*
X181817417Y-82251556D02*
X182404520Y-81125408D01*
X181837417Y-49251556D02*
X182423155Y-50378415D01*
X181837417Y-49251556D02*
X181250314Y-50377704D01*
D10*
X157277857Y-45804819D02*
X156706429Y-45804819D01*
X156992143Y-45804819D02*
X156992143Y-44804819D01*
X156992143Y-44804819D02*
X156896905Y-44947676D01*
X156896905Y-44947676D02*
X156801667Y-45042914D01*
X156801667Y-45042914D02*
X156706429Y-45090533D01*
X157706429Y-45709580D02*
X157754048Y-45757200D01*
X157754048Y-45757200D02*
X157706429Y-45804819D01*
X157706429Y-45804819D02*
X157658810Y-45757200D01*
X157658810Y-45757200D02*
X157706429Y-45709580D01*
X157706429Y-45709580D02*
X157706429Y-45804819D01*
X158658809Y-44804819D02*
X158182619Y-44804819D01*
X158182619Y-44804819D02*
X158135000Y-45281009D01*
X158135000Y-45281009D02*
X158182619Y-45233390D01*
X158182619Y-45233390D02*
X158277857Y-45185771D01*
X158277857Y-45185771D02*
X158515952Y-45185771D01*
X158515952Y-45185771D02*
X158611190Y-45233390D01*
X158611190Y-45233390D02*
X158658809Y-45281009D01*
X158658809Y-45281009D02*
X158706428Y-45376247D01*
X158706428Y-45376247D02*
X158706428Y-45614342D01*
X158706428Y-45614342D02*
X158658809Y-45709580D01*
X158658809Y-45709580D02*
X158611190Y-45757200D01*
X158611190Y-45757200D02*
X158515952Y-45804819D01*
X158515952Y-45804819D02*
X158277857Y-45804819D01*
X158277857Y-45804819D02*
X158182619Y-45757200D01*
X158182619Y-45757200D02*
X158135000Y-45709580D01*
X159277857Y-45233390D02*
X159182619Y-45185771D01*
X159182619Y-45185771D02*
X159135000Y-45138152D01*
X159135000Y-45138152D02*
X159087381Y-45042914D01*
X159087381Y-45042914D02*
X159087381Y-44995295D01*
X159087381Y-44995295D02*
X159135000Y-44900057D01*
X159135000Y-44900057D02*
X159182619Y-44852438D01*
X159182619Y-44852438D02*
X159277857Y-44804819D01*
X159277857Y-44804819D02*
X159468333Y-44804819D01*
X159468333Y-44804819D02*
X159563571Y-44852438D01*
X159563571Y-44852438D02*
X159611190Y-44900057D01*
X159611190Y-44900057D02*
X159658809Y-44995295D01*
X159658809Y-44995295D02*
X159658809Y-45042914D01*
X159658809Y-45042914D02*
X159611190Y-45138152D01*
X159611190Y-45138152D02*
X159563571Y-45185771D01*
X159563571Y-45185771D02*
X159468333Y-45233390D01*
X159468333Y-45233390D02*
X159277857Y-45233390D01*
X159277857Y-45233390D02*
X159182619Y-45281009D01*
X159182619Y-45281009D02*
X159135000Y-45328628D01*
X159135000Y-45328628D02*
X159087381Y-45423866D01*
X159087381Y-45423866D02*
X159087381Y-45614342D01*
X159087381Y-45614342D02*
X159135000Y-45709580D01*
X159135000Y-45709580D02*
X159182619Y-45757200D01*
X159182619Y-45757200D02*
X159277857Y-45804819D01*
X159277857Y-45804819D02*
X159468333Y-45804819D01*
X159468333Y-45804819D02*
X159563571Y-45757200D01*
X159563571Y-45757200D02*
X159611190Y-45709580D01*
X159611190Y-45709580D02*
X159658809Y-45614342D01*
X159658809Y-45614342D02*
X159658809Y-45423866D01*
X159658809Y-45423866D02*
X159611190Y-45328628D01*
X159611190Y-45328628D02*
X159563571Y-45281009D01*
X159563571Y-45281009D02*
X159468333Y-45233390D01*
X160563571Y-44804819D02*
X160087381Y-44804819D01*
X160087381Y-44804819D02*
X160039762Y-45281009D01*
X160039762Y-45281009D02*
X160087381Y-45233390D01*
X160087381Y-45233390D02*
X160182619Y-45185771D01*
X160182619Y-45185771D02*
X160420714Y-45185771D01*
X160420714Y-45185771D02*
X160515952Y-45233390D01*
X160515952Y-45233390D02*
X160563571Y-45281009D01*
X160563571Y-45281009D02*
X160611190Y-45376247D01*
X160611190Y-45376247D02*
X160611190Y-45614342D01*
X160611190Y-45614342D02*
X160563571Y-45709580D01*
X160563571Y-45709580D02*
X160515952Y-45757200D01*
X160515952Y-45757200D02*
X160420714Y-45804819D01*
X160420714Y-45804819D02*
X160182619Y-45804819D01*
X160182619Y-45804819D02*
X160087381Y-45757200D01*
X160087381Y-45757200D02*
X160039762Y-45709580D01*
X161468333Y-45138152D02*
X161468333Y-45804819D01*
X161230238Y-44757200D02*
X160992143Y-45471485D01*
X160992143Y-45471485D02*
X161611190Y-45471485D01*
D11*
X139000000Y-48750000D02*
X139000000Y-45913580D01*
X179270000Y-45913580D02*
X179270000Y-48750000D01*
X139000000Y-46500000D02*
X179270000Y-46500000D01*
X139000000Y-46500000D02*
X179270000Y-46500000D01*
X139000000Y-46500000D02*
X140126504Y-45913579D01*
X139000000Y-46500000D02*
X140126504Y-47086421D01*
X179270000Y-46500000D02*
X178143496Y-47086421D01*
X179270000Y-46500000D02*
X178143496Y-45913579D01*
X139000000Y-49250000D02*
X179270000Y-49250000D01*
X179270000Y-49250000D02*
X179250000Y-82250000D01*
X139000000Y-49250000D02*
X139000000Y-82250000D01*
X179250000Y-82250000D02*
X139000000Y-82250000D01*
M02*
