%TF.GenerationSoftware,KiCad,Pcbnew,8.0.3*%
%TF.CreationDate,2024-09-20T11:12:47-04:00*%
%TF.ProjectId,Sequencer,53657175-656e-4636-9572-2e6b69636164,rev?*%
%TF.SameCoordinates,Original*%
%TF.FileFunction,Copper,L2,Bot*%
%TF.FilePolarity,Positive*%
%FSLAX46Y46*%
G04 Gerber Fmt 4.6, Leading zero omitted, Abs format (unit mm)*
G04 Created by KiCad (PCBNEW 8.0.3) date 2024-09-20 11:12:47*
%MOMM*%
%LPD*%
G01*
G04 APERTURE LIST*
%TA.AperFunction,ComponentPad*%
%ADD10C,1.524000*%
%TD*%
%TA.AperFunction,ComponentPad*%
%ADD11C,3.000000*%
%TD*%
%TA.AperFunction,ComponentPad*%
%ADD12O,1.700000X1.350000*%
%TD*%
%TA.AperFunction,ComponentPad*%
%ADD13O,1.500000X1.100000*%
%TD*%
%TA.AperFunction,ComponentPad*%
%ADD14R,2.100000X2.100000*%
%TD*%
%TA.AperFunction,ComponentPad*%
%ADD15C,2.100000*%
%TD*%
%TA.AperFunction,ViaPad*%
%ADD16C,0.600000*%
%TD*%
%TA.AperFunction,ViaPad*%
%ADD17C,5.560000*%
%TD*%
%TA.AperFunction,Conductor*%
%ADD18C,0.200000*%
%TD*%
G04 APERTURE END LIST*
D10*
%TO.P,SW1,1,A*%
%TO.N,/UPDI*%
X142250000Y-70350000D03*
%TO.P,SW1,2,B*%
%TO.N,/SER_RXD*%
X142250000Y-73350000D03*
%TO.P,SW1,3,C*%
%TO.N,/MCU_TXD*%
X142250000Y-76350000D03*
D11*
%TO.P,SW1,4,Frame*%
%TO.N,GND*%
X142250000Y-67200000D03*
X142250000Y-79500000D03*
%TD*%
D12*
%TO.P,J2,6,Shield*%
%TO.N,GND*%
X141135000Y-54286647D03*
D13*
X144135000Y-54596647D03*
X144135000Y-59436647D03*
D12*
X141135000Y-59746647D03*
%TD*%
D14*
%TO.P,J1,1,Pin_1*%
%TO.N,/12V*%
X175250000Y-51810000D03*
D15*
%TO.P,J1,2,Pin_2*%
%TO.N,GND*%
X175250000Y-54350000D03*
%TO.P,J1,3,Pin_3*%
%TO.N,/KEY_IN*%
X175250000Y-56890000D03*
%TO.P,J1,4,Pin_4*%
%TO.N,GND*%
X175250000Y-59430000D03*
%TO.P,J1,5,Pin_5*%
%TO.N,Net-(J1-Pin_5)*%
X175250000Y-61970000D03*
%TO.P,J1,6,Pin_6*%
%TO.N,Net-(J1-Pin_6)*%
X175250000Y-64510000D03*
%TO.P,J1,7,Pin_7*%
%TO.N,Net-(J1-Pin_7)*%
X175250000Y-67050000D03*
%TO.P,J1,8,Pin_8*%
%TO.N,Net-(J1-Pin_8)*%
X175250000Y-69590000D03*
%TO.P,J1,9,Pin_9*%
%TO.N,Net-(J1-Pin_9)*%
X175250000Y-72130000D03*
%TO.P,J1,10,Pin_10*%
%TO.N,Net-(J1-Pin_10)*%
X175250000Y-74670000D03*
%TO.P,J1,11,Pin_11*%
%TO.N,Net-(J1-Pin_11)*%
X175250000Y-77210000D03*
%TO.P,J1,12,Pin_12*%
%TO.N,Net-(J1-Pin_12)*%
X175250000Y-79750000D03*
%TD*%
D16*
%TO.N,/LED*%
X149181395Y-75600000D03*
X149181395Y-73975000D03*
%TO.N,GND*%
X150750000Y-75750000D03*
X145400000Y-58320000D03*
%TO.N,/5V*%
X156250000Y-57120000D03*
X156250000Y-55520000D03*
%TO.N,/RXLED{slash}*%
X156741251Y-62750000D03*
X153500000Y-62750000D03*
%TO.N,GND*%
X155250000Y-76000000D03*
%TO.N,/CTS\u005C*%
X150250000Y-64150000D03*
X150375000Y-65875000D03*
%TO.N,/RTS\u005C*%
X152310000Y-64610000D03*
X152310000Y-65810000D03*
%TO.N,GND*%
X163500000Y-65250000D03*
X168250000Y-50889374D03*
X166750000Y-51639374D03*
X148500000Y-61950000D03*
X169750000Y-51639374D03*
X169750000Y-53889374D03*
X163600000Y-74750000D03*
X168149374Y-56879374D03*
X162133973Y-62008749D03*
X155250000Y-71500000D03*
X166750000Y-52389374D03*
X166750000Y-53139374D03*
X163505000Y-70000000D03*
X147500000Y-50500000D03*
X167500000Y-50889374D03*
X165020000Y-61508749D03*
X169750000Y-53139374D03*
X161480000Y-54241249D03*
X149680000Y-55520000D03*
X169750000Y-52389374D03*
D17*
X153000000Y-78400000D03*
D16*
X166750000Y-53889374D03*
X163500000Y-79500000D03*
X169000000Y-50889374D03*
D17*
X153000000Y-53000000D03*
D16*
%TO.N,/SEQ1*%
X156600000Y-66750000D03*
X156600000Y-68037865D03*
%TO.N,/D-M*%
X158520000Y-57150000D03*
X158520000Y-60358749D03*
%TD*%
D18*
%TO.N,/LED*%
X149181395Y-75600000D02*
X149181395Y-73975000D01*
%TO.N,/RXLED{slash}*%
X156741251Y-62750000D02*
X153500000Y-62750000D01*
%TO.N,/5V*%
X156250000Y-57120000D02*
X156250000Y-55520000D01*
%TO.N,/D-M*%
X158520000Y-57150000D02*
X158520000Y-60358749D01*
%TO.N,/CTS\u005C*%
X150250000Y-65750000D02*
X150375000Y-65875000D01*
X150250000Y-64150000D02*
X150250000Y-65750000D01*
%TO.N,/RTS\u005C*%
X152310000Y-64610000D02*
X152310000Y-65810000D01*
%TO.N,/SEQ1*%
X156600000Y-66750000D02*
X156600000Y-68037865D01*
%TD*%
%TA.AperFunction,Conductor*%
%TO.N,GND*%
G36*
X178712161Y-49770185D02*
G01*
X178757916Y-49822989D01*
X178769121Y-49874574D01*
X178767750Y-52137522D01*
X178762544Y-60726323D01*
X178742819Y-60793351D01*
X178689987Y-60839074D01*
X178638660Y-60850248D01*
X176374693Y-60852367D01*
X176307635Y-60832745D01*
X176294045Y-60822657D01*
X176206735Y-60748087D01*
X176192073Y-60725627D01*
X175420234Y-59953787D01*
X175462292Y-59942518D01*
X175587708Y-59870110D01*
X175690110Y-59767708D01*
X175762518Y-59642292D01*
X175773787Y-59600234D01*
X176511494Y-60337941D01*
X176511495Y-60337941D01*
X176635331Y-60135861D01*
X176728696Y-59910457D01*
X176785651Y-59673219D01*
X176804792Y-59430000D01*
X176785651Y-59186780D01*
X176728696Y-58949542D01*
X176635331Y-58724138D01*
X176511494Y-58522057D01*
X175773787Y-59259764D01*
X175762518Y-59217708D01*
X175690110Y-59092292D01*
X175587708Y-58989890D01*
X175462292Y-58917482D01*
X175420233Y-58906212D01*
X176180038Y-58146406D01*
X176206731Y-58111915D01*
X176349759Y-57989759D01*
X176508259Y-57804179D01*
X176635777Y-57596089D01*
X176729172Y-57370612D01*
X176786146Y-57133302D01*
X176805294Y-56890000D01*
X176786146Y-56646698D01*
X176729172Y-56409388D01*
X176710634Y-56364632D01*
X176635777Y-56183910D01*
X176508262Y-55975826D01*
X176508261Y-55975823D01*
X176417471Y-55869522D01*
X176349759Y-55790241D01*
X176206735Y-55668087D01*
X176192073Y-55645627D01*
X175420234Y-54873787D01*
X175462292Y-54862518D01*
X175587708Y-54790110D01*
X175690110Y-54687708D01*
X175762518Y-54562292D01*
X175773787Y-54520234D01*
X176511494Y-55257941D01*
X176511495Y-55257941D01*
X176635331Y-55055861D01*
X176728696Y-54830457D01*
X176785651Y-54593219D01*
X176804792Y-54350000D01*
X176785651Y-54106780D01*
X176728696Y-53869542D01*
X176635331Y-53644138D01*
X176522149Y-53459442D01*
X176503904Y-53391996D01*
X176525020Y-53325394D01*
X176553560Y-53295389D01*
X176657546Y-53217546D01*
X176743796Y-53102331D01*
X176794091Y-52967483D01*
X176800500Y-52907873D01*
X176800499Y-50712128D01*
X176794091Y-50652517D01*
X176775513Y-50602708D01*
X176743797Y-50517671D01*
X176743793Y-50517664D01*
X176657547Y-50402455D01*
X176657544Y-50402452D01*
X176542335Y-50316206D01*
X176542328Y-50316202D01*
X176407482Y-50265908D01*
X176407483Y-50265908D01*
X176347883Y-50259501D01*
X176347881Y-50259500D01*
X176347873Y-50259500D01*
X176347864Y-50259500D01*
X174152129Y-50259500D01*
X174152123Y-50259501D01*
X174092516Y-50265908D01*
X173957671Y-50316202D01*
X173957664Y-50316206D01*
X173842455Y-50402452D01*
X173842452Y-50402455D01*
X173756206Y-50517664D01*
X173756202Y-50517671D01*
X173705908Y-50652517D01*
X173699501Y-50712116D01*
X173699501Y-50712123D01*
X173699500Y-50712135D01*
X173699500Y-52907870D01*
X173699501Y-52907876D01*
X173705908Y-52967483D01*
X173756202Y-53102328D01*
X173756206Y-53102335D01*
X173784837Y-53140580D01*
X173842454Y-53217546D01*
X173946434Y-53295386D01*
X173988305Y-53351319D01*
X173993289Y-53421011D01*
X173977851Y-53459441D01*
X173864667Y-53644140D01*
X173771303Y-53869542D01*
X173714348Y-54106780D01*
X173695207Y-54350000D01*
X173714348Y-54593219D01*
X173771303Y-54830457D01*
X173864668Y-55055861D01*
X173988504Y-55257941D01*
X174726212Y-54520232D01*
X174737482Y-54562292D01*
X174809890Y-54687708D01*
X174912292Y-54790110D01*
X175037708Y-54862518D01*
X175079765Y-54873787D01*
X174319973Y-55633579D01*
X174293263Y-55668088D01*
X174150241Y-55790241D01*
X173991738Y-55975823D01*
X173991737Y-55975826D01*
X173864222Y-56183910D01*
X173770830Y-56409380D01*
X173713853Y-56646702D01*
X173694706Y-56890000D01*
X173713853Y-57133297D01*
X173713853Y-57133300D01*
X173713854Y-57133302D01*
X173760897Y-57329249D01*
X173770830Y-57370619D01*
X173864222Y-57596089D01*
X173991737Y-57804173D01*
X173991738Y-57804176D01*
X173991741Y-57804179D01*
X174150241Y-57989759D01*
X174293262Y-58111910D01*
X174293263Y-58111911D01*
X174307924Y-58134370D01*
X175079766Y-58906212D01*
X175037708Y-58917482D01*
X174912292Y-58989890D01*
X174809890Y-59092292D01*
X174737482Y-59217708D01*
X174726212Y-59259765D01*
X173988504Y-58522057D01*
X173864668Y-58724138D01*
X173771303Y-58949542D01*
X173714348Y-59186780D01*
X173695207Y-59430000D01*
X173714348Y-59673219D01*
X173771303Y-59910457D01*
X173864668Y-60135861D01*
X173988504Y-60337941D01*
X174726212Y-59600233D01*
X174737482Y-59642292D01*
X174809890Y-59767708D01*
X174912292Y-59870110D01*
X175037708Y-59942518D01*
X175079765Y-59953787D01*
X174319973Y-60713579D01*
X174293262Y-60748089D01*
X174203487Y-60824763D01*
X174139725Y-60853333D01*
X174123072Y-60854472D01*
X171495230Y-60856932D01*
X171495230Y-60856933D01*
X171499638Y-62375537D01*
X171480149Y-62442633D01*
X171427478Y-62488541D01*
X171375537Y-62499897D01*
X165905707Y-62495400D01*
X165905013Y-81625504D01*
X165885326Y-81692543D01*
X165832520Y-81738296D01*
X165781013Y-81749500D01*
X142304889Y-81749500D01*
X142247265Y-81732579D01*
X142221469Y-81746666D01*
X142195111Y-81749500D01*
X139624500Y-81749500D01*
X139557461Y-81729815D01*
X139511706Y-81677011D01*
X139500500Y-81625500D01*
X139500500Y-79499998D01*
X140244891Y-79499998D01*
X140244891Y-79500001D01*
X140265300Y-79785362D01*
X140326109Y-80064895D01*
X140426091Y-80332958D01*
X140563191Y-80584038D01*
X140563196Y-80584046D01*
X140669882Y-80726561D01*
X140669883Y-80726562D01*
X141572421Y-79824024D01*
X141585359Y-79855258D01*
X141667437Y-79978097D01*
X141771903Y-80082563D01*
X141894742Y-80164641D01*
X141925974Y-80177578D01*
X141023436Y-81080115D01*
X141165960Y-81186807D01*
X141165961Y-81186808D01*
X141417042Y-81323908D01*
X141417041Y-81323908D01*
X141685104Y-81423890D01*
X141964637Y-81484699D01*
X142203957Y-81501816D01*
X142250351Y-81519120D01*
X142269954Y-81506523D01*
X142296043Y-81501816D01*
X142535362Y-81484699D01*
X142814895Y-81423890D01*
X143082958Y-81323908D01*
X143334047Y-81186803D01*
X143476561Y-81080116D01*
X143476562Y-81080115D01*
X142574025Y-80177577D01*
X142605258Y-80164641D01*
X142728097Y-80082563D01*
X142832563Y-79978097D01*
X142914641Y-79855258D01*
X142927578Y-79824025D01*
X143830115Y-80726562D01*
X143830116Y-80726561D01*
X143936803Y-80584047D01*
X144073908Y-80332958D01*
X144173890Y-80064895D01*
X144234699Y-79785362D01*
X144255109Y-79500001D01*
X144255109Y-79499998D01*
X144234699Y-79214637D01*
X144173890Y-78935104D01*
X144073908Y-78667041D01*
X143936808Y-78415961D01*
X143936807Y-78415960D01*
X143830115Y-78273436D01*
X142927577Y-79175973D01*
X142914641Y-79144742D01*
X142832563Y-79021903D01*
X142728097Y-78917437D01*
X142605258Y-78835359D01*
X142574024Y-78822421D01*
X143476562Y-77919883D01*
X143476561Y-77919882D01*
X143334046Y-77813196D01*
X143334038Y-77813191D01*
X143082957Y-77676091D01*
X143082958Y-77676091D01*
X142960993Y-77630601D01*
X142905060Y-77588729D01*
X142880643Y-77523265D01*
X142895495Y-77454992D01*
X142933203Y-77412844D01*
X143064620Y-77320826D01*
X143220826Y-77164620D01*
X143347534Y-76983662D01*
X143440894Y-76783450D01*
X143498070Y-76570068D01*
X143517323Y-76350000D01*
X143498070Y-76129932D01*
X143440894Y-75916550D01*
X143347534Y-75716339D01*
X143220826Y-75535380D01*
X143064620Y-75379174D01*
X143064616Y-75379171D01*
X143064615Y-75379170D01*
X142883666Y-75252468D01*
X142883662Y-75252466D01*
X142879394Y-75250476D01*
X142683450Y-75159106D01*
X142683447Y-75159105D01*
X142683445Y-75159104D01*
X142470070Y-75101930D01*
X142470062Y-75101929D01*
X142250002Y-75082677D01*
X142249998Y-75082677D01*
X142029937Y-75101929D01*
X142029929Y-75101930D01*
X141816554Y-75159104D01*
X141816548Y-75159107D01*
X141616340Y-75252465D01*
X141616338Y-75252466D01*
X141435377Y-75379175D01*
X141279175Y-75535377D01*
X141152466Y-75716338D01*
X141152465Y-75716340D01*
X141059107Y-75916548D01*
X141059104Y-75916554D01*
X141001930Y-76129929D01*
X141001929Y-76129937D01*
X140982677Y-76349997D01*
X140982677Y-76350002D01*
X141001929Y-76570062D01*
X141001930Y-76570070D01*
X141059104Y-76783445D01*
X141059105Y-76783447D01*
X141059106Y-76783450D01*
X141144556Y-76966698D01*
X141152466Y-76983662D01*
X141152468Y-76983666D01*
X141279170Y-77164615D01*
X141279175Y-77164621D01*
X141435378Y-77320824D01*
X141435384Y-77320829D01*
X141566795Y-77412844D01*
X141610420Y-77467421D01*
X141617614Y-77536919D01*
X141586091Y-77599274D01*
X141539006Y-77630601D01*
X141417042Y-77676091D01*
X141165961Y-77813191D01*
X141165953Y-77813196D01*
X141023437Y-77919882D01*
X141023436Y-77919883D01*
X141925975Y-78822421D01*
X141894742Y-78835359D01*
X141771903Y-78917437D01*
X141667437Y-79021903D01*
X141585359Y-79144742D01*
X141572421Y-79175974D01*
X140669883Y-78273436D01*
X140669882Y-78273437D01*
X140563196Y-78415953D01*
X140563191Y-78415961D01*
X140426091Y-78667041D01*
X140326109Y-78935104D01*
X140265300Y-79214637D01*
X140244891Y-79499998D01*
X139500500Y-79499998D01*
X139500500Y-73349997D01*
X140982677Y-73349997D01*
X140982677Y-73350002D01*
X141001929Y-73570062D01*
X141001930Y-73570070D01*
X141059104Y-73783445D01*
X141059105Y-73783447D01*
X141059106Y-73783450D01*
X141064842Y-73795750D01*
X141152466Y-73983662D01*
X141152468Y-73983666D01*
X141279170Y-74164615D01*
X141279175Y-74164621D01*
X141435378Y-74320824D01*
X141435384Y-74320829D01*
X141616333Y-74447531D01*
X141616335Y-74447532D01*
X141616338Y-74447534D01*
X141816550Y-74540894D01*
X142029932Y-74598070D01*
X142187123Y-74611822D01*
X142249998Y-74617323D01*
X142250000Y-74617323D01*
X142250002Y-74617323D01*
X142305017Y-74612509D01*
X142470068Y-74598070D01*
X142683450Y-74540894D01*
X142883662Y-74447534D01*
X143064620Y-74320826D01*
X143220826Y-74164620D01*
X143347534Y-73983662D01*
X143351575Y-73974996D01*
X148375830Y-73974996D01*
X148375830Y-73975003D01*
X148396025Y-74154249D01*
X148396026Y-74154254D01*
X148455606Y-74324523D01*
X148551580Y-74477263D01*
X148553840Y-74480097D01*
X148554729Y-74482275D01*
X148555284Y-74483158D01*
X148555129Y-74483255D01*
X148580250Y-74544783D01*
X148580895Y-74557412D01*
X148580895Y-75017587D01*
X148561210Y-75084626D01*
X148553845Y-75094896D01*
X148551581Y-75097734D01*
X148455606Y-75250476D01*
X148396026Y-75420745D01*
X148396025Y-75420750D01*
X148375830Y-75599996D01*
X148375830Y-75600003D01*
X148396025Y-75779249D01*
X148396026Y-75779254D01*
X148455606Y-75949523D01*
X148457000Y-75951741D01*
X148551579Y-76102262D01*
X148679133Y-76229816D01*
X148831873Y-76325789D01*
X148901070Y-76350002D01*
X149002140Y-76385368D01*
X149002145Y-76385369D01*
X149181391Y-76405565D01*
X149181395Y-76405565D01*
X149181399Y-76405565D01*
X149360644Y-76385369D01*
X149360647Y-76385368D01*
X149360650Y-76385368D01*
X149530917Y-76325789D01*
X149683657Y-76229816D01*
X149811211Y-76102262D01*
X149907184Y-75949522D01*
X149966763Y-75779255D01*
X149986960Y-75600000D01*
X149985177Y-75584179D01*
X149966764Y-75420750D01*
X149966763Y-75420745D01*
X149907880Y-75252468D01*
X149907184Y-75250478D01*
X149811211Y-75097738D01*
X149811209Y-75097736D01*
X149811208Y-75097734D01*
X149808945Y-75094896D01*
X149808054Y-75092715D01*
X149807506Y-75091842D01*
X149807659Y-75091745D01*
X149782539Y-75030209D01*
X149781895Y-75017587D01*
X149781895Y-74557412D01*
X149801580Y-74490373D01*
X149808950Y-74480097D01*
X149811205Y-74477267D01*
X149811211Y-74477262D01*
X149907184Y-74324522D01*
X149966763Y-74154255D01*
X149986960Y-73975000D01*
X149966763Y-73795745D01*
X149907184Y-73625478D01*
X149811211Y-73472738D01*
X149683657Y-73345184D01*
X149530918Y-73249211D01*
X149360649Y-73189631D01*
X149360644Y-73189630D01*
X149181399Y-73169435D01*
X149181391Y-73169435D01*
X149002145Y-73189630D01*
X149002140Y-73189631D01*
X148831871Y-73249211D01*
X148679132Y-73345184D01*
X148551579Y-73472737D01*
X148455606Y-73625476D01*
X148396026Y-73795745D01*
X148396025Y-73795750D01*
X148375830Y-73974996D01*
X143351575Y-73974996D01*
X143440894Y-73783450D01*
X143498070Y-73570068D01*
X143517323Y-73350000D01*
X143498070Y-73129932D01*
X143440894Y-72916550D01*
X143347534Y-72716339D01*
X143220826Y-72535380D01*
X143064620Y-72379174D01*
X143064616Y-72379171D01*
X143064615Y-72379170D01*
X142883666Y-72252468D01*
X142883662Y-72252466D01*
X142883660Y-72252465D01*
X142683450Y-72159106D01*
X142683447Y-72159105D01*
X142683445Y-72159104D01*
X142470070Y-72101930D01*
X142470062Y-72101929D01*
X142250002Y-72082677D01*
X142249998Y-72082677D01*
X142029937Y-72101929D01*
X142029929Y-72101930D01*
X141816554Y-72159104D01*
X141816548Y-72159107D01*
X141616340Y-72252465D01*
X141616338Y-72252466D01*
X141435377Y-72379175D01*
X141279175Y-72535377D01*
X141152466Y-72716338D01*
X141152465Y-72716340D01*
X141059107Y-72916548D01*
X141059104Y-72916554D01*
X141001930Y-73129929D01*
X141001929Y-73129937D01*
X140982677Y-73349997D01*
X139500500Y-73349997D01*
X139500500Y-67199998D01*
X140244891Y-67199998D01*
X140244891Y-67200001D01*
X140265300Y-67485362D01*
X140326109Y-67764895D01*
X140426091Y-68032958D01*
X140563191Y-68284038D01*
X140563196Y-68284046D01*
X140669882Y-68426561D01*
X140669883Y-68426562D01*
X141572421Y-67524024D01*
X141585359Y-67555258D01*
X141667437Y-67678097D01*
X141771903Y-67782563D01*
X141894742Y-67864641D01*
X141925974Y-67877578D01*
X141023436Y-68780115D01*
X141165960Y-68886807D01*
X141165961Y-68886808D01*
X141417042Y-69023908D01*
X141417045Y-69023910D01*
X141539006Y-69069398D01*
X141594940Y-69111269D01*
X141619357Y-69176733D01*
X141604506Y-69245006D01*
X141566797Y-69287155D01*
X141435375Y-69379177D01*
X141279175Y-69535377D01*
X141152466Y-69716338D01*
X141152465Y-69716340D01*
X141059107Y-69916548D01*
X141059104Y-69916554D01*
X141001930Y-70129929D01*
X141001929Y-70129937D01*
X140982677Y-70349997D01*
X140982677Y-70350002D01*
X141001929Y-70570062D01*
X141001930Y-70570070D01*
X141059104Y-70783445D01*
X141059105Y-70783447D01*
X141059106Y-70783450D01*
X141089327Y-70848259D01*
X141152466Y-70983662D01*
X141152468Y-70983666D01*
X141279170Y-71164615D01*
X141279175Y-71164621D01*
X141435378Y-71320824D01*
X141435384Y-71320829D01*
X141616333Y-71447531D01*
X141616335Y-71447532D01*
X141616338Y-71447534D01*
X141816550Y-71540894D01*
X142029932Y-71598070D01*
X142187123Y-71611822D01*
X142249998Y-71617323D01*
X142250000Y-71617323D01*
X142250002Y-71617323D01*
X142305017Y-71612509D01*
X142470068Y-71598070D01*
X142683450Y-71540894D01*
X142883662Y-71447534D01*
X143064620Y-71320826D01*
X143220826Y-71164620D01*
X143347534Y-70983662D01*
X143440894Y-70783450D01*
X143498070Y-70570068D01*
X143517323Y-70350000D01*
X143498070Y-70129932D01*
X143440894Y-69916550D01*
X143347534Y-69716339D01*
X143220826Y-69535380D01*
X143064620Y-69379174D01*
X142933202Y-69287154D01*
X142889579Y-69232578D01*
X142882386Y-69163079D01*
X142913908Y-69100725D01*
X142960994Y-69069398D01*
X143082954Y-69023910D01*
X143082957Y-69023908D01*
X143334047Y-68886803D01*
X143476561Y-68780116D01*
X143476562Y-68780115D01*
X142574025Y-67877577D01*
X142605258Y-67864641D01*
X142728097Y-67782563D01*
X142832563Y-67678097D01*
X142914641Y-67555258D01*
X142927578Y-67524025D01*
X143830115Y-68426562D01*
X143830116Y-68426561D01*
X143936803Y-68284047D01*
X144073908Y-68032958D01*
X144173890Y-67764895D01*
X144234699Y-67485362D01*
X144255109Y-67200001D01*
X144255109Y-67199998D01*
X144234699Y-66914637D01*
X144198883Y-66749996D01*
X155794435Y-66749996D01*
X155794435Y-66750003D01*
X155814630Y-66929249D01*
X155814631Y-66929254D01*
X155874211Y-67099523D01*
X155970185Y-67252263D01*
X155972445Y-67255097D01*
X155973334Y-67257275D01*
X155973889Y-67258158D01*
X155973734Y-67258255D01*
X155998855Y-67319783D01*
X155999500Y-67332412D01*
X155999500Y-67455452D01*
X155979815Y-67522491D01*
X155972450Y-67532761D01*
X155970186Y-67535599D01*
X155874211Y-67688341D01*
X155814631Y-67858610D01*
X155814630Y-67858615D01*
X155794435Y-68037861D01*
X155794435Y-68037868D01*
X155814630Y-68217114D01*
X155814631Y-68217119D01*
X155874211Y-68387388D01*
X155970184Y-68540127D01*
X156097738Y-68667681D01*
X156250478Y-68763654D01*
X156297521Y-68780115D01*
X156420745Y-68823233D01*
X156420750Y-68823234D01*
X156599996Y-68843430D01*
X156600000Y-68843430D01*
X156600004Y-68843430D01*
X156779249Y-68823234D01*
X156779252Y-68823233D01*
X156779255Y-68823233D01*
X156949522Y-68763654D01*
X157102262Y-68667681D01*
X157229816Y-68540127D01*
X157325789Y-68387387D01*
X157385368Y-68217120D01*
X157405565Y-68037865D01*
X157405012Y-68032958D01*
X157385369Y-67858615D01*
X157385368Y-67858610D01*
X157325788Y-67688341D01*
X157242166Y-67555258D01*
X157229816Y-67535603D01*
X157229814Y-67535601D01*
X157229813Y-67535599D01*
X157227550Y-67532761D01*
X157226659Y-67530580D01*
X157226111Y-67529707D01*
X157226264Y-67529610D01*
X157201144Y-67468074D01*
X157200500Y-67455452D01*
X157200500Y-67332412D01*
X157220185Y-67265373D01*
X157227555Y-67255097D01*
X157229810Y-67252267D01*
X157229816Y-67252262D01*
X157325789Y-67099522D01*
X157385368Y-66929255D01*
X157387015Y-66914637D01*
X157405565Y-66750003D01*
X157405565Y-66749996D01*
X157385369Y-66570750D01*
X157385368Y-66570745D01*
X157339554Y-66439816D01*
X157325789Y-66400478D01*
X157311201Y-66377262D01*
X157229815Y-66247737D01*
X157102262Y-66120184D01*
X156949523Y-66024211D01*
X156779254Y-65964631D01*
X156779249Y-65964630D01*
X156600004Y-65944435D01*
X156599996Y-65944435D01*
X156420750Y-65964630D01*
X156420745Y-65964631D01*
X156250476Y-66024211D01*
X156097737Y-66120184D01*
X155970184Y-66247737D01*
X155874211Y-66400476D01*
X155814631Y-66570745D01*
X155814630Y-66570750D01*
X155794435Y-66749996D01*
X144198883Y-66749996D01*
X144173890Y-66635104D01*
X144073908Y-66367041D01*
X143936808Y-66115961D01*
X143936807Y-66115960D01*
X143830115Y-65973436D01*
X142927577Y-66875973D01*
X142914641Y-66844742D01*
X142832563Y-66721903D01*
X142728097Y-66617437D01*
X142605258Y-66535359D01*
X142574024Y-66522421D01*
X143476562Y-65619883D01*
X143476561Y-65619882D01*
X143334046Y-65513196D01*
X143334038Y-65513191D01*
X143082957Y-65376091D01*
X143082958Y-65376091D01*
X142814895Y-65276109D01*
X142535362Y-65215300D01*
X142250001Y-65194891D01*
X142249999Y-65194891D01*
X141964637Y-65215300D01*
X141685104Y-65276109D01*
X141417041Y-65376091D01*
X141165961Y-65513191D01*
X141165953Y-65513196D01*
X141023437Y-65619882D01*
X141023436Y-65619883D01*
X141925975Y-66522421D01*
X141894742Y-66535359D01*
X141771903Y-66617437D01*
X141667437Y-66721903D01*
X141585359Y-66844742D01*
X141572421Y-66875974D01*
X140669883Y-65973436D01*
X140669882Y-65973437D01*
X140563196Y-66115953D01*
X140563191Y-66115961D01*
X140426091Y-66367041D01*
X140326109Y-66635104D01*
X140265300Y-66914637D01*
X140244891Y-67199998D01*
X139500500Y-67199998D01*
X139500500Y-64149996D01*
X149444435Y-64149996D01*
X149444435Y-64150003D01*
X149464630Y-64329249D01*
X149464631Y-64329254D01*
X149524211Y-64499523D01*
X149584515Y-64595496D01*
X149593626Y-64609996D01*
X149620185Y-64652263D01*
X149622445Y-64655097D01*
X149623334Y-64657275D01*
X149623889Y-64658158D01*
X149623734Y-64658255D01*
X149648855Y-64719783D01*
X149649500Y-64732412D01*
X149649500Y-65503583D01*
X149642541Y-65544538D01*
X149589633Y-65695737D01*
X149589630Y-65695750D01*
X149569435Y-65874996D01*
X149569435Y-65875003D01*
X149589630Y-66054249D01*
X149589631Y-66054254D01*
X149649211Y-66224523D01*
X149724228Y-66343911D01*
X149745184Y-66377262D01*
X149872738Y-66504816D01*
X149921347Y-66535359D01*
X150016850Y-66595368D01*
X150025478Y-66600789D01*
X150123545Y-66635104D01*
X150195745Y-66660368D01*
X150195750Y-66660369D01*
X150374996Y-66680565D01*
X150375000Y-66680565D01*
X150375004Y-66680565D01*
X150554249Y-66660369D01*
X150554252Y-66660368D01*
X150554255Y-66660368D01*
X150724522Y-66600789D01*
X150877262Y-66504816D01*
X151004816Y-66377262D01*
X151100789Y-66224522D01*
X151160368Y-66054255D01*
X151167692Y-65989254D01*
X151180565Y-65875003D01*
X151180565Y-65874996D01*
X151160369Y-65695750D01*
X151160368Y-65695745D01*
X151137625Y-65630750D01*
X151100789Y-65525478D01*
X151087031Y-65503583D01*
X151059945Y-65460476D01*
X151004816Y-65372738D01*
X150886819Y-65254741D01*
X150853334Y-65193418D01*
X150850500Y-65167060D01*
X150850500Y-64732412D01*
X150870185Y-64665373D01*
X150877555Y-64655097D01*
X150879810Y-64652267D01*
X150879816Y-64652262D01*
X150906374Y-64609996D01*
X151504435Y-64609996D01*
X151504435Y-64610003D01*
X151524630Y-64789249D01*
X151524631Y-64789254D01*
X151584211Y-64959523D01*
X151680185Y-65112263D01*
X151682445Y-65115097D01*
X151683334Y-65117275D01*
X151683889Y-65118158D01*
X151683734Y-65118255D01*
X151708855Y-65179783D01*
X151709500Y-65192412D01*
X151709500Y-65227587D01*
X151689815Y-65294626D01*
X151682450Y-65304896D01*
X151680186Y-65307734D01*
X151584211Y-65460476D01*
X151524631Y-65630745D01*
X151524630Y-65630750D01*
X151504435Y-65809996D01*
X151504435Y-65810003D01*
X151524630Y-65989249D01*
X151524631Y-65989254D01*
X151584211Y-66159523D01*
X151625053Y-66224522D01*
X151680184Y-66312262D01*
X151807738Y-66439816D01*
X151823946Y-66450000D01*
X151959793Y-66535359D01*
X151960478Y-66535789D01*
X152060377Y-66570745D01*
X152130745Y-66595368D01*
X152130750Y-66595369D01*
X152309996Y-66615565D01*
X152310000Y-66615565D01*
X152310004Y-66615565D01*
X152489249Y-66595369D01*
X152489252Y-66595368D01*
X152489255Y-66595368D01*
X152659522Y-66535789D01*
X152812262Y-66439816D01*
X152939816Y-66312262D01*
X153035789Y-66159522D01*
X153095368Y-65989255D01*
X153095369Y-65989249D01*
X153115565Y-65810003D01*
X153115565Y-65809996D01*
X153095369Y-65630750D01*
X153095368Y-65630745D01*
X153058533Y-65525476D01*
X153035789Y-65460478D01*
X152939816Y-65307738D01*
X152939814Y-65307736D01*
X152939813Y-65307734D01*
X152937550Y-65304896D01*
X152936659Y-65302715D01*
X152936111Y-65301842D01*
X152936264Y-65301745D01*
X152911144Y-65240209D01*
X152910500Y-65227587D01*
X152910500Y-65192412D01*
X152930185Y-65125373D01*
X152937555Y-65115097D01*
X152939810Y-65112267D01*
X152939816Y-65112262D01*
X153035789Y-64959522D01*
X153095368Y-64789255D01*
X153103196Y-64719783D01*
X153115565Y-64610003D01*
X153115565Y-64609996D01*
X153095369Y-64430750D01*
X153095368Y-64430745D01*
X153035788Y-64260476D01*
X152939815Y-64107737D01*
X152812262Y-63980184D01*
X152659523Y-63884211D01*
X152489254Y-63824631D01*
X152489249Y-63824630D01*
X152310004Y-63804435D01*
X152309996Y-63804435D01*
X152130750Y-63824630D01*
X152130745Y-63824631D01*
X151960476Y-63884211D01*
X151807737Y-63980184D01*
X151680184Y-64107737D01*
X151584211Y-64260476D01*
X151524631Y-64430745D01*
X151524630Y-64430750D01*
X151504435Y-64609996D01*
X150906374Y-64609996D01*
X150975789Y-64499522D01*
X151035368Y-64329255D01*
X151035369Y-64329249D01*
X151055565Y-64150003D01*
X151055565Y-64149996D01*
X151035369Y-63970750D01*
X151035368Y-63970745D01*
X150984241Y-63824632D01*
X150975789Y-63800478D01*
X150879816Y-63647738D01*
X150752262Y-63520184D01*
X150681608Y-63475789D01*
X150599523Y-63424211D01*
X150429254Y-63364631D01*
X150429249Y-63364630D01*
X150250004Y-63344435D01*
X150249996Y-63344435D01*
X150070750Y-63364630D01*
X150070745Y-63364631D01*
X149900476Y-63424211D01*
X149747737Y-63520184D01*
X149620184Y-63647737D01*
X149524211Y-63800476D01*
X149464631Y-63970745D01*
X149464630Y-63970750D01*
X149444435Y-64149996D01*
X139500500Y-64149996D01*
X139500500Y-62749996D01*
X152694435Y-62749996D01*
X152694435Y-62750003D01*
X152714630Y-62929249D01*
X152714631Y-62929254D01*
X152774211Y-63099523D01*
X152855102Y-63228259D01*
X152870184Y-63252262D01*
X152997738Y-63379816D01*
X153150478Y-63475789D01*
X153277352Y-63520184D01*
X153320745Y-63535368D01*
X153320750Y-63535369D01*
X153499996Y-63555565D01*
X153500000Y-63555565D01*
X153500004Y-63555565D01*
X153679249Y-63535369D01*
X153679252Y-63535368D01*
X153679255Y-63535368D01*
X153849522Y-63475789D01*
X154002262Y-63379816D01*
X154002267Y-63379810D01*
X154005097Y-63377555D01*
X154007275Y-63376665D01*
X154008158Y-63376111D01*
X154008255Y-63376265D01*
X154069783Y-63351145D01*
X154082412Y-63350500D01*
X156158839Y-63350500D01*
X156225878Y-63370185D01*
X156236154Y-63377555D01*
X156238987Y-63379814D01*
X156238989Y-63379816D01*
X156391729Y-63475789D01*
X156518603Y-63520184D01*
X156561996Y-63535368D01*
X156562001Y-63535369D01*
X156741247Y-63555565D01*
X156741251Y-63555565D01*
X156741255Y-63555565D01*
X156920500Y-63535369D01*
X156920503Y-63535368D01*
X156920506Y-63535368D01*
X157090773Y-63475789D01*
X157243513Y-63379816D01*
X157371067Y-63252262D01*
X157467040Y-63099522D01*
X157526619Y-62929255D01*
X157546816Y-62750000D01*
X157538488Y-62676089D01*
X157526620Y-62570750D01*
X157526619Y-62570745D01*
X157500255Y-62495400D01*
X157467040Y-62400478D01*
X157371067Y-62247738D01*
X157243513Y-62120184D01*
X157090774Y-62024211D01*
X156920505Y-61964631D01*
X156920500Y-61964630D01*
X156741255Y-61944435D01*
X156741247Y-61944435D01*
X156562001Y-61964630D01*
X156561996Y-61964631D01*
X156391727Y-62024211D01*
X156238987Y-62120185D01*
X156236154Y-62122445D01*
X156233975Y-62123334D01*
X156233093Y-62123889D01*
X156232995Y-62123734D01*
X156171468Y-62148855D01*
X156158839Y-62149500D01*
X154082412Y-62149500D01*
X154015373Y-62129815D01*
X154005097Y-62122445D01*
X154002263Y-62120185D01*
X154002262Y-62120184D01*
X153945496Y-62084515D01*
X153849523Y-62024211D01*
X153679254Y-61964631D01*
X153679249Y-61964630D01*
X153500004Y-61944435D01*
X153499996Y-61944435D01*
X153320750Y-61964630D01*
X153320745Y-61964631D01*
X153150476Y-62024211D01*
X152997737Y-62120184D01*
X152870184Y-62247737D01*
X152774211Y-62400476D01*
X152714631Y-62570745D01*
X152714630Y-62570750D01*
X152694435Y-62749996D01*
X139500500Y-62749996D01*
X139500500Y-59496646D01*
X139809950Y-59496646D01*
X139809950Y-59496647D01*
X140640025Y-59496647D01*
X140604930Y-59531742D01*
X140558852Y-59611552D01*
X140535000Y-59700569D01*
X140535000Y-59792725D01*
X140558852Y-59881742D01*
X140604930Y-59961552D01*
X140640025Y-59996647D01*
X139809950Y-59996647D01*
X139813932Y-60021791D01*
X139871082Y-60197684D01*
X139871084Y-60197690D01*
X139955052Y-60362484D01*
X140063754Y-60512101D01*
X140063758Y-60512106D01*
X140194540Y-60642888D01*
X140194545Y-60642892D01*
X140344162Y-60751594D01*
X140508956Y-60835562D01*
X140508959Y-60835563D01*
X140684852Y-60892713D01*
X140867527Y-60921647D01*
X140885000Y-60921647D01*
X140885000Y-60096647D01*
X141385000Y-60096647D01*
X141385000Y-60921647D01*
X141402473Y-60921647D01*
X141585147Y-60892713D01*
X141761040Y-60835563D01*
X141761043Y-60835562D01*
X141925837Y-60751594D01*
X142075454Y-60642892D01*
X142075459Y-60642888D01*
X142206241Y-60512106D01*
X142206245Y-60512101D01*
X142314947Y-60362484D01*
X142398915Y-60197690D01*
X142398917Y-60197684D01*
X142456067Y-60021791D01*
X142460049Y-59996647D01*
X141629975Y-59996647D01*
X141665070Y-59961552D01*
X141711148Y-59881742D01*
X141735000Y-59792725D01*
X141735000Y-59700569D01*
X141711148Y-59611552D01*
X141665070Y-59531742D01*
X141629975Y-59496647D01*
X142460050Y-59496647D01*
X142460049Y-59496646D01*
X142456067Y-59471502D01*
X142398917Y-59295609D01*
X142398915Y-59295603D01*
X142343398Y-59186647D01*
X142914157Y-59186647D01*
X143725382Y-59186647D01*
X143674936Y-59237093D01*
X143632149Y-59311202D01*
X143610000Y-59393860D01*
X143610000Y-59479434D01*
X143632149Y-59562092D01*
X143674936Y-59636201D01*
X143725382Y-59686647D01*
X142914157Y-59686647D01*
X142925350Y-59742921D01*
X142925351Y-59742923D01*
X143004500Y-59934005D01*
X143004505Y-59934015D01*
X143119410Y-60105982D01*
X143119413Y-60105986D01*
X143265660Y-60252233D01*
X143265664Y-60252236D01*
X143437631Y-60367141D01*
X143437641Y-60367146D01*
X143628725Y-60446296D01*
X143628733Y-60446298D01*
X143831579Y-60486646D01*
X143831583Y-60486647D01*
X143885000Y-60486647D01*
X143885000Y-59759714D01*
X143892213Y-59761647D01*
X144377787Y-59761647D01*
X144385000Y-59759714D01*
X144385000Y-60486647D01*
X144438417Y-60486647D01*
X144438420Y-60486646D01*
X144641266Y-60446298D01*
X144641274Y-60446296D01*
X144832358Y-60367146D01*
X144832368Y-60367141D01*
X145004335Y-60252236D01*
X145004339Y-60252233D01*
X145150586Y-60105986D01*
X145150589Y-60105982D01*
X145265494Y-59934015D01*
X145265499Y-59934005D01*
X145344648Y-59742923D01*
X145344649Y-59742921D01*
X145355843Y-59686647D01*
X144544618Y-59686647D01*
X144595064Y-59636201D01*
X144637851Y-59562092D01*
X144660000Y-59479434D01*
X144660000Y-59393860D01*
X144637851Y-59311202D01*
X144595064Y-59237093D01*
X144544618Y-59186647D01*
X145355843Y-59186647D01*
X145344649Y-59130372D01*
X145344648Y-59130370D01*
X145265499Y-58939288D01*
X145265494Y-58939278D01*
X145150589Y-58767311D01*
X145150586Y-58767307D01*
X145004339Y-58621060D01*
X145004335Y-58621057D01*
X144832368Y-58506152D01*
X144832358Y-58506147D01*
X144641274Y-58426997D01*
X144641266Y-58426995D01*
X144438420Y-58386647D01*
X144385000Y-58386647D01*
X144385000Y-59113579D01*
X144377787Y-59111647D01*
X143892213Y-59111647D01*
X143885000Y-59113579D01*
X143885000Y-58386647D01*
X143831579Y-58386647D01*
X143628733Y-58426995D01*
X143628725Y-58426997D01*
X143437641Y-58506147D01*
X143437631Y-58506152D01*
X143265664Y-58621057D01*
X143265660Y-58621060D01*
X143119413Y-58767307D01*
X143119410Y-58767311D01*
X143004505Y-58939278D01*
X143004500Y-58939288D01*
X142925351Y-59130370D01*
X142925350Y-59130372D01*
X142914157Y-59186647D01*
X142343398Y-59186647D01*
X142314947Y-59130809D01*
X142206245Y-58981192D01*
X142206241Y-58981187D01*
X142075459Y-58850405D01*
X142075454Y-58850401D01*
X141925837Y-58741699D01*
X141761043Y-58657731D01*
X141761040Y-58657730D01*
X141585147Y-58600580D01*
X141402473Y-58571647D01*
X141385000Y-58571647D01*
X141385000Y-59396647D01*
X140885000Y-59396647D01*
X140885000Y-58571647D01*
X140867527Y-58571647D01*
X140684852Y-58600580D01*
X140508959Y-58657730D01*
X140508956Y-58657731D01*
X140344162Y-58741699D01*
X140194545Y-58850401D01*
X140194540Y-58850405D01*
X140063758Y-58981187D01*
X140063754Y-58981192D01*
X139955052Y-59130809D01*
X139871084Y-59295603D01*
X139871082Y-59295609D01*
X139813932Y-59471502D01*
X139809950Y-59496646D01*
X139500500Y-59496646D01*
X139500500Y-54036646D01*
X139809950Y-54036646D01*
X139809950Y-54036647D01*
X140640025Y-54036647D01*
X140604930Y-54071742D01*
X140558852Y-54151552D01*
X140535000Y-54240569D01*
X140535000Y-54332725D01*
X140558852Y-54421742D01*
X140604930Y-54501552D01*
X140640025Y-54536647D01*
X139809950Y-54536647D01*
X139813932Y-54561791D01*
X139871082Y-54737684D01*
X139871084Y-54737690D01*
X139955052Y-54902484D01*
X140063754Y-55052101D01*
X140063758Y-55052106D01*
X140194540Y-55182888D01*
X140194545Y-55182892D01*
X140344162Y-55291594D01*
X140508956Y-55375562D01*
X140508959Y-55375563D01*
X140684852Y-55432713D01*
X140867527Y-55461647D01*
X140885000Y-55461647D01*
X140885000Y-54636647D01*
X141385000Y-54636647D01*
X141385000Y-55461647D01*
X141402473Y-55461647D01*
X141585147Y-55432713D01*
X141761040Y-55375563D01*
X141761043Y-55375562D01*
X141925837Y-55291594D01*
X142075454Y-55182892D01*
X142075459Y-55182888D01*
X142206241Y-55052106D01*
X142206245Y-55052101D01*
X142314947Y-54902484D01*
X142398915Y-54737690D01*
X142398917Y-54737684D01*
X142456067Y-54561791D01*
X142460049Y-54536647D01*
X141629975Y-54536647D01*
X141665070Y-54501552D01*
X141711148Y-54421742D01*
X141731270Y-54346647D01*
X142914157Y-54346647D01*
X143725382Y-54346647D01*
X143674936Y-54397093D01*
X143632149Y-54471202D01*
X143610000Y-54553860D01*
X143610000Y-54639434D01*
X143632149Y-54722092D01*
X143674936Y-54796201D01*
X143725382Y-54846647D01*
X142914157Y-54846647D01*
X142925350Y-54902921D01*
X142925351Y-54902923D01*
X143004500Y-55094005D01*
X143004505Y-55094015D01*
X143119410Y-55265982D01*
X143119413Y-55265986D01*
X143265660Y-55412233D01*
X143265664Y-55412236D01*
X143437631Y-55527141D01*
X143437641Y-55527146D01*
X143628725Y-55606296D01*
X143628733Y-55606298D01*
X143831579Y-55646646D01*
X143831583Y-55646647D01*
X143885000Y-55646647D01*
X143885000Y-54919714D01*
X143892213Y-54921647D01*
X144377787Y-54921647D01*
X144385000Y-54919714D01*
X144385000Y-55646647D01*
X144438417Y-55646647D01*
X144438420Y-55646646D01*
X144641266Y-55606298D01*
X144641274Y-55606296D01*
X144832358Y-55527146D01*
X144832368Y-55527141D01*
X144843061Y-55519996D01*
X155444435Y-55519996D01*
X155444435Y-55520003D01*
X155464630Y-55699249D01*
X155464631Y-55699254D01*
X155524211Y-55869523D01*
X155620185Y-56022263D01*
X155622445Y-56025097D01*
X155623334Y-56027275D01*
X155623889Y-56028158D01*
X155623734Y-56028255D01*
X155648855Y-56089783D01*
X155649500Y-56102412D01*
X155649500Y-56537587D01*
X155629815Y-56604626D01*
X155622450Y-56614896D01*
X155620186Y-56617734D01*
X155524211Y-56770476D01*
X155464631Y-56940745D01*
X155464630Y-56940750D01*
X155444435Y-57119996D01*
X155444435Y-57120003D01*
X155464630Y-57299249D01*
X155464631Y-57299254D01*
X155524211Y-57469523D01*
X155603738Y-57596089D01*
X155620184Y-57622262D01*
X155747738Y-57749816D01*
X155900478Y-57845789D01*
X156070745Y-57905368D01*
X156070750Y-57905369D01*
X156249996Y-57925565D01*
X156250000Y-57925565D01*
X156250004Y-57925565D01*
X156429249Y-57905369D01*
X156429252Y-57905368D01*
X156429255Y-57905368D01*
X156599522Y-57845789D01*
X156752262Y-57749816D01*
X156879816Y-57622262D01*
X156975789Y-57469522D01*
X157035368Y-57299255D01*
X157052185Y-57150000D01*
X157052185Y-57149996D01*
X157714435Y-57149996D01*
X157714435Y-57150003D01*
X157734630Y-57329249D01*
X157734631Y-57329254D01*
X157794211Y-57499523D01*
X157890185Y-57652263D01*
X157892445Y-57655097D01*
X157893334Y-57657275D01*
X157893889Y-57658158D01*
X157893734Y-57658255D01*
X157918855Y-57719783D01*
X157919500Y-57732412D01*
X157919500Y-59776336D01*
X157899815Y-59843375D01*
X157892450Y-59853645D01*
X157890186Y-59856483D01*
X157794211Y-60009225D01*
X157734631Y-60179494D01*
X157734630Y-60179499D01*
X157714435Y-60358745D01*
X157714435Y-60358752D01*
X157734630Y-60537998D01*
X157734631Y-60538003D01*
X157794211Y-60708272D01*
X157867408Y-60824763D01*
X157890184Y-60861011D01*
X158017738Y-60988565D01*
X158170478Y-61084538D01*
X158340745Y-61144117D01*
X158340750Y-61144118D01*
X158519996Y-61164314D01*
X158520000Y-61164314D01*
X158520004Y-61164314D01*
X158699249Y-61144118D01*
X158699252Y-61144117D01*
X158699255Y-61144117D01*
X158869522Y-61084538D01*
X159022262Y-60988565D01*
X159149816Y-60861011D01*
X159245789Y-60708271D01*
X159305368Y-60538004D01*
X159308287Y-60512101D01*
X159325565Y-60358752D01*
X159325565Y-60358745D01*
X159305369Y-60179499D01*
X159305368Y-60179494D01*
X159279645Y-60105982D01*
X159245789Y-60009227D01*
X159237884Y-59996647D01*
X159198524Y-59934005D01*
X159149816Y-59856487D01*
X159149814Y-59856485D01*
X159149813Y-59856483D01*
X159147550Y-59853645D01*
X159146659Y-59851464D01*
X159146111Y-59850591D01*
X159146264Y-59850494D01*
X159121144Y-59788958D01*
X159120500Y-59776336D01*
X159120500Y-57732412D01*
X159140185Y-57665373D01*
X159147555Y-57655097D01*
X159149810Y-57652267D01*
X159149816Y-57652262D01*
X159245789Y-57499522D01*
X159305368Y-57329255D01*
X159308748Y-57299255D01*
X159325565Y-57150003D01*
X159325565Y-57149996D01*
X159305369Y-56970750D01*
X159305368Y-56970745D01*
X159294872Y-56940750D01*
X159245789Y-56800478D01*
X159226937Y-56770476D01*
X159149815Y-56647737D01*
X159022262Y-56520184D01*
X158869523Y-56424211D01*
X158699254Y-56364631D01*
X158699249Y-56364630D01*
X158520004Y-56344435D01*
X158519996Y-56344435D01*
X158340750Y-56364630D01*
X158340745Y-56364631D01*
X158170476Y-56424211D01*
X158017737Y-56520184D01*
X157890184Y-56647737D01*
X157794211Y-56800476D01*
X157734631Y-56970745D01*
X157734630Y-56970750D01*
X157714435Y-57149996D01*
X157052185Y-57149996D01*
X157055565Y-57120003D01*
X157055565Y-57119996D01*
X157035369Y-56940750D01*
X157035368Y-56940745D01*
X156975789Y-56770478D01*
X156879816Y-56617738D01*
X156879814Y-56617736D01*
X156879813Y-56617734D01*
X156877550Y-56614896D01*
X156876659Y-56612715D01*
X156876111Y-56611842D01*
X156876264Y-56611745D01*
X156851144Y-56550209D01*
X156850500Y-56537587D01*
X156850500Y-56102412D01*
X156870185Y-56035373D01*
X156877555Y-56025097D01*
X156879810Y-56022267D01*
X156879816Y-56022262D01*
X156975789Y-55869522D01*
X157035368Y-55699255D01*
X157038880Y-55668087D01*
X157055565Y-55520003D01*
X157055565Y-55519996D01*
X157035369Y-55340750D01*
X157035368Y-55340745D01*
X157009207Y-55265982D01*
X156975789Y-55170478D01*
X156879816Y-55017738D01*
X156752262Y-54890184D01*
X156698990Y-54856711D01*
X156599523Y-54794211D01*
X156429254Y-54734631D01*
X156429249Y-54734630D01*
X156250004Y-54714435D01*
X156249996Y-54714435D01*
X156070750Y-54734630D01*
X156070745Y-54734631D01*
X155900476Y-54794211D01*
X155747737Y-54890184D01*
X155620184Y-55017737D01*
X155524211Y-55170476D01*
X155464631Y-55340745D01*
X155464630Y-55340750D01*
X155444435Y-55519996D01*
X144843061Y-55519996D01*
X145004335Y-55412236D01*
X145004339Y-55412233D01*
X145150586Y-55265986D01*
X145150589Y-55265982D01*
X145265494Y-55094015D01*
X145265499Y-55094005D01*
X145344648Y-54902923D01*
X145344649Y-54902921D01*
X145355843Y-54846647D01*
X144544618Y-54846647D01*
X144595064Y-54796201D01*
X144637851Y-54722092D01*
X144660000Y-54639434D01*
X144660000Y-54553860D01*
X144637851Y-54471202D01*
X144595064Y-54397093D01*
X144544618Y-54346647D01*
X145355843Y-54346647D01*
X145344649Y-54290372D01*
X145344648Y-54290370D01*
X145265499Y-54099288D01*
X145265494Y-54099278D01*
X145150589Y-53927311D01*
X145150586Y-53927307D01*
X145004339Y-53781060D01*
X145004335Y-53781057D01*
X144832368Y-53666152D01*
X144832358Y-53666147D01*
X144641274Y-53586997D01*
X144641266Y-53586995D01*
X144438420Y-53546647D01*
X144385000Y-53546647D01*
X144385000Y-54273579D01*
X144377787Y-54271647D01*
X143892213Y-54271647D01*
X143885000Y-54273579D01*
X143885000Y-53546647D01*
X143831579Y-53546647D01*
X143628733Y-53586995D01*
X143628725Y-53586997D01*
X143437641Y-53666147D01*
X143437631Y-53666152D01*
X143265664Y-53781057D01*
X143265660Y-53781060D01*
X143119413Y-53927307D01*
X143119410Y-53927311D01*
X143004505Y-54099278D01*
X143004500Y-54099288D01*
X142925351Y-54290370D01*
X142925350Y-54290372D01*
X142914157Y-54346647D01*
X141731270Y-54346647D01*
X141735000Y-54332725D01*
X141735000Y-54240569D01*
X141711148Y-54151552D01*
X141665070Y-54071742D01*
X141629975Y-54036647D01*
X142460050Y-54036647D01*
X142460049Y-54036646D01*
X142456067Y-54011502D01*
X142398917Y-53835609D01*
X142398915Y-53835603D01*
X142314947Y-53670809D01*
X142206245Y-53521192D01*
X142206241Y-53521187D01*
X142075459Y-53390405D01*
X142075454Y-53390401D01*
X141925837Y-53281699D01*
X141761043Y-53197731D01*
X141761040Y-53197730D01*
X141585147Y-53140580D01*
X141402473Y-53111647D01*
X141385000Y-53111647D01*
X141385000Y-53936647D01*
X140885000Y-53936647D01*
X140885000Y-53111647D01*
X140867527Y-53111647D01*
X140684852Y-53140580D01*
X140508959Y-53197730D01*
X140508956Y-53197731D01*
X140344162Y-53281699D01*
X140194545Y-53390401D01*
X140194540Y-53390405D01*
X140063758Y-53521187D01*
X140063754Y-53521192D01*
X139955052Y-53670809D01*
X139871084Y-53835603D01*
X139871082Y-53835609D01*
X139813932Y-54011502D01*
X139809950Y-54036646D01*
X139500500Y-54036646D01*
X139500500Y-49874500D01*
X139520185Y-49807461D01*
X139572989Y-49761706D01*
X139624500Y-49750500D01*
X178645122Y-49750500D01*
X178712161Y-49770185D01*
G37*
%TD.AperFunction*%
%TD*%
M02*
