%TF.GenerationSoftware,KiCad,Pcbnew,8.0.3*%
%TF.CreationDate,2024-09-20T11:12:47-04:00*%
%TF.ProjectId,Sequencer,53657175-656e-4636-9572-2e6b69636164,rev?*%
%TF.SameCoordinates,Original*%
%TF.FileFunction,Soldermask,Top*%
%TF.FilePolarity,Negative*%
%FSLAX46Y46*%
G04 Gerber Fmt 4.6, Leading zero omitted, Abs format (unit mm)*
G04 Created by KiCad (PCBNEW 8.0.3) date 2024-09-20 11:12:47*
%MOMM*%
%LPD*%
G01*
G04 APERTURE LIST*
G04 Aperture macros list*
%AMRoundRect*
0 Rectangle with rounded corners*
0 $1 Rounding radius*
0 $2 $3 $4 $5 $6 $7 $8 $9 X,Y pos of 4 corners*
0 Add a 4 corners polygon primitive as box body*
4,1,4,$2,$3,$4,$5,$6,$7,$8,$9,$2,$3,0*
0 Add four circle primitives for the rounded corners*
1,1,$1+$1,$2,$3*
1,1,$1+$1,$4,$5*
1,1,$1+$1,$6,$7*
1,1,$1+$1,$8,$9*
0 Add four rect primitives between the rounded corners*
20,1,$1+$1,$2,$3,$4,$5,0*
20,1,$1+$1,$4,$5,$6,$7,0*
20,1,$1+$1,$6,$7,$8,$9,0*
20,1,$1+$1,$8,$9,$2,$3,0*%
%AMFreePoly0*
4,1,9,3.862500,-0.866500,0.737500,-0.866500,0.737500,-0.450000,-0.737500,-0.450000,-0.737500,0.450000,0.737500,0.450000,0.737500,0.866500,3.862500,0.866500,3.862500,-0.866500,3.862500,-0.866500,$1*%
G04 Aperture macros list end*
%ADD10RoundRect,0.200000X-0.200000X-0.275000X0.200000X-0.275000X0.200000X0.275000X-0.200000X0.275000X0*%
%ADD11RoundRect,0.250000X-0.450000X0.262500X-0.450000X-0.262500X0.450000X-0.262500X0.450000X0.262500X0*%
%ADD12RoundRect,0.218750X0.218750X0.256250X-0.218750X0.256250X-0.218750X-0.256250X0.218750X-0.256250X0*%
%ADD13RoundRect,0.225000X-0.225000X-0.250000X0.225000X-0.250000X0.225000X0.250000X-0.225000X0.250000X0*%
%ADD14RoundRect,0.225000X0.225000X0.250000X-0.225000X0.250000X-0.225000X-0.250000X0.225000X-0.250000X0*%
%ADD15RoundRect,0.150000X-0.750000X-0.150000X0.750000X-0.150000X0.750000X0.150000X-0.750000X0.150000X0*%
%ADD16C,1.524000*%
%ADD17C,3.000000*%
%ADD18RoundRect,0.225000X-0.250000X0.225000X-0.250000X-0.225000X0.250000X-0.225000X0.250000X0.225000X0*%
%ADD19R,1.650000X0.400000*%
%ADD20R,0.700000X1.825000*%
%ADD21R,1.500000X2.000000*%
%ADD22R,2.000000X1.350000*%
%ADD23O,1.700000X1.350000*%
%ADD24O,1.500000X1.100000*%
%ADD25R,2.500000X1.430000*%
%ADD26RoundRect,0.200000X-0.275000X0.200000X-0.275000X-0.200000X0.275000X-0.200000X0.275000X0.200000X0*%
%ADD27RoundRect,0.218750X-0.218750X-0.256250X0.218750X-0.256250X0.218750X0.256250X-0.218750X0.256250X0*%
%ADD28RoundRect,0.218750X-0.218750X-0.381250X0.218750X-0.381250X0.218750X0.381250X-0.218750X0.381250X0*%
%ADD29RoundRect,0.225000X0.225000X-0.425000X0.225000X0.425000X-0.225000X0.425000X-0.225000X-0.425000X0*%
%ADD30FreePoly0,90.000000*%
%ADD31RoundRect,0.200000X0.200000X0.275000X-0.200000X0.275000X-0.200000X-0.275000X0.200000X-0.275000X0*%
%ADD32R,0.400000X1.200000*%
%ADD33RoundRect,0.150000X-0.150000X-0.200000X0.150000X-0.200000X0.150000X0.200000X-0.150000X0.200000X0*%
%ADD34RoundRect,0.150000X-0.150000X0.825000X-0.150000X-0.825000X0.150000X-0.825000X0.150000X0.825000X0*%
%ADD35R,2.100000X2.100000*%
%ADD36C,2.100000*%
G04 APERTURE END LIST*
D10*
%TO.C,R17*%
X147675000Y-79000000D03*
X149325000Y-79000000D03*
%TD*%
D11*
%TO.C,R12*%
X146250000Y-63337500D03*
X146250000Y-65162500D03*
%TD*%
%TO.C,R11*%
X148000000Y-63337500D03*
X148000000Y-65162500D03*
%TD*%
D12*
%TO.C,D9*%
X149287500Y-77250000D03*
X147712500Y-77250000D03*
%TD*%
D13*
%TO.C,C2*%
X165745000Y-59758749D03*
X167295000Y-59758749D03*
%TD*%
D14*
%TO.C,C4*%
X170545000Y-58008749D03*
X168995000Y-58008749D03*
%TD*%
D15*
%TO.C,U4*%
X163600000Y-73480000D03*
X163600000Y-76020000D03*
X169900000Y-76020000D03*
X169900000Y-73480000D03*
%TD*%
D16*
%TO.C,SW1*%
X142250000Y-70350000D03*
X142250000Y-73350000D03*
X142250000Y-76350000D03*
D17*
X142250000Y-67200000D03*
X142250000Y-79500000D03*
%TD*%
D18*
%TO.C,C9*%
X155250000Y-68725000D03*
X155250000Y-70275000D03*
%TD*%
D19*
%TO.C,J2*%
X144015000Y-55716647D03*
X144015000Y-56366647D03*
X144015000Y-57016647D03*
X144015000Y-57666647D03*
X144015000Y-58316647D03*
D20*
X142815000Y-54066647D03*
D21*
X144115000Y-54166647D03*
D22*
X142065000Y-54286647D03*
D23*
X141135000Y-54286647D03*
D24*
X144135000Y-54596647D03*
D25*
X140865000Y-56056647D03*
X140865000Y-57976647D03*
D24*
X144135000Y-59436647D03*
D23*
X141135000Y-59746647D03*
D22*
X142065000Y-59766647D03*
D21*
X144135000Y-59916647D03*
D20*
X142815000Y-60016647D03*
%TD*%
D15*
%TO.C,U5*%
X163600000Y-78230000D03*
X163600000Y-80770000D03*
X169900000Y-80770000D03*
X169900000Y-78230000D03*
%TD*%
D26*
%TO.C,R6*%
X158000000Y-68675000D03*
X158000000Y-70325000D03*
%TD*%
D13*
%TO.C,C1*%
X146905000Y-55520000D03*
X148455000Y-55520000D03*
%TD*%
D12*
%TO.C,D3*%
X161287500Y-76000000D03*
X159712500Y-76000000D03*
%TD*%
D10*
%TO.C,R1*%
X159675000Y-64000000D03*
X161325000Y-64000000D03*
%TD*%
D27*
%TO.C,D8*%
X150712500Y-59250000D03*
X152287500Y-59250000D03*
%TD*%
D28*
%TO.C,FB1*%
X146867500Y-53770000D03*
X148992500Y-53770000D03*
%TD*%
D27*
%TO.C,D7*%
X150712500Y-57500000D03*
X152287500Y-57500000D03*
%TD*%
D12*
%TO.C,D6*%
X145750000Y-51750000D03*
X144175000Y-51750000D03*
%TD*%
D29*
%TO.C,U6*%
X166750000Y-55339374D03*
D30*
X168250000Y-55251874D03*
D29*
X169750000Y-55339374D03*
%TD*%
D31*
%TO.C,R16*%
X152325000Y-61000000D03*
X150675000Y-61000000D03*
%TD*%
%TO.C,R15*%
X152325000Y-62750000D03*
X150675000Y-62750000D03*
%TD*%
D26*
%TO.C,R8*%
X158000000Y-78175000D03*
X158000000Y-79825000D03*
%TD*%
D31*
%TO.C,R14*%
X148505000Y-59020000D03*
X146855000Y-59020000D03*
%TD*%
D32*
%TO.C,U7*%
X164020000Y-55558749D03*
X163385000Y-55558749D03*
X162750000Y-55558749D03*
X162115000Y-55558749D03*
X161480000Y-55558749D03*
X160845000Y-55558749D03*
X160210000Y-55558749D03*
X159575000Y-55558749D03*
X159575000Y-60758749D03*
X160210000Y-60758749D03*
X160845000Y-60758749D03*
X161480000Y-60758749D03*
X162115000Y-60758749D03*
X162750000Y-60758749D03*
X163385000Y-60758749D03*
X164020000Y-60758749D03*
%TD*%
D31*
%TO.C,R9*%
X170595000Y-61508749D03*
X168945000Y-61508749D03*
%TD*%
D26*
%TO.C,R7*%
X158000000Y-73425000D03*
X158000000Y-75075000D03*
%TD*%
D13*
%TO.C,C5*%
X146905000Y-60770000D03*
X148455000Y-60770000D03*
%TD*%
D12*
%TO.C,D1*%
X161287500Y-66500000D03*
X159712500Y-66500000D03*
%TD*%
%TO.C,D4*%
X161250000Y-80750000D03*
X159675000Y-80750000D03*
%TD*%
D14*
%TO.C,C7*%
X164125000Y-53558749D03*
X162575000Y-53558749D03*
%TD*%
D33*
%TO.C,D5*%
X167470000Y-61508749D03*
X166070000Y-61508749D03*
%TD*%
D12*
%TO.C,D2*%
X161287500Y-71000000D03*
X159712500Y-71000000D03*
%TD*%
D26*
%TO.C,R5*%
X158000000Y-63925000D03*
X158000000Y-65575000D03*
%TD*%
D10*
%TO.C,R2*%
X159675000Y-68750000D03*
X161325000Y-68750000D03*
%TD*%
D31*
%TO.C,R10*%
X142750000Y-51750000D03*
X141100000Y-51750000D03*
%TD*%
D15*
%TO.C,U2*%
X163600000Y-63980000D03*
X163600000Y-66520000D03*
X169900000Y-66520000D03*
X169900000Y-63980000D03*
%TD*%
D13*
%TO.C,C3*%
X165720000Y-58008749D03*
X167270000Y-58008749D03*
%TD*%
D14*
%TO.C,C8*%
X148955000Y-51770000D03*
X147405000Y-51770000D03*
%TD*%
D34*
%TO.C,U1*%
X153580000Y-67550000D03*
X152310000Y-67550000D03*
X151040000Y-67550000D03*
X149770000Y-67550000D03*
X148500000Y-67550000D03*
X147230000Y-67550000D03*
X145960000Y-67550000D03*
X145960000Y-72500000D03*
X147230000Y-72500000D03*
X148500000Y-72500000D03*
X149770000Y-72500000D03*
X151040000Y-72500000D03*
X152310000Y-72500000D03*
X153580000Y-72500000D03*
%TD*%
D31*
%TO.C,R13*%
X148505000Y-57270000D03*
X146855000Y-57270000D03*
%TD*%
D15*
%TO.C,U3*%
X163600000Y-68730000D03*
X163600000Y-71270000D03*
X169900000Y-71270000D03*
X169900000Y-68730000D03*
%TD*%
D10*
%TO.C,R3*%
X159675000Y-73500000D03*
X161325000Y-73500000D03*
%TD*%
%TO.C,R4*%
X159675000Y-78250000D03*
X161325000Y-78250000D03*
%TD*%
D14*
%TO.C,C6*%
X170545000Y-59758749D03*
X168995000Y-59758749D03*
%TD*%
D35*
%TO.C,J1*%
X175250000Y-51810000D03*
D36*
X175250000Y-54350000D03*
X175250000Y-56890000D03*
X175250000Y-59430000D03*
X175250000Y-61970000D03*
X175250000Y-64510000D03*
X175250000Y-67050000D03*
X175250000Y-69590000D03*
X175250000Y-72130000D03*
X175250000Y-74670000D03*
X175250000Y-77210000D03*
X175250000Y-79750000D03*
%TD*%
M02*
