%TF.GenerationSoftware,KiCad,Pcbnew,8.0.5*%
%TF.CreationDate,2024-10-20T23:26:53-04:00*%
%TF.ProjectId,Sequencer,53657175-656e-4636-9572-2e6b69636164,rev?*%
%TF.SameCoordinates,Original*%
%TF.FileFunction,Paste,Top*%
%TF.FilePolarity,Positive*%
%FSLAX46Y46*%
G04 Gerber Fmt 4.6, Leading zero omitted, Abs format (unit mm)*
G04 Created by KiCad (PCBNEW 8.0.5) date 2024-10-20 23:26:53*
%MOMM*%
%LPD*%
G01*
G04 APERTURE LIST*
G04 Aperture macros list*
%AMRoundRect*
0 Rectangle with rounded corners*
0 $1 Rounding radius*
0 $2 $3 $4 $5 $6 $7 $8 $9 X,Y pos of 4 corners*
0 Add a 4 corners polygon primitive as box body*
4,1,4,$2,$3,$4,$5,$6,$7,$8,$9,$2,$3,0*
0 Add four circle primitives for the rounded corners*
1,1,$1+$1,$2,$3*
1,1,$1+$1,$4,$5*
1,1,$1+$1,$6,$7*
1,1,$1+$1,$8,$9*
0 Add four rect primitives between the rounded corners*
20,1,$1+$1,$2,$3,$4,$5,0*
20,1,$1+$1,$4,$5,$6,$7,0*
20,1,$1+$1,$6,$7,$8,$9,0*
20,1,$1+$1,$8,$9,$2,$3,0*%
%AMFreePoly0*
4,1,14,0.334644,0.085355,0.385355,0.034644,0.400000,-0.000711,0.400000,-0.050000,0.385355,-0.085355,0.350000,-0.100000,-0.350000,-0.100000,-0.385355,-0.085355,-0.400000,-0.050000,-0.400000,0.050000,-0.385355,0.085355,-0.350000,0.100000,0.299289,0.100000,0.334644,0.085355,0.334644,0.085355,$1*%
%AMFreePoly1*
4,1,14,0.385355,0.085355,0.400000,0.050000,0.400000,0.000711,0.385355,-0.034644,0.334644,-0.085355,0.299289,-0.100000,-0.350000,-0.100000,-0.385355,-0.085355,-0.400000,-0.050000,-0.400000,0.050000,-0.385355,0.085355,-0.350000,0.100000,0.350000,0.100000,0.385355,0.085355,0.385355,0.085355,$1*%
%AMFreePoly2*
4,1,14,0.085355,0.385355,0.100000,0.350000,0.100000,-0.350000,0.085355,-0.385355,0.050000,-0.400000,-0.050000,-0.400000,-0.085355,-0.385355,-0.100000,-0.350000,-0.100000,0.299289,-0.085355,0.334644,-0.034644,0.385355,0.000711,0.400000,0.050000,0.400000,0.085355,0.385355,0.085355,0.385355,$1*%
%AMFreePoly3*
4,1,14,0.034644,0.385355,0.085355,0.334644,0.100000,0.299289,0.100000,-0.350000,0.085355,-0.385355,0.050000,-0.400000,-0.050000,-0.400000,-0.085355,-0.385355,-0.100000,-0.350000,-0.100000,0.350000,-0.085355,0.385355,-0.050000,0.400000,-0.000711,0.400000,0.034644,0.385355,0.034644,0.385355,$1*%
%AMFreePoly4*
4,1,14,0.385355,0.085355,0.400000,0.050000,0.400000,-0.050000,0.385355,-0.085355,0.350000,-0.100000,-0.299289,-0.100000,-0.334644,-0.085355,-0.385355,-0.034644,-0.400000,0.000711,-0.400000,0.050000,-0.385355,0.085355,-0.350000,0.100000,0.350000,0.100000,0.385355,0.085355,0.385355,0.085355,$1*%
%AMFreePoly5*
4,1,14,0.385355,0.085355,0.400000,0.050000,0.400000,-0.050000,0.385355,-0.085355,0.350000,-0.100000,-0.350000,-0.100000,-0.385355,-0.085355,-0.400000,-0.050000,-0.400000,-0.000711,-0.385355,0.034644,-0.334644,0.085355,-0.299289,0.100000,0.350000,0.100000,0.385355,0.085355,0.385355,0.085355,$1*%
%AMFreePoly6*
4,1,14,0.085355,0.385355,0.100000,0.350000,0.100000,-0.299289,0.085355,-0.334644,0.034644,-0.385355,-0.000711,-0.400000,-0.050000,-0.400000,-0.085355,-0.385355,-0.100000,-0.350000,-0.100000,0.350000,-0.085355,0.385355,-0.050000,0.400000,0.050000,0.400000,0.085355,0.385355,0.085355,0.385355,$1*%
%AMFreePoly7*
4,1,14,0.085355,0.385355,0.100000,0.350000,0.100000,-0.350000,0.085355,-0.385355,0.050000,-0.400000,0.000711,-0.400000,-0.034644,-0.385355,-0.085355,-0.334644,-0.100000,-0.299289,-0.100000,0.350000,-0.085355,0.385355,-0.050000,0.400000,0.050000,0.400000,0.085355,0.385355,0.085355,0.385355,$1*%
%AMFreePoly8*
4,1,9,3.862500,-0.866500,0.737500,-0.866500,0.737500,-0.450000,-0.737500,-0.450000,-0.737500,0.450000,0.737500,0.450000,0.737500,0.866500,3.862500,0.866500,3.862500,-0.866500,3.862500,-0.866500,$1*%
G04 Aperture macros list end*
%ADD10RoundRect,0.218750X-0.256250X0.218750X-0.256250X-0.218750X0.256250X-0.218750X0.256250X0.218750X0*%
%ADD11RoundRect,0.225000X-0.225000X-0.250000X0.225000X-0.250000X0.225000X0.250000X-0.225000X0.250000X0*%
%ADD12RoundRect,0.225000X0.225000X0.250000X-0.225000X0.250000X-0.225000X-0.250000X0.225000X-0.250000X0*%
%ADD13RoundRect,0.150000X-0.750000X-0.150000X0.750000X-0.150000X0.750000X0.150000X-0.750000X0.150000X0*%
%ADD14R,1.240000X0.600000*%
%ADD15R,1.240000X0.300000*%
%ADD16RoundRect,0.172500X-0.172500X0.172500X-0.172500X-0.172500X0.172500X-0.172500X0.172500X0.172500X0*%
%ADD17FreePoly0,270.000000*%
%ADD18RoundRect,0.050000X-0.050000X0.350000X-0.050000X-0.350000X0.050000X-0.350000X0.050000X0.350000X0*%
%ADD19FreePoly1,270.000000*%
%ADD20FreePoly2,270.000000*%
%ADD21RoundRect,0.050000X-0.350000X0.050000X-0.350000X-0.050000X0.350000X-0.050000X0.350000X0.050000X0*%
%ADD22FreePoly3,270.000000*%
%ADD23FreePoly4,270.000000*%
%ADD24FreePoly5,270.000000*%
%ADD25FreePoly6,270.000000*%
%ADD26FreePoly7,270.000000*%
%ADD27RoundRect,0.200000X0.200000X0.275000X-0.200000X0.275000X-0.200000X-0.275000X0.200000X-0.275000X0*%
%ADD28RoundRect,0.200000X-0.200000X-0.275000X0.200000X-0.275000X0.200000X0.275000X-0.200000X0.275000X0*%
%ADD29RoundRect,0.137500X0.662500X0.137500X-0.662500X0.137500X-0.662500X-0.137500X0.662500X-0.137500X0*%
%ADD30RoundRect,0.225000X0.250000X-0.225000X0.250000X0.225000X-0.250000X0.225000X-0.250000X-0.225000X0*%
%ADD31RoundRect,0.112500X-0.112500X0.187500X-0.112500X-0.187500X0.112500X-0.187500X0.112500X0.187500X0*%
%ADD32RoundRect,0.218750X0.218750X0.256250X-0.218750X0.256250X-0.218750X-0.256250X0.218750X-0.256250X0*%
%ADD33RoundRect,0.218750X-0.218750X-0.381250X0.218750X-0.381250X0.218750X0.381250X-0.218750X0.381250X0*%
%ADD34RoundRect,0.225000X0.225000X-0.425000X0.225000X0.425000X-0.225000X0.425000X-0.225000X-0.425000X0*%
%ADD35FreePoly8,90.000000*%
%ADD36R,0.400000X1.200000*%
%ADD37RoundRect,0.200000X-0.275000X0.200000X-0.275000X-0.200000X0.275000X-0.200000X0.275000X0.200000X0*%
%ADD38RoundRect,0.225000X-0.250000X0.225000X-0.250000X-0.225000X0.250000X-0.225000X0.250000X0.225000X0*%
%ADD39RoundRect,0.112500X-0.187500X-0.112500X0.187500X-0.112500X0.187500X0.112500X-0.187500X0.112500X0*%
%ADD40RoundRect,0.112500X0.112500X-0.187500X0.112500X0.187500X-0.112500X0.187500X-0.112500X-0.187500X0*%
%ADD41RoundRect,0.218750X0.256250X-0.218750X0.256250X0.218750X-0.256250X0.218750X-0.256250X-0.218750X0*%
G04 APERTURE END LIST*
D10*
%TO.C,D9*%
X154000000Y-67500000D03*
X154000000Y-69075000D03*
%TD*%
D11*
%TO.C,C2*%
X163995000Y-58000000D03*
X165545000Y-58000000D03*
%TD*%
D12*
%TO.C,C4*%
X169275000Y-56500000D03*
X167725000Y-56500000D03*
%TD*%
D13*
%TO.C,U4*%
X163600000Y-75230000D03*
X163600000Y-77770000D03*
X169900000Y-77770000D03*
X169900000Y-75230000D03*
%TD*%
D14*
%TO.C,J3*%
X140300000Y-53620000D03*
X140300000Y-54420000D03*
D15*
X140300000Y-55570000D03*
X140300000Y-56570000D03*
X140300000Y-57070000D03*
X140300000Y-58070000D03*
D14*
X140300000Y-59220000D03*
X140300000Y-60020000D03*
X140300000Y-60020000D03*
X140300000Y-59220000D03*
D15*
X140300000Y-58570000D03*
X140300000Y-57570000D03*
X140300000Y-56070000D03*
X140300000Y-55070000D03*
D14*
X140300000Y-54420000D03*
X140300000Y-53620000D03*
%TD*%
D16*
%TO.C,U9*%
X152125000Y-71625000D03*
X151275000Y-71625000D03*
X152125000Y-72475000D03*
X151275000Y-72475000D03*
D17*
X152500000Y-70600000D03*
D18*
X152100000Y-70600000D03*
X151700000Y-70600000D03*
X151300000Y-70600000D03*
D19*
X150900000Y-70600000D03*
D20*
X150250000Y-71250000D03*
D21*
X150250000Y-71650000D03*
X150250000Y-72050000D03*
X150250000Y-72450000D03*
D22*
X150250000Y-72850000D03*
D23*
X150900000Y-73500000D03*
D18*
X151300000Y-73500000D03*
X151700000Y-73500000D03*
X152100000Y-73500000D03*
D24*
X152500000Y-73500000D03*
D25*
X153150000Y-72850000D03*
D21*
X153150000Y-72450000D03*
X153150000Y-72050000D03*
X153150000Y-71650000D03*
D26*
X153150000Y-71250000D03*
%TD*%
D27*
%TO.C,R20*%
X171075000Y-64000000D03*
X169425000Y-64000000D03*
%TD*%
D11*
%TO.C,C9*%
X150725000Y-68500000D03*
X152275000Y-68500000D03*
%TD*%
D28*
%TO.C,R19*%
X134500000Y-50500000D03*
X136150000Y-50500000D03*
%TD*%
D13*
%TO.C,U5*%
X163600000Y-79980000D03*
X163600000Y-82520000D03*
X169900000Y-82520000D03*
X169900000Y-79980000D03*
%TD*%
D27*
%TO.C,R17*%
X154000000Y-66000000D03*
X152350000Y-66000000D03*
%TD*%
D29*
%TO.C,U8*%
X167250000Y-63770000D03*
X167250000Y-61230000D03*
X160750000Y-61230000D03*
X160750000Y-63770000D03*
%TD*%
D28*
%TO.C,R6*%
X159675000Y-71500000D03*
X161325000Y-71500000D03*
%TD*%
D30*
%TO.C,C1*%
X143325000Y-56275000D03*
X143325000Y-54725000D03*
%TD*%
D27*
%TO.C,R18*%
X139650000Y-50500000D03*
X138000000Y-50500000D03*
%TD*%
D31*
%TO.C,D11*%
X145500000Y-57450000D03*
X145500000Y-59550000D03*
%TD*%
D32*
%TO.C,D3*%
X161287500Y-78000000D03*
X159712500Y-78000000D03*
%TD*%
D28*
%TO.C,R1*%
X159675000Y-65500000D03*
X161325000Y-65500000D03*
%TD*%
D10*
%TO.C,D8*%
X156000000Y-51425000D03*
X156000000Y-53000000D03*
%TD*%
D33*
%TO.C,FB1*%
X142437500Y-62000000D03*
X144562500Y-62000000D03*
%TD*%
D32*
%TO.C,D7*%
X158787500Y-61500000D03*
X157212500Y-61500000D03*
%TD*%
%TO.C,D6*%
X145575000Y-51500000D03*
X144000000Y-51500000D03*
%TD*%
D34*
%TO.C,U6*%
X165000000Y-54700000D03*
D35*
X166500000Y-54612500D03*
D34*
X168000000Y-54700000D03*
%TD*%
D27*
%TO.C,R16*%
X159325000Y-51250000D03*
X157675000Y-51250000D03*
%TD*%
D28*
%TO.C,R15*%
X157175000Y-63000000D03*
X158825000Y-63000000D03*
%TD*%
%TO.C,R8*%
X159675000Y-81000000D03*
X161325000Y-81000000D03*
%TD*%
D27*
%TO.C,R14*%
X152825000Y-58000000D03*
X151175000Y-58000000D03*
%TD*%
D36*
%TO.C,U7*%
X162281814Y-52959314D03*
X161646814Y-52959314D03*
X161011814Y-52959314D03*
X160376814Y-52959314D03*
X159741814Y-52959314D03*
X159106814Y-52959314D03*
X158471814Y-52959314D03*
X157836814Y-52959314D03*
X157836814Y-58159314D03*
X158471814Y-58159314D03*
X159106814Y-58159314D03*
X159741814Y-58159314D03*
X160376814Y-58159314D03*
X161011814Y-58159314D03*
X161646814Y-58159314D03*
X162281814Y-58159314D03*
%TD*%
D37*
%TO.C,R9*%
X169500000Y-58675000D03*
X169500000Y-60325000D03*
%TD*%
D28*
%TO.C,R7*%
X159675000Y-76500000D03*
X161325000Y-76500000D03*
%TD*%
D38*
%TO.C,C5*%
X143325000Y-57725000D03*
X143325000Y-59275000D03*
%TD*%
D32*
%TO.C,D1*%
X161287500Y-68500000D03*
X159712500Y-68500000D03*
%TD*%
%TO.C,D4*%
X161287500Y-82500000D03*
X159712500Y-82500000D03*
%TD*%
D12*
%TO.C,C7*%
X162775000Y-51250000D03*
X161225000Y-51250000D03*
%TD*%
D39*
%TO.C,D5*%
X168950000Y-62000000D03*
X171050000Y-62000000D03*
%TD*%
D32*
%TO.C,D2*%
X161287500Y-73000000D03*
X159712500Y-73000000D03*
%TD*%
D28*
%TO.C,R5*%
X159675000Y-67000000D03*
X161325000Y-67000000D03*
%TD*%
%TO.C,R2*%
X159675000Y-70000000D03*
X161325000Y-70000000D03*
%TD*%
D40*
%TO.C,D12*%
X145500000Y-56050000D03*
X145500000Y-53950000D03*
%TD*%
D37*
%TO.C,R10*%
X142500000Y-50850000D03*
X142500000Y-52500000D03*
%TD*%
D13*
%TO.C,U2*%
X163600000Y-65730000D03*
X163600000Y-68270000D03*
X169900000Y-68270000D03*
X169900000Y-65730000D03*
%TD*%
D11*
%TO.C,C3*%
X163970000Y-56500000D03*
X165520000Y-56500000D03*
%TD*%
D41*
%TO.C,D10*%
X170500000Y-54787500D03*
X170500000Y-53212500D03*
%TD*%
D30*
%TO.C,C8*%
X147724962Y-59775000D03*
X147724962Y-58225000D03*
%TD*%
D27*
%TO.C,R11*%
X156825000Y-76000000D03*
X155175000Y-76000000D03*
%TD*%
%TO.C,R13*%
X152825000Y-56500000D03*
X151175000Y-56500000D03*
%TD*%
%TO.C,R12*%
X152825000Y-76000000D03*
X151175000Y-76000000D03*
%TD*%
D13*
%TO.C,U3*%
X163600000Y-70480000D03*
X163600000Y-73020000D03*
X169900000Y-73020000D03*
X169900000Y-70480000D03*
%TD*%
D28*
%TO.C,R3*%
X159675000Y-75000000D03*
X161325000Y-75000000D03*
%TD*%
%TO.C,R4*%
X159675000Y-79500000D03*
X161325000Y-79500000D03*
%TD*%
D38*
%TO.C,C6*%
X171000000Y-58725000D03*
X171000000Y-60275000D03*
%TD*%
M02*
