%TF.GenerationSoftware,KiCad,Pcbnew,8.0.5*%
%TF.CreationDate,2024-10-20T23:26:53-04:00*%
%TF.ProjectId,Sequencer,53657175-656e-4636-9572-2e6b69636164,rev?*%
%TF.SameCoordinates,Original*%
%TF.FileFunction,Copper,L2,Bot*%
%TF.FilePolarity,Positive*%
%FSLAX46Y46*%
G04 Gerber Fmt 4.6, Leading zero omitted, Abs format (unit mm)*
G04 Created by KiCad (PCBNEW 8.0.5) date 2024-10-20 23:26:53*
%MOMM*%
%LPD*%
G01*
G04 APERTURE LIST*
%TA.AperFunction,ComponentPad*%
%ADD10O,2.100000X1.000000*%
%TD*%
%TA.AperFunction,ComponentPad*%
%ADD11O,1.800000X1.000000*%
%TD*%
%TA.AperFunction,ComponentPad*%
%ADD12R,1.700000X1.700000*%
%TD*%
%TA.AperFunction,ComponentPad*%
%ADD13O,1.700000X1.700000*%
%TD*%
%TA.AperFunction,ComponentPad*%
%ADD14C,2.100000*%
%TD*%
%TA.AperFunction,ComponentPad*%
%ADD15R,2.100000X2.100000*%
%TD*%
%TA.AperFunction,ViaPad*%
%ADD16C,0.600000*%
%TD*%
%TA.AperFunction,ViaPad*%
%ADD17C,5.560000*%
%TD*%
%TA.AperFunction,Conductor*%
%ADD18C,0.400000*%
%TD*%
%TA.AperFunction,Conductor*%
%ADD19C,0.152400*%
%TD*%
%TA.AperFunction,Conductor*%
%ADD20C,0.200000*%
%TD*%
G04 APERTURE END LIST*
D10*
%TO.P,J3,S1,SHIELD*%
%TO.N,GND*%
X139700000Y-52500000D03*
D11*
X135500000Y-52500000D03*
D10*
X139700000Y-61140000D03*
D11*
X135500000Y-61140000D03*
%TD*%
D12*
%TO.P,J4,1,Pin_1*%
%TO.N,/5V*%
X135000000Y-64260000D03*
D13*
%TO.P,J4,2,Pin_2*%
%TO.N,GND*%
X135000000Y-66800000D03*
%TO.P,J4,3,Pin_3*%
%TO.N,/X1*%
X135000000Y-69340000D03*
%TO.P,J4,4,Pin_4*%
%TO.N,/X2*%
X135000000Y-71880000D03*
%TO.P,J4,5,Pin_5*%
%TO.N,/X3*%
X135000000Y-74420000D03*
%TO.P,J4,6,Pin_6*%
%TO.N,/X4*%
X135000000Y-76960000D03*
%TO.P,J4,7,Pin_7*%
%TO.N,/X5*%
X135000000Y-79500000D03*
%TO.P,J4,8,Pin_8*%
%TO.N,/X6*%
X135000000Y-82040000D03*
%TD*%
D12*
%TO.P,J2,1,Pin_1*%
%TO.N,/UPDI*%
X145000000Y-81500000D03*
D13*
%TO.P,J2,2,Pin_2*%
%TO.N,/RXD_U*%
X142460000Y-81500000D03*
%TO.P,J2,3,Pin_3*%
%TO.N,/TXD_M*%
X139920000Y-81500000D03*
%TD*%
D14*
%TO.P,J1,12,Pin_12*%
%TO.N,Net-(J1-Pin_12)*%
X175500000Y-81940000D03*
%TO.P,J1,11,Pin_11*%
%TO.N,Net-(J1-Pin_11)*%
X175500000Y-79400000D03*
%TO.P,J1,10,Pin_10*%
%TO.N,Net-(J1-Pin_10)*%
X175500000Y-76860000D03*
%TO.P,J1,9,Pin_9*%
%TO.N,Net-(J1-Pin_9)*%
X175500000Y-74320000D03*
%TO.P,J1,8,Pin_8*%
%TO.N,Net-(J1-Pin_8)*%
X175500000Y-71780000D03*
%TO.P,J1,7,Pin_7*%
%TO.N,Net-(J1-Pin_7)*%
X175500000Y-69240000D03*
%TO.P,J1,6,Pin_6*%
%TO.N,Net-(J1-Pin_6)*%
X175500000Y-66700000D03*
%TO.P,J1,5,Pin_5*%
%TO.N,Net-(J1-Pin_5)*%
X175500000Y-64160000D03*
%TO.P,J1,4,Pin_4*%
%TO.N,/KEY-*%
X175500000Y-61620000D03*
%TO.P,J1,3,Pin_3*%
%TO.N,/KEY+*%
X175500000Y-59080000D03*
%TO.P,J1,2,Pin_2*%
%TO.N,GND*%
X175500000Y-56540000D03*
D15*
%TO.P,J1,1,Pin_1*%
%TO.N,/12V*%
X175500000Y-54000000D03*
%TD*%
D16*
%TO.N,GND*%
X145500000Y-60500000D03*
X163600000Y-67500000D03*
X166500000Y-50250000D03*
X165000000Y-51000000D03*
X160750000Y-62500000D03*
X168000000Y-51000000D03*
X151760960Y-69454280D03*
X154500000Y-80500000D03*
X168000000Y-53250000D03*
X143325000Y-60500000D03*
X163600000Y-77000000D03*
X145500000Y-53000000D03*
X166500000Y-55850626D03*
X160376814Y-59209314D03*
X166500000Y-58000000D03*
X149000000Y-58225000D03*
X152425000Y-64500000D03*
X165000000Y-51750000D03*
D17*
X151000000Y-80500000D03*
D16*
X165000000Y-52500000D03*
X163505000Y-72250000D03*
X160500000Y-51250000D03*
X147000000Y-51500000D03*
X165750000Y-50250000D03*
X168000000Y-52500000D03*
X168000000Y-51750000D03*
X165000000Y-53250000D03*
X163500000Y-81750000D03*
X167250000Y-50250000D03*
X143325000Y-53500000D03*
D17*
X151000000Y-52750000D03*
D16*
%TO.N,/5V*%
X154366600Y-60000000D03*
X157000000Y-60000000D03*
%TO.N,/UPDI*%
X156000000Y-74576200D03*
X156000000Y-71473800D03*
%TO.N,/3V3*%
X161011814Y-56357200D03*
X161011814Y-54500000D03*
%TO.N,/D-M*%
X154891987Y-56051301D03*
X157000000Y-58159314D03*
%TO.N,Net-(FB1-Pad1)*%
X141944069Y-57624461D03*
X141919608Y-55900000D03*
%TO.N,/TXD_U*%
X157000000Y-74131000D03*
X157000000Y-71473800D03*
%TO.N,/TXD_M*%
X150000000Y-74500000D03*
X151500000Y-74500000D03*
%TO.N,/RXD_U*%
X155017565Y-74576200D03*
X155017565Y-70667565D03*
%TD*%
D18*
%TO.N,/5V*%
X154366600Y-60000000D02*
X157000000Y-60000000D01*
D19*
%TO.N,/UPDI*%
X156000000Y-74576200D02*
X156000000Y-71473800D01*
%TO.N,/3V3*%
X161011814Y-56389314D02*
X161011814Y-54500000D01*
D20*
%TO.N,/D-M*%
X154891987Y-56051301D02*
X157000000Y-58159314D01*
D18*
%TO.N,Net-(FB1-Pad1)*%
X141944069Y-57624461D02*
X141919608Y-57600000D01*
X141919608Y-57600000D02*
X141919608Y-55900000D01*
D19*
%TO.N,/TXD_U*%
X157000000Y-74131000D02*
X157000000Y-71473800D01*
%TO.N,/TXD_M*%
X151500000Y-74500000D02*
X150000000Y-74500000D01*
%TO.N,/RXD_U*%
X155017565Y-74576200D02*
X155017565Y-70667565D01*
%TD*%
%TA.AperFunction,Conductor*%
%TO.N,GND*%
G36*
X178712180Y-49770185D02*
G01*
X178757935Y-49822989D01*
X178769140Y-49874569D01*
X178766930Y-53714631D01*
X178764535Y-57876071D01*
X178744812Y-57943099D01*
X178691982Y-57988824D01*
X178640535Y-58000000D01*
X176668639Y-58000000D01*
X176601600Y-57980315D01*
X176588113Y-57970294D01*
X176456735Y-57858087D01*
X176442073Y-57835627D01*
X175670234Y-57063787D01*
X175712292Y-57052518D01*
X175837708Y-56980110D01*
X175940110Y-56877708D01*
X176012518Y-56752292D01*
X176023787Y-56710234D01*
X176761494Y-57447941D01*
X176761495Y-57447941D01*
X176885331Y-57245861D01*
X176978696Y-57020457D01*
X177035651Y-56783219D01*
X177054792Y-56540000D01*
X177035651Y-56296780D01*
X176978696Y-56059542D01*
X176885331Y-55834138D01*
X176772149Y-55649442D01*
X176753904Y-55581996D01*
X176775020Y-55515394D01*
X176803560Y-55485389D01*
X176907546Y-55407546D01*
X176993796Y-55292331D01*
X177044091Y-55157483D01*
X177050500Y-55097873D01*
X177050499Y-52902128D01*
X177044091Y-52842517D01*
X177028233Y-52800000D01*
X176993797Y-52707671D01*
X176993793Y-52707664D01*
X176907547Y-52592455D01*
X176907544Y-52592452D01*
X176792335Y-52506206D01*
X176792328Y-52506202D01*
X176657482Y-52455908D01*
X176657483Y-52455908D01*
X176597883Y-52449501D01*
X176597881Y-52449500D01*
X176597873Y-52449500D01*
X176597864Y-52449500D01*
X174402129Y-52449500D01*
X174402123Y-52449501D01*
X174342516Y-52455908D01*
X174207671Y-52506202D01*
X174207664Y-52506206D01*
X174092455Y-52592452D01*
X174092452Y-52592455D01*
X174006206Y-52707664D01*
X174006202Y-52707671D01*
X173955908Y-52842517D01*
X173949501Y-52902116D01*
X173949501Y-52902123D01*
X173949500Y-52902135D01*
X173949500Y-55097870D01*
X173949501Y-55097876D01*
X173955908Y-55157483D01*
X174006202Y-55292328D01*
X174006206Y-55292335D01*
X174031043Y-55325512D01*
X174092454Y-55407546D01*
X174196434Y-55485386D01*
X174238305Y-55541319D01*
X174243289Y-55611011D01*
X174227851Y-55649441D01*
X174114667Y-55834140D01*
X174021303Y-56059542D01*
X173964348Y-56296780D01*
X173945207Y-56540000D01*
X173964348Y-56783219D01*
X174021303Y-57020457D01*
X174114668Y-57245861D01*
X174238504Y-57447941D01*
X174976212Y-56710232D01*
X174987482Y-56752292D01*
X175059890Y-56877708D01*
X175162292Y-56980110D01*
X175287708Y-57052518D01*
X175329765Y-57063787D01*
X174569973Y-57823579D01*
X174543263Y-57858088D01*
X174470769Y-57920004D01*
X174411891Y-57970290D01*
X174348132Y-57998861D01*
X174331361Y-58000000D01*
X168000000Y-58000000D01*
X168000000Y-59376000D01*
X167980315Y-59443039D01*
X167927511Y-59488794D01*
X167876000Y-59500000D01*
X165905707Y-59500000D01*
X165905018Y-83375504D01*
X165885332Y-83442542D01*
X165832526Y-83488296D01*
X165781018Y-83499500D01*
X135624976Y-83499500D01*
X135557937Y-83479815D01*
X135512182Y-83427011D01*
X135502238Y-83357853D01*
X135531263Y-83294297D01*
X135572571Y-83263118D01*
X135677830Y-83214035D01*
X135871401Y-83078495D01*
X136038495Y-82911401D01*
X136174035Y-82717830D01*
X136273903Y-82503663D01*
X136335063Y-82275408D01*
X136355659Y-82040000D01*
X136335063Y-81804592D01*
X136273903Y-81576337D01*
X136238306Y-81499999D01*
X138564341Y-81499999D01*
X138564341Y-81500000D01*
X138584936Y-81735403D01*
X138584938Y-81735413D01*
X138646094Y-81963655D01*
X138646096Y-81963659D01*
X138646097Y-81963663D01*
X138681694Y-82040000D01*
X138745965Y-82177830D01*
X138745967Y-82177834D01*
X138814286Y-82275403D01*
X138881505Y-82371401D01*
X139048599Y-82538495D01*
X139145384Y-82606265D01*
X139242165Y-82674032D01*
X139242167Y-82674033D01*
X139242170Y-82674035D01*
X139456337Y-82773903D01*
X139684592Y-82835063D01*
X139861034Y-82850500D01*
X139919999Y-82855659D01*
X139920000Y-82855659D01*
X139920001Y-82855659D01*
X139978966Y-82850500D01*
X140155408Y-82835063D01*
X140383663Y-82773903D01*
X140597830Y-82674035D01*
X140791401Y-82538495D01*
X140958495Y-82371401D01*
X141088425Y-82185842D01*
X141143002Y-82142217D01*
X141212500Y-82135023D01*
X141274855Y-82166546D01*
X141291575Y-82185842D01*
X141421500Y-82371395D01*
X141421505Y-82371401D01*
X141588599Y-82538495D01*
X141685384Y-82606265D01*
X141782165Y-82674032D01*
X141782167Y-82674033D01*
X141782170Y-82674035D01*
X141996337Y-82773903D01*
X142224592Y-82835063D01*
X142401034Y-82850500D01*
X142459999Y-82855659D01*
X142460000Y-82855659D01*
X142460001Y-82855659D01*
X142518966Y-82850500D01*
X142695408Y-82835063D01*
X142923663Y-82773903D01*
X143137830Y-82674035D01*
X143331401Y-82538495D01*
X143453329Y-82416566D01*
X143514648Y-82383084D01*
X143584340Y-82388068D01*
X143640274Y-82429939D01*
X143657189Y-82460917D01*
X143706202Y-82592328D01*
X143706206Y-82592335D01*
X143792452Y-82707544D01*
X143792455Y-82707547D01*
X143907664Y-82793793D01*
X143907671Y-82793797D01*
X144042517Y-82844091D01*
X144042516Y-82844091D01*
X144049444Y-82844835D01*
X144102127Y-82850500D01*
X145897872Y-82850499D01*
X145957483Y-82844091D01*
X146092331Y-82793796D01*
X146207546Y-82707546D01*
X146293796Y-82592331D01*
X146344091Y-82457483D01*
X146350500Y-82397873D01*
X146350499Y-80602128D01*
X146344091Y-80542517D01*
X146342810Y-80539083D01*
X146293797Y-80407671D01*
X146293793Y-80407664D01*
X146207547Y-80292455D01*
X146207544Y-80292452D01*
X146092335Y-80206206D01*
X146092328Y-80206202D01*
X145957482Y-80155908D01*
X145957483Y-80155908D01*
X145897883Y-80149501D01*
X145897881Y-80149500D01*
X145897873Y-80149500D01*
X145897864Y-80149500D01*
X144102129Y-80149500D01*
X144102123Y-80149501D01*
X144042516Y-80155908D01*
X143907671Y-80206202D01*
X143907664Y-80206206D01*
X143792455Y-80292452D01*
X143792452Y-80292455D01*
X143706206Y-80407664D01*
X143706203Y-80407669D01*
X143657189Y-80539083D01*
X143615317Y-80595016D01*
X143549853Y-80619433D01*
X143481580Y-80604581D01*
X143453326Y-80583430D01*
X143331402Y-80461506D01*
X143331395Y-80461501D01*
X143137834Y-80325967D01*
X143137830Y-80325965D01*
X143112555Y-80314179D01*
X142923663Y-80226097D01*
X142923659Y-80226096D01*
X142923655Y-80226094D01*
X142695413Y-80164938D01*
X142695403Y-80164936D01*
X142460001Y-80144341D01*
X142459999Y-80144341D01*
X142224596Y-80164936D01*
X142224586Y-80164938D01*
X141996344Y-80226094D01*
X141996335Y-80226098D01*
X141782171Y-80325964D01*
X141782169Y-80325965D01*
X141588597Y-80461505D01*
X141421505Y-80628597D01*
X141291575Y-80814158D01*
X141236998Y-80857783D01*
X141167500Y-80864977D01*
X141105145Y-80833454D01*
X141088425Y-80814158D01*
X140958494Y-80628597D01*
X140791402Y-80461506D01*
X140791395Y-80461501D01*
X140597834Y-80325967D01*
X140597830Y-80325965D01*
X140572555Y-80314179D01*
X140383663Y-80226097D01*
X140383659Y-80226096D01*
X140383655Y-80226094D01*
X140155413Y-80164938D01*
X140155403Y-80164936D01*
X139920001Y-80144341D01*
X139919999Y-80144341D01*
X139684596Y-80164936D01*
X139684586Y-80164938D01*
X139456344Y-80226094D01*
X139456335Y-80226098D01*
X139242171Y-80325964D01*
X139242169Y-80325965D01*
X139048597Y-80461505D01*
X138881505Y-80628597D01*
X138745965Y-80822169D01*
X138745964Y-80822171D01*
X138646098Y-81036335D01*
X138646094Y-81036344D01*
X138584938Y-81264586D01*
X138584936Y-81264596D01*
X138564341Y-81499999D01*
X136238306Y-81499999D01*
X136174035Y-81362171D01*
X136038495Y-81168599D01*
X136038494Y-81168597D01*
X135871402Y-81001506D01*
X135871396Y-81001501D01*
X135685842Y-80871575D01*
X135642217Y-80816998D01*
X135635023Y-80747500D01*
X135666546Y-80685145D01*
X135685842Y-80668425D01*
X135742722Y-80628597D01*
X135871401Y-80538495D01*
X136038495Y-80371401D01*
X136174035Y-80177830D01*
X136273903Y-79963663D01*
X136335063Y-79735408D01*
X136355659Y-79500000D01*
X136335063Y-79264592D01*
X136273903Y-79036337D01*
X136174035Y-78822171D01*
X136038495Y-78628599D01*
X136038494Y-78628597D01*
X135871402Y-78461506D01*
X135871396Y-78461501D01*
X135685842Y-78331575D01*
X135642217Y-78276998D01*
X135635023Y-78207500D01*
X135666546Y-78145145D01*
X135685842Y-78128425D01*
X135708026Y-78112891D01*
X135871401Y-77998495D01*
X136038495Y-77831401D01*
X136174035Y-77637830D01*
X136273903Y-77423663D01*
X136335063Y-77195408D01*
X136355659Y-76960000D01*
X136335063Y-76724592D01*
X136273903Y-76496337D01*
X136174035Y-76282171D01*
X136038495Y-76088599D01*
X136038494Y-76088597D01*
X135871402Y-75921506D01*
X135871396Y-75921501D01*
X135685842Y-75791575D01*
X135642217Y-75736998D01*
X135635023Y-75667500D01*
X135666546Y-75605145D01*
X135685842Y-75588425D01*
X135708026Y-75572891D01*
X135871401Y-75458495D01*
X136038495Y-75291401D01*
X136174035Y-75097830D01*
X136273903Y-74883663D01*
X136335063Y-74655408D01*
X136348660Y-74499996D01*
X149194435Y-74499996D01*
X149194435Y-74500003D01*
X149214630Y-74679249D01*
X149214631Y-74679254D01*
X149274211Y-74849523D01*
X149322091Y-74925723D01*
X149370184Y-75002262D01*
X149497738Y-75129816D01*
X149650478Y-75225789D01*
X149820745Y-75285368D01*
X149820750Y-75285369D01*
X149999996Y-75305565D01*
X150000000Y-75305565D01*
X150000004Y-75305565D01*
X150179249Y-75285369D01*
X150179252Y-75285368D01*
X150179255Y-75285368D01*
X150349522Y-75225789D01*
X150502262Y-75129816D01*
X150519059Y-75113019D01*
X150580382Y-75079534D01*
X150606740Y-75076700D01*
X150893260Y-75076700D01*
X150960299Y-75096385D01*
X150980941Y-75113019D01*
X150997738Y-75129816D01*
X151150478Y-75225789D01*
X151320745Y-75285368D01*
X151320750Y-75285369D01*
X151499996Y-75305565D01*
X151500000Y-75305565D01*
X151500004Y-75305565D01*
X151679249Y-75285369D01*
X151679252Y-75285368D01*
X151679255Y-75285368D01*
X151849522Y-75225789D01*
X152002262Y-75129816D01*
X152129816Y-75002262D01*
X152225789Y-74849522D01*
X152285368Y-74679255D01*
X152285369Y-74679249D01*
X152305565Y-74500003D01*
X152305565Y-74499996D01*
X152285369Y-74320750D01*
X152285368Y-74320745D01*
X152281695Y-74310249D01*
X152225789Y-74150478D01*
X152129816Y-73997738D01*
X152002262Y-73870184D01*
X151849523Y-73774211D01*
X151679254Y-73714631D01*
X151679249Y-73714630D01*
X151500004Y-73694435D01*
X151499996Y-73694435D01*
X151320750Y-73714630D01*
X151320745Y-73714631D01*
X151150476Y-73774211D01*
X150997737Y-73870184D01*
X150980941Y-73886981D01*
X150919618Y-73920466D01*
X150893260Y-73923300D01*
X150606740Y-73923300D01*
X150539701Y-73903615D01*
X150519059Y-73886981D01*
X150502262Y-73870184D01*
X150349523Y-73774211D01*
X150179254Y-73714631D01*
X150179249Y-73714630D01*
X150000004Y-73694435D01*
X149999996Y-73694435D01*
X149820750Y-73714630D01*
X149820745Y-73714631D01*
X149650476Y-73774211D01*
X149497737Y-73870184D01*
X149370184Y-73997737D01*
X149274211Y-74150476D01*
X149214631Y-74320745D01*
X149214630Y-74320750D01*
X149194435Y-74499996D01*
X136348660Y-74499996D01*
X136355659Y-74420000D01*
X136335063Y-74184592D01*
X136273903Y-73956337D01*
X136174035Y-73742171D01*
X136154752Y-73714631D01*
X136038494Y-73548597D01*
X135871402Y-73381506D01*
X135871396Y-73381501D01*
X135685842Y-73251575D01*
X135642217Y-73196998D01*
X135635023Y-73127500D01*
X135666546Y-73065145D01*
X135685842Y-73048425D01*
X135708026Y-73032891D01*
X135871401Y-72918495D01*
X136038495Y-72751401D01*
X136174035Y-72557830D01*
X136273903Y-72343663D01*
X136335063Y-72115408D01*
X136355659Y-71880000D01*
X136335063Y-71644592D01*
X136273903Y-71416337D01*
X136174035Y-71202171D01*
X136044439Y-71017087D01*
X136038494Y-71008597D01*
X135871402Y-70841506D01*
X135871396Y-70841501D01*
X135685842Y-70711575D01*
X135650660Y-70667561D01*
X154212000Y-70667561D01*
X154212000Y-70667568D01*
X154232195Y-70846814D01*
X154232196Y-70846819D01*
X154291776Y-71017088D01*
X154387749Y-71169827D01*
X154404546Y-71186624D01*
X154438031Y-71247947D01*
X154440865Y-71274305D01*
X154440865Y-73969460D01*
X154421180Y-74036499D01*
X154404546Y-74057141D01*
X154387749Y-74073937D01*
X154291776Y-74226676D01*
X154232196Y-74396945D01*
X154232195Y-74396950D01*
X154212000Y-74576196D01*
X154212000Y-74576203D01*
X154232195Y-74755449D01*
X154232196Y-74755454D01*
X154291776Y-74925723D01*
X154292375Y-74926676D01*
X154387749Y-75078462D01*
X154515303Y-75206016D01*
X154546770Y-75225788D01*
X154651182Y-75291395D01*
X154668043Y-75301989D01*
X154678263Y-75305565D01*
X154838310Y-75361568D01*
X154838315Y-75361569D01*
X155017561Y-75381765D01*
X155017565Y-75381765D01*
X155017569Y-75381765D01*
X155196814Y-75361569D01*
X155196817Y-75361568D01*
X155196820Y-75361568D01*
X155367087Y-75301989D01*
X155442810Y-75254408D01*
X155510045Y-75235408D01*
X155574753Y-75254408D01*
X155633627Y-75291401D01*
X155650478Y-75301989D01*
X155660698Y-75305565D01*
X155820745Y-75361568D01*
X155820750Y-75361569D01*
X155999996Y-75381765D01*
X156000000Y-75381765D01*
X156000004Y-75381765D01*
X156179249Y-75361569D01*
X156179252Y-75361568D01*
X156179255Y-75361568D01*
X156349522Y-75301989D01*
X156502262Y-75206016D01*
X156629816Y-75078462D01*
X156696104Y-74972965D01*
X156748436Y-74926676D01*
X156814979Y-74915719D01*
X156999996Y-74936565D01*
X157000000Y-74936565D01*
X157000004Y-74936565D01*
X157179249Y-74916369D01*
X157179252Y-74916368D01*
X157179255Y-74916368D01*
X157349522Y-74856789D01*
X157502262Y-74760816D01*
X157629816Y-74633262D01*
X157725789Y-74480522D01*
X157785368Y-74310255D01*
X157794785Y-74226676D01*
X157805565Y-74131003D01*
X157805565Y-74130996D01*
X157785369Y-73951750D01*
X157785368Y-73951745D01*
X157774423Y-73920466D01*
X157725789Y-73781478D01*
X157701089Y-73742169D01*
X157629815Y-73628737D01*
X157613019Y-73611941D01*
X157579534Y-73550618D01*
X157576700Y-73524260D01*
X157576700Y-72080540D01*
X157596385Y-72013501D01*
X157613019Y-71992859D01*
X157629816Y-71976062D01*
X157725789Y-71823322D01*
X157785368Y-71653055D01*
X157786322Y-71644592D01*
X157805565Y-71473803D01*
X157805565Y-71473796D01*
X157785369Y-71294550D01*
X157785368Y-71294545D01*
X157725788Y-71124276D01*
X157629815Y-70971537D01*
X157502262Y-70843984D01*
X157349523Y-70748011D01*
X157179254Y-70688431D01*
X157179249Y-70688430D01*
X157000004Y-70668235D01*
X156999996Y-70668235D01*
X156820750Y-70688430D01*
X156820737Y-70688433D01*
X156650479Y-70748009D01*
X156565971Y-70801109D01*
X156498734Y-70820109D01*
X156434029Y-70801109D01*
X156349520Y-70748009D01*
X156179262Y-70688433D01*
X156179249Y-70688430D01*
X156000004Y-70668235D01*
X155999996Y-70668235D01*
X155948641Y-70674021D01*
X155879819Y-70661966D01*
X155828440Y-70614617D01*
X155811538Y-70564683D01*
X155802934Y-70488315D01*
X155802933Y-70488310D01*
X155764506Y-70378493D01*
X155743354Y-70318043D01*
X155647381Y-70165303D01*
X155519827Y-70037749D01*
X155367088Y-69941776D01*
X155196819Y-69882196D01*
X155196814Y-69882195D01*
X155017569Y-69862000D01*
X155017561Y-69862000D01*
X154838315Y-69882195D01*
X154838310Y-69882196D01*
X154668041Y-69941776D01*
X154515302Y-70037749D01*
X154387749Y-70165302D01*
X154291776Y-70318041D01*
X154232196Y-70488310D01*
X154232195Y-70488315D01*
X154212000Y-70667561D01*
X135650660Y-70667561D01*
X135642217Y-70656998D01*
X135635023Y-70587500D01*
X135666546Y-70525145D01*
X135685842Y-70508425D01*
X135714569Y-70488310D01*
X135871401Y-70378495D01*
X136038495Y-70211401D01*
X136174035Y-70017830D01*
X136273903Y-69803663D01*
X136335063Y-69575408D01*
X136355659Y-69340000D01*
X136335063Y-69104592D01*
X136273903Y-68876337D01*
X136174035Y-68662171D01*
X136038495Y-68468599D01*
X136038494Y-68468597D01*
X135871402Y-68301506D01*
X135871401Y-68301505D01*
X135685405Y-68171269D01*
X135641781Y-68116692D01*
X135634588Y-68047193D01*
X135666110Y-67984839D01*
X135685405Y-67968119D01*
X135871082Y-67838105D01*
X136038105Y-67671082D01*
X136173600Y-67477578D01*
X136273429Y-67263492D01*
X136273432Y-67263486D01*
X136330636Y-67050000D01*
X135433012Y-67050000D01*
X135465925Y-66992993D01*
X135500000Y-66865826D01*
X135500000Y-66734174D01*
X135465925Y-66607007D01*
X135433012Y-66550000D01*
X136330636Y-66550000D01*
X136330635Y-66549999D01*
X136273432Y-66336513D01*
X136273429Y-66336507D01*
X136173600Y-66122422D01*
X136173599Y-66122420D01*
X136038113Y-65928926D01*
X136038108Y-65928920D01*
X135916053Y-65806865D01*
X135882568Y-65745542D01*
X135887552Y-65675850D01*
X135929424Y-65619917D01*
X135960400Y-65603002D01*
X136092331Y-65553796D01*
X136207546Y-65467546D01*
X136293796Y-65352331D01*
X136344091Y-65217483D01*
X136350500Y-65157873D01*
X136350499Y-63362128D01*
X136344091Y-63302517D01*
X136293796Y-63167669D01*
X136293795Y-63167668D01*
X136293793Y-63167664D01*
X136207547Y-63052455D01*
X136207544Y-63052452D01*
X136092335Y-62966206D01*
X136092328Y-62966202D01*
X135957482Y-62915908D01*
X135957483Y-62915908D01*
X135897883Y-62909501D01*
X135897881Y-62909500D01*
X135897873Y-62909500D01*
X135897864Y-62909500D01*
X134102129Y-62909500D01*
X134102123Y-62909501D01*
X134042516Y-62915908D01*
X133907671Y-62966202D01*
X133907664Y-62966206D01*
X133792455Y-63052452D01*
X133792452Y-63052455D01*
X133706206Y-63167664D01*
X133706202Y-63167671D01*
X133655908Y-63302517D01*
X133649501Y-63362116D01*
X133649501Y-63362123D01*
X133649500Y-63362135D01*
X133649500Y-65157870D01*
X133649501Y-65157876D01*
X133655908Y-65217483D01*
X133706202Y-65352328D01*
X133706206Y-65352335D01*
X133792452Y-65467544D01*
X133792455Y-65467547D01*
X133907664Y-65553793D01*
X133907671Y-65553797D01*
X133907674Y-65553798D01*
X134039598Y-65603002D01*
X134095531Y-65644873D01*
X134119949Y-65710337D01*
X134105098Y-65778610D01*
X134083947Y-65806865D01*
X133961886Y-65928926D01*
X133826400Y-66122420D01*
X133826399Y-66122422D01*
X133726570Y-66336507D01*
X133726567Y-66336513D01*
X133669364Y-66549999D01*
X133669364Y-66550000D01*
X134566988Y-66550000D01*
X134534075Y-66607007D01*
X134500000Y-66734174D01*
X134500000Y-66865826D01*
X134534075Y-66992993D01*
X134566988Y-67050000D01*
X133669364Y-67050000D01*
X133726567Y-67263486D01*
X133726570Y-67263492D01*
X133826399Y-67477578D01*
X133961894Y-67671082D01*
X134128917Y-67838105D01*
X134314595Y-67968119D01*
X134358219Y-68022696D01*
X134365412Y-68092195D01*
X134333890Y-68154549D01*
X134314595Y-68171269D01*
X134128594Y-68301508D01*
X133961505Y-68468597D01*
X133825965Y-68662169D01*
X133825964Y-68662171D01*
X133726098Y-68876335D01*
X133726094Y-68876344D01*
X133664938Y-69104586D01*
X133664936Y-69104596D01*
X133644341Y-69339999D01*
X133644341Y-69340000D01*
X133664936Y-69575403D01*
X133664938Y-69575413D01*
X133726094Y-69803655D01*
X133726096Y-69803659D01*
X133726097Y-69803663D01*
X133792512Y-69946089D01*
X133825965Y-70017830D01*
X133825967Y-70017834D01*
X133961501Y-70211395D01*
X133961506Y-70211402D01*
X134128597Y-70378493D01*
X134128603Y-70378498D01*
X134314158Y-70508425D01*
X134357783Y-70563002D01*
X134364977Y-70632500D01*
X134333454Y-70694855D01*
X134314158Y-70711575D01*
X134128597Y-70841505D01*
X133961505Y-71008597D01*
X133825965Y-71202169D01*
X133825964Y-71202171D01*
X133726098Y-71416335D01*
X133726094Y-71416344D01*
X133664938Y-71644586D01*
X133664936Y-71644596D01*
X133644341Y-71879999D01*
X133644341Y-71880000D01*
X133664936Y-72115403D01*
X133664938Y-72115413D01*
X133726094Y-72343655D01*
X133726096Y-72343659D01*
X133726097Y-72343663D01*
X133792512Y-72486089D01*
X133825965Y-72557830D01*
X133825967Y-72557834D01*
X133961501Y-72751395D01*
X133961506Y-72751402D01*
X134128597Y-72918493D01*
X134128603Y-72918498D01*
X134314158Y-73048425D01*
X134357783Y-73103002D01*
X134364977Y-73172500D01*
X134333454Y-73234855D01*
X134314158Y-73251575D01*
X134128597Y-73381505D01*
X133961505Y-73548597D01*
X133825965Y-73742169D01*
X133825964Y-73742171D01*
X133726098Y-73956335D01*
X133726094Y-73956344D01*
X133664938Y-74184586D01*
X133664936Y-74184596D01*
X133644341Y-74419999D01*
X133644341Y-74420000D01*
X133664936Y-74655403D01*
X133664938Y-74655413D01*
X133726094Y-74883655D01*
X133726096Y-74883659D01*
X133726097Y-74883663D01*
X133781401Y-75002262D01*
X133825965Y-75097830D01*
X133825967Y-75097834D01*
X133906576Y-75212955D01*
X133957281Y-75285369D01*
X133961501Y-75291395D01*
X133961506Y-75291402D01*
X134128597Y-75458493D01*
X134128603Y-75458498D01*
X134314158Y-75588425D01*
X134357783Y-75643002D01*
X134364977Y-75712500D01*
X134333454Y-75774855D01*
X134314158Y-75791575D01*
X134128597Y-75921505D01*
X133961505Y-76088597D01*
X133825965Y-76282169D01*
X133825964Y-76282171D01*
X133726098Y-76496335D01*
X133726094Y-76496344D01*
X133664938Y-76724586D01*
X133664936Y-76724596D01*
X133644341Y-76959999D01*
X133644341Y-76960000D01*
X133664936Y-77195403D01*
X133664938Y-77195413D01*
X133726094Y-77423655D01*
X133726096Y-77423659D01*
X133726097Y-77423663D01*
X133792512Y-77566089D01*
X133825965Y-77637830D01*
X133825967Y-77637834D01*
X133961501Y-77831395D01*
X133961506Y-77831402D01*
X134128597Y-77998493D01*
X134128603Y-77998498D01*
X134314158Y-78128425D01*
X134357783Y-78183002D01*
X134364977Y-78252500D01*
X134333454Y-78314855D01*
X134314158Y-78331575D01*
X134128597Y-78461505D01*
X133961505Y-78628597D01*
X133825965Y-78822169D01*
X133825964Y-78822171D01*
X133726098Y-79036335D01*
X133726094Y-79036344D01*
X133664938Y-79264586D01*
X133664936Y-79264596D01*
X133644341Y-79499999D01*
X133644341Y-79500000D01*
X133664936Y-79735403D01*
X133664938Y-79735413D01*
X133726094Y-79963655D01*
X133726096Y-79963659D01*
X133726097Y-79963663D01*
X133812755Y-80149501D01*
X133825965Y-80177830D01*
X133825967Y-80177834D01*
X133961501Y-80371395D01*
X133961506Y-80371402D01*
X134128597Y-80538493D01*
X134128603Y-80538498D01*
X134314158Y-80668425D01*
X134357783Y-80723002D01*
X134364977Y-80792500D01*
X134333454Y-80854855D01*
X134314158Y-80871575D01*
X134128597Y-81001505D01*
X133961505Y-81168597D01*
X133825965Y-81362169D01*
X133825964Y-81362171D01*
X133726098Y-81576335D01*
X133726094Y-81576344D01*
X133664938Y-81804586D01*
X133664936Y-81804596D01*
X133644341Y-82039999D01*
X133644341Y-82040000D01*
X133664936Y-82275403D01*
X133664938Y-82275413D01*
X133726094Y-82503655D01*
X133726096Y-82503659D01*
X133726097Y-82503663D01*
X133821170Y-82707547D01*
X133825965Y-82717830D01*
X133825967Y-82717834D01*
X133914374Y-82844091D01*
X133961505Y-82911401D01*
X134128599Y-83078495D01*
X134225384Y-83146265D01*
X134322165Y-83214032D01*
X134322167Y-83214033D01*
X134322170Y-83214035D01*
X134427429Y-83263118D01*
X134479868Y-83309290D01*
X134499020Y-83376484D01*
X134478804Y-83443365D01*
X134425639Y-83488700D01*
X134375024Y-83499500D01*
X133124500Y-83499500D01*
X133057461Y-83479815D01*
X133011706Y-83427011D01*
X133000500Y-83375500D01*
X133000500Y-60890000D01*
X134130138Y-60890000D01*
X134933012Y-60890000D01*
X134915795Y-60899940D01*
X134859940Y-60955795D01*
X134820444Y-61024204D01*
X134800000Y-61100504D01*
X134800000Y-61179496D01*
X134820444Y-61255796D01*
X134859940Y-61324205D01*
X134915795Y-61380060D01*
X134933012Y-61390000D01*
X134130138Y-61390000D01*
X134138430Y-61431690D01*
X134138430Y-61431692D01*
X134213807Y-61613671D01*
X134213814Y-61613684D01*
X134323248Y-61777462D01*
X134323251Y-61777466D01*
X134462533Y-61916748D01*
X134462537Y-61916751D01*
X134626315Y-62026185D01*
X134626328Y-62026192D01*
X134808306Y-62101569D01*
X134808318Y-62101572D01*
X135001504Y-62139999D01*
X135001508Y-62140000D01*
X135250000Y-62140000D01*
X135250000Y-61440000D01*
X135750000Y-61440000D01*
X135750000Y-62140000D01*
X135998492Y-62140000D01*
X135998495Y-62139999D01*
X136191681Y-62101572D01*
X136191693Y-62101569D01*
X136373671Y-62026192D01*
X136373684Y-62026185D01*
X136537462Y-61916751D01*
X136537466Y-61916748D01*
X136676748Y-61777466D01*
X136676751Y-61777462D01*
X136786185Y-61613684D01*
X136786192Y-61613671D01*
X136861569Y-61431692D01*
X136861569Y-61431690D01*
X136869862Y-61390000D01*
X136066988Y-61390000D01*
X136084205Y-61380060D01*
X136140060Y-61324205D01*
X136179556Y-61255796D01*
X136200000Y-61179496D01*
X136200000Y-61100504D01*
X136179556Y-61024204D01*
X136140060Y-60955795D01*
X136084205Y-60899940D01*
X136066988Y-60890000D01*
X136869862Y-60890000D01*
X138180138Y-60890000D01*
X138983012Y-60890000D01*
X138965795Y-60899940D01*
X138909940Y-60955795D01*
X138870444Y-61024204D01*
X138850000Y-61100504D01*
X138850000Y-61179496D01*
X138870444Y-61255796D01*
X138909940Y-61324205D01*
X138965795Y-61380060D01*
X138983012Y-61390000D01*
X138180138Y-61390000D01*
X138188430Y-61431690D01*
X138188430Y-61431692D01*
X138263807Y-61613671D01*
X138263814Y-61613684D01*
X138373248Y-61777462D01*
X138373251Y-61777466D01*
X138512533Y-61916748D01*
X138512537Y-61916751D01*
X138676315Y-62026185D01*
X138676328Y-62026192D01*
X138858306Y-62101569D01*
X138858318Y-62101572D01*
X139051504Y-62139999D01*
X139051508Y-62140000D01*
X139450000Y-62140000D01*
X139450000Y-61440000D01*
X139950000Y-61440000D01*
X139950000Y-62140000D01*
X140348492Y-62140000D01*
X140348495Y-62139999D01*
X140541681Y-62101572D01*
X140541693Y-62101569D01*
X140723671Y-62026192D01*
X140723684Y-62026185D01*
X140887462Y-61916751D01*
X140887466Y-61916748D01*
X141026748Y-61777466D01*
X141026751Y-61777462D01*
X141136185Y-61613684D01*
X141136192Y-61613671D01*
X141211569Y-61431692D01*
X141211569Y-61431690D01*
X141219862Y-61390000D01*
X140416988Y-61390000D01*
X140434205Y-61380060D01*
X140490060Y-61324205D01*
X140529556Y-61255796D01*
X140550000Y-61179496D01*
X140550000Y-61100504D01*
X140529556Y-61024204D01*
X140490060Y-60955795D01*
X140434205Y-60899940D01*
X140416988Y-60890000D01*
X141219862Y-60890000D01*
X141211569Y-60848309D01*
X141211569Y-60848307D01*
X141136192Y-60666328D01*
X141136185Y-60666315D01*
X141026751Y-60502537D01*
X141026748Y-60502533D01*
X140887466Y-60363251D01*
X140887462Y-60363248D01*
X140723684Y-60253814D01*
X140723671Y-60253807D01*
X140541693Y-60178430D01*
X140541681Y-60178427D01*
X140348495Y-60140000D01*
X139950000Y-60140000D01*
X139950000Y-60840000D01*
X139450000Y-60840000D01*
X139450000Y-60131294D01*
X139469685Y-60064255D01*
X139486319Y-60043613D01*
X139529936Y-59999996D01*
X153561035Y-59999996D01*
X153561035Y-60000003D01*
X153581230Y-60179249D01*
X153581231Y-60179254D01*
X153640811Y-60349523D01*
X153736784Y-60502262D01*
X153864338Y-60629816D01*
X153954680Y-60686582D01*
X154017074Y-60725787D01*
X154017078Y-60725789D01*
X154187345Y-60785368D01*
X154187350Y-60785369D01*
X154366596Y-60805565D01*
X154366600Y-60805565D01*
X154366604Y-60805565D01*
X154545849Y-60785369D01*
X154545852Y-60785368D01*
X154545855Y-60785368D01*
X154716122Y-60725789D01*
X154717088Y-60725181D01*
X154726123Y-60719506D01*
X154792094Y-60700500D01*
X156574506Y-60700500D01*
X156640477Y-60719506D01*
X156650474Y-60725787D01*
X156650475Y-60725787D01*
X156650478Y-60725789D01*
X156820745Y-60785368D01*
X156820750Y-60785369D01*
X156999996Y-60805565D01*
X157000000Y-60805565D01*
X157000004Y-60805565D01*
X157179249Y-60785369D01*
X157179252Y-60785368D01*
X157179255Y-60785368D01*
X157349522Y-60725789D01*
X157502262Y-60629816D01*
X157629816Y-60502262D01*
X157725789Y-60349522D01*
X157785368Y-60179255D01*
X157785461Y-60178430D01*
X157805565Y-60000003D01*
X157805565Y-59999996D01*
X157785369Y-59820750D01*
X157785368Y-59820745D01*
X157725788Y-59650476D01*
X157669322Y-59560612D01*
X157629816Y-59497738D01*
X157502262Y-59370184D01*
X157349523Y-59274211D01*
X157179254Y-59214631D01*
X157179249Y-59214630D01*
X157074930Y-59202877D01*
X157010516Y-59175811D01*
X157000761Y-59161607D01*
X156995218Y-59170842D01*
X156932580Y-59201797D01*
X156925069Y-59202877D01*
X156820750Y-59214630D01*
X156820745Y-59214631D01*
X156650474Y-59274212D01*
X156640477Y-59280494D01*
X156574506Y-59299500D01*
X154792094Y-59299500D01*
X154726123Y-59280494D01*
X154716125Y-59274212D01*
X154545854Y-59214631D01*
X154545849Y-59214630D01*
X154366604Y-59194435D01*
X154366596Y-59194435D01*
X154187350Y-59214630D01*
X154187345Y-59214631D01*
X154017076Y-59274211D01*
X153864337Y-59370184D01*
X153736784Y-59497737D01*
X153640811Y-59650476D01*
X153581231Y-59820745D01*
X153581230Y-59820750D01*
X153561035Y-59999996D01*
X139529936Y-59999996D01*
X139542090Y-59987842D01*
X139601663Y-59884659D01*
X139632500Y-59769573D01*
X139632500Y-59650427D01*
X139601663Y-59535341D01*
X139542090Y-59432158D01*
X139457842Y-59347910D01*
X139373994Y-59299500D01*
X139354660Y-59288337D01*
X139297116Y-59272918D01*
X139239573Y-59257500D01*
X139120427Y-59257500D01*
X139005339Y-59288337D01*
X138902158Y-59347910D01*
X138902155Y-59347912D01*
X138817912Y-59432155D01*
X138817910Y-59432158D01*
X138758337Y-59535339D01*
X138727500Y-59650427D01*
X138727500Y-59769573D01*
X138741211Y-59820745D01*
X138758337Y-59884660D01*
X138788123Y-59936250D01*
X138817910Y-59987842D01*
X138817912Y-59987844D01*
X138833284Y-60003216D01*
X138866769Y-60064539D01*
X138861785Y-60134231D01*
X138819913Y-60190164D01*
X138793056Y-60205458D01*
X138676324Y-60253809D01*
X138676315Y-60253814D01*
X138512537Y-60363248D01*
X138512533Y-60363251D01*
X138373251Y-60502533D01*
X138373248Y-60502537D01*
X138263814Y-60666315D01*
X138263807Y-60666328D01*
X138188430Y-60848307D01*
X138188430Y-60848309D01*
X138180138Y-60890000D01*
X136869862Y-60890000D01*
X136861569Y-60848309D01*
X136861569Y-60848307D01*
X136786192Y-60666328D01*
X136786185Y-60666315D01*
X136676751Y-60502537D01*
X136676748Y-60502533D01*
X136537466Y-60363251D01*
X136537462Y-60363248D01*
X136373684Y-60253814D01*
X136373671Y-60253807D01*
X136191693Y-60178430D01*
X136191681Y-60178427D01*
X135998495Y-60140000D01*
X135750000Y-60140000D01*
X135750000Y-60840000D01*
X135250000Y-60840000D01*
X135250000Y-60140000D01*
X135001504Y-60140000D01*
X134808318Y-60178427D01*
X134808306Y-60178430D01*
X134626328Y-60253807D01*
X134626315Y-60253814D01*
X134462537Y-60363248D01*
X134462533Y-60363251D01*
X134323251Y-60502533D01*
X134323248Y-60502537D01*
X134213814Y-60666315D01*
X134213807Y-60666328D01*
X134138430Y-60848307D01*
X134138430Y-60848309D01*
X134130138Y-60890000D01*
X133000500Y-60890000D01*
X133000500Y-55899996D01*
X141114043Y-55899996D01*
X141114043Y-55900003D01*
X141134238Y-56079249D01*
X141134239Y-56079254D01*
X141193820Y-56249525D01*
X141200100Y-56259519D01*
X141219108Y-56325493D01*
X141219108Y-57251505D01*
X141212149Y-57292460D01*
X141158702Y-57445198D01*
X141158699Y-57445211D01*
X141138504Y-57624457D01*
X141138504Y-57624464D01*
X141158699Y-57803710D01*
X141158700Y-57803715D01*
X141218280Y-57973984D01*
X141314253Y-58126723D01*
X141441807Y-58254277D01*
X141594547Y-58350250D01*
X141764814Y-58409829D01*
X141764819Y-58409830D01*
X141944065Y-58430026D01*
X141944069Y-58430026D01*
X141944073Y-58430026D01*
X142123318Y-58409830D01*
X142123321Y-58409829D01*
X142123324Y-58409829D01*
X142293591Y-58350250D01*
X142446331Y-58254277D01*
X142573885Y-58126723D01*
X142669858Y-57973983D01*
X142729437Y-57803716D01*
X142749634Y-57624461D01*
X142746971Y-57600828D01*
X142729438Y-57445211D01*
X142729435Y-57445198D01*
X142669859Y-57274940D01*
X142639114Y-57226009D01*
X142620108Y-57160038D01*
X142620108Y-56325493D01*
X142639116Y-56259519D01*
X142645395Y-56249525D01*
X142645394Y-56249525D01*
X142645397Y-56249522D01*
X142704976Y-56079255D01*
X142707197Y-56059542D01*
X142708126Y-56051297D01*
X154086422Y-56051297D01*
X154086422Y-56051304D01*
X154106617Y-56230550D01*
X154106618Y-56230555D01*
X154166198Y-56400824D01*
X154251421Y-56536454D01*
X154262171Y-56553563D01*
X154389725Y-56681117D01*
X154542465Y-56777090D01*
X154712732Y-56836669D01*
X154799656Y-56846462D01*
X154864067Y-56873527D01*
X154873452Y-56882001D01*
X156169298Y-58177848D01*
X156202783Y-58239171D01*
X156204837Y-58251645D01*
X156214630Y-58338563D01*
X156274210Y-58508835D01*
X156370184Y-58661576D01*
X156497738Y-58789130D01*
X156650478Y-58885103D01*
X156820745Y-58944682D01*
X156820750Y-58944683D01*
X156925069Y-58956437D01*
X156989483Y-58983503D01*
X156999238Y-58997707D01*
X157004781Y-58988473D01*
X157067419Y-58957517D01*
X157074930Y-58956437D01*
X157179249Y-58944683D01*
X157179252Y-58944682D01*
X157179255Y-58944682D01*
X157349522Y-58885103D01*
X157502262Y-58789130D01*
X157629816Y-58661576D01*
X157725789Y-58508836D01*
X157785368Y-58338569D01*
X157785369Y-58338563D01*
X157805565Y-58159317D01*
X157805565Y-58159310D01*
X157785369Y-57980064D01*
X157785368Y-57980059D01*
X157748981Y-57876071D01*
X157725789Y-57809792D01*
X157721967Y-57803710D01*
X157629815Y-57657051D01*
X157502262Y-57529498D01*
X157349521Y-57433524D01*
X157179249Y-57373944D01*
X157092331Y-57364151D01*
X157027917Y-57337084D01*
X157018534Y-57328612D01*
X155722687Y-56032766D01*
X155689202Y-55971443D01*
X155687150Y-55958987D01*
X155677355Y-55872046D01*
X155617776Y-55701779D01*
X155521803Y-55549039D01*
X155394249Y-55421485D01*
X155372065Y-55407546D01*
X155241510Y-55325512D01*
X155071241Y-55265932D01*
X155071236Y-55265931D01*
X154891991Y-55245736D01*
X154891983Y-55245736D01*
X154712737Y-55265931D01*
X154712732Y-55265932D01*
X154542463Y-55325512D01*
X154389724Y-55421485D01*
X154262171Y-55549038D01*
X154166198Y-55701777D01*
X154106618Y-55872046D01*
X154106617Y-55872051D01*
X154086422Y-56051297D01*
X142708126Y-56051297D01*
X142725173Y-55900003D01*
X142725173Y-55899996D01*
X142704977Y-55720750D01*
X142704976Y-55720745D01*
X142645397Y-55550478D01*
X142549424Y-55397738D01*
X142421870Y-55270184D01*
X142415101Y-55265931D01*
X142269131Y-55174211D01*
X142098862Y-55114631D01*
X142098857Y-55114630D01*
X141919612Y-55094435D01*
X141919604Y-55094435D01*
X141740358Y-55114630D01*
X141740353Y-55114631D01*
X141570084Y-55174211D01*
X141417345Y-55270184D01*
X141289792Y-55397737D01*
X141193819Y-55550476D01*
X141134239Y-55720745D01*
X141134238Y-55720750D01*
X141114043Y-55899996D01*
X133000500Y-55899996D01*
X133000500Y-54499996D01*
X160206249Y-54499996D01*
X160206249Y-54500003D01*
X160226444Y-54679249D01*
X160226445Y-54679254D01*
X160286025Y-54849523D01*
X160381998Y-55002262D01*
X160398795Y-55019059D01*
X160432280Y-55080382D01*
X160435114Y-55106740D01*
X160435114Y-55750460D01*
X160415429Y-55817499D01*
X160398795Y-55838141D01*
X160381998Y-55854937D01*
X160286025Y-56007676D01*
X160226445Y-56177945D01*
X160226444Y-56177950D01*
X160206249Y-56357196D01*
X160206249Y-56357203D01*
X160226444Y-56536449D01*
X160226445Y-56536454D01*
X160286025Y-56706723D01*
X160367676Y-56836669D01*
X160381998Y-56859462D01*
X160509552Y-56987016D01*
X160662292Y-57082989D01*
X160832559Y-57142568D01*
X160832564Y-57142569D01*
X161011810Y-57162765D01*
X161011814Y-57162765D01*
X161011818Y-57162765D01*
X161191063Y-57142569D01*
X161191066Y-57142568D01*
X161191069Y-57142568D01*
X161361336Y-57082989D01*
X161514076Y-56987016D01*
X161641630Y-56859462D01*
X161737603Y-56706722D01*
X161797182Y-56536455D01*
X161817379Y-56357200D01*
X161814056Y-56327708D01*
X161797183Y-56177950D01*
X161797182Y-56177945D01*
X161762649Y-56079255D01*
X161737603Y-56007678D01*
X161641630Y-55854938D01*
X161624833Y-55838141D01*
X161591348Y-55776818D01*
X161588514Y-55750460D01*
X161588514Y-55106740D01*
X161608199Y-55039701D01*
X161624833Y-55019059D01*
X161641630Y-55002262D01*
X161737603Y-54849522D01*
X161797182Y-54679255D01*
X161817379Y-54500000D01*
X161800665Y-54351662D01*
X161797183Y-54320750D01*
X161797182Y-54320745D01*
X161757676Y-54207844D01*
X161737603Y-54150478D01*
X161641630Y-53997738D01*
X161514076Y-53870184D01*
X161361337Y-53774211D01*
X161191068Y-53714631D01*
X161191063Y-53714630D01*
X161011818Y-53694435D01*
X161011810Y-53694435D01*
X160832564Y-53714630D01*
X160832559Y-53714631D01*
X160662290Y-53774211D01*
X160509551Y-53870184D01*
X160381998Y-53997737D01*
X160286025Y-54150476D01*
X160226445Y-54320745D01*
X160226444Y-54320750D01*
X160206249Y-54499996D01*
X133000500Y-54499996D01*
X133000500Y-52250000D01*
X134130138Y-52250000D01*
X134933012Y-52250000D01*
X134915795Y-52259940D01*
X134859940Y-52315795D01*
X134820444Y-52384204D01*
X134800000Y-52460504D01*
X134800000Y-52539496D01*
X134820444Y-52615796D01*
X134859940Y-52684205D01*
X134915795Y-52740060D01*
X134933012Y-52750000D01*
X134130138Y-52750000D01*
X134138430Y-52791690D01*
X134138430Y-52791692D01*
X134213807Y-52973671D01*
X134213814Y-52973684D01*
X134323248Y-53137462D01*
X134323251Y-53137466D01*
X134462533Y-53276748D01*
X134462537Y-53276751D01*
X134626315Y-53386185D01*
X134626328Y-53386192D01*
X134808306Y-53461569D01*
X134808318Y-53461572D01*
X135001504Y-53499999D01*
X135001508Y-53500000D01*
X135250000Y-53500000D01*
X135250000Y-52800000D01*
X135750000Y-52800000D01*
X135750000Y-53500000D01*
X135998492Y-53500000D01*
X135998495Y-53499999D01*
X136191681Y-53461572D01*
X136191693Y-53461569D01*
X136373671Y-53386192D01*
X136373684Y-53386185D01*
X136537462Y-53276751D01*
X136537466Y-53276748D01*
X136676748Y-53137466D01*
X136676751Y-53137462D01*
X136786185Y-52973684D01*
X136786192Y-52973671D01*
X136861569Y-52791692D01*
X136861569Y-52791690D01*
X136869862Y-52750000D01*
X136066988Y-52750000D01*
X136084205Y-52740060D01*
X136140060Y-52684205D01*
X136179556Y-52615796D01*
X136200000Y-52539496D01*
X136200000Y-52460504D01*
X136179556Y-52384204D01*
X136140060Y-52315795D01*
X136084205Y-52259940D01*
X136066988Y-52250000D01*
X136869862Y-52250000D01*
X138180138Y-52250000D01*
X138983012Y-52250000D01*
X138965795Y-52259940D01*
X138909940Y-52315795D01*
X138870444Y-52384204D01*
X138850000Y-52460504D01*
X138850000Y-52539496D01*
X138870444Y-52615796D01*
X138909940Y-52684205D01*
X138965795Y-52740060D01*
X138983012Y-52750000D01*
X138180138Y-52750000D01*
X138188430Y-52791690D01*
X138188430Y-52791692D01*
X138263807Y-52973671D01*
X138263814Y-52973684D01*
X138373248Y-53137462D01*
X138373251Y-53137466D01*
X138512533Y-53276748D01*
X138512537Y-53276751D01*
X138676315Y-53386185D01*
X138676328Y-53386192D01*
X138793055Y-53434541D01*
X138847459Y-53478381D01*
X138869524Y-53544675D01*
X138852245Y-53612375D01*
X138833286Y-53636781D01*
X138817913Y-53652154D01*
X138817910Y-53652158D01*
X138758337Y-53755339D01*
X138727500Y-53870427D01*
X138727500Y-53989572D01*
X138758337Y-54104660D01*
X138784790Y-54150476D01*
X138817910Y-54207842D01*
X138902158Y-54292090D01*
X139005341Y-54351663D01*
X139120427Y-54382500D01*
X139120429Y-54382500D01*
X139239571Y-54382500D01*
X139239573Y-54382500D01*
X139354659Y-54351663D01*
X139457842Y-54292090D01*
X139542090Y-54207842D01*
X139601663Y-54104659D01*
X139632500Y-53989573D01*
X139632500Y-53870427D01*
X139601663Y-53755341D01*
X139542090Y-53652158D01*
X139486319Y-53596387D01*
X139452834Y-53535064D01*
X139450000Y-53508706D01*
X139450000Y-52800000D01*
X139950000Y-52800000D01*
X139950000Y-53500000D01*
X140348492Y-53500000D01*
X140348495Y-53499999D01*
X140541681Y-53461572D01*
X140541693Y-53461569D01*
X140723671Y-53386192D01*
X140723684Y-53386185D01*
X140887462Y-53276751D01*
X140887466Y-53276748D01*
X141026748Y-53137466D01*
X141026751Y-53137462D01*
X141136185Y-52973684D01*
X141136192Y-52973671D01*
X141211569Y-52791692D01*
X141211569Y-52791690D01*
X141219862Y-52750000D01*
X140416988Y-52750000D01*
X140434205Y-52740060D01*
X140490060Y-52684205D01*
X140529556Y-52615796D01*
X140550000Y-52539496D01*
X140550000Y-52460504D01*
X140529556Y-52384204D01*
X140490060Y-52315795D01*
X140434205Y-52259940D01*
X140416988Y-52250000D01*
X141219862Y-52250000D01*
X141211569Y-52208309D01*
X141211569Y-52208307D01*
X141136192Y-52026328D01*
X141136185Y-52026315D01*
X141026751Y-51862537D01*
X141026748Y-51862533D01*
X140887466Y-51723251D01*
X140887462Y-51723248D01*
X140723684Y-51613814D01*
X140723671Y-51613807D01*
X140541693Y-51538430D01*
X140541681Y-51538427D01*
X140348495Y-51500000D01*
X139950000Y-51500000D01*
X139950000Y-52200000D01*
X139450000Y-52200000D01*
X139450000Y-51500000D01*
X139051504Y-51500000D01*
X138858318Y-51538427D01*
X138858306Y-51538430D01*
X138676328Y-51613807D01*
X138676315Y-51613814D01*
X138512537Y-51723248D01*
X138512533Y-51723251D01*
X138373251Y-51862533D01*
X138373248Y-51862537D01*
X138263814Y-52026315D01*
X138263807Y-52026328D01*
X138188430Y-52208307D01*
X138188430Y-52208309D01*
X138180138Y-52250000D01*
X136869862Y-52250000D01*
X136861569Y-52208309D01*
X136861569Y-52208307D01*
X136786192Y-52026328D01*
X136786185Y-52026315D01*
X136676751Y-51862537D01*
X136676748Y-51862533D01*
X136537466Y-51723251D01*
X136537462Y-51723248D01*
X136373684Y-51613814D01*
X136373671Y-51613807D01*
X136191693Y-51538430D01*
X136191681Y-51538427D01*
X135998495Y-51500000D01*
X135750000Y-51500000D01*
X135750000Y-52200000D01*
X135250000Y-52200000D01*
X135250000Y-51500000D01*
X135001504Y-51500000D01*
X134808318Y-51538427D01*
X134808306Y-51538430D01*
X134626328Y-51613807D01*
X134626315Y-51613814D01*
X134462537Y-51723248D01*
X134462533Y-51723251D01*
X134323251Y-51862533D01*
X134323248Y-51862537D01*
X134213814Y-52026315D01*
X134213807Y-52026328D01*
X134138430Y-52208307D01*
X134138430Y-52208309D01*
X134130138Y-52250000D01*
X133000500Y-52250000D01*
X133000500Y-49874500D01*
X133020185Y-49807461D01*
X133072989Y-49761706D01*
X133124500Y-49750500D01*
X178645141Y-49750500D01*
X178712180Y-49770185D01*
G37*
%TD.AperFunction*%
%TD*%
M02*
