M48
; DRILL file {KiCad 8.0.5} date 2024-10-20T23:26:53-0400
; FORMAT={-:-/ absolute / inch / decimal}
; #@! TF.CreationDate,2024-10-20T23:26:53-04:00
; #@! TF.GenerationSoftware,Kicad,Pcbnew,8.0.5
; #@! TF.FileFunction,Plated,1,2,PTH
FMAT,2
INCH
; #@! TA.AperFunction,Plated,PTH,ViaDrill
T1C0.0118
; #@! TA.AperFunction,Plated,PTH,ComponentDrill
T2C0.0236
; #@! TA.AperFunction,Plated,PTH,ComponentDrill
T3C0.0394
; #@! TA.AperFunction,Plated,PTH,ComponentDrill
T4C0.0433
; #@! TA.AperFunction,Plated,PTH,ViaDrill
T5C0.1181
%
G90
G05
T1
X5.5874Y-2.2008
X5.5883Y-2.2687
X5.6427Y-2.1063
X5.6427Y-2.3819
X5.7283Y-2.0866
X5.7283Y-2.3819
X5.7874Y-2.0276
X5.8661Y-2.2923
X5.9055Y-2.9331
X5.9646Y-2.9331
X5.9748Y-2.7344
X6.001Y-2.5394
X6.0774Y-2.3622
X6.0827Y-3.1693
X6.0981Y-2.2067
X6.1031Y-2.7822
X6.1031Y-2.9361
X6.1417Y-2.8139
X6.1417Y-2.9361
X6.1811Y-2.2897
X6.1811Y-2.3622
X6.1811Y-2.8139
X6.1811Y-2.9185
X6.314Y-2.3311
X6.3189Y-2.0177
X6.3287Y-2.4606
X6.339Y-2.1457
X6.339Y-2.2188
X6.437Y-3.2185
X6.4372Y-2.8445
X6.4409Y-2.6575
X6.4409Y-3.0315
X6.4961Y-2.0079
X6.4961Y-2.0374
X6.4961Y-2.0669
X6.4961Y-2.0965
X6.5256Y-1.9783
X6.5551Y-1.9783
X6.5551Y-2.1988
X6.5551Y-2.2835
X6.5846Y-1.9783
X6.6142Y-2.0079
X6.6142Y-2.0374
X6.6142Y-2.0669
X6.6142Y-2.0965
T3
X5.315Y-2.5299
X5.315Y-2.6299
X5.315Y-2.7299
X5.315Y-2.8299
X5.315Y-2.9299
X5.315Y-3.0299
X5.315Y-3.1299
X5.315Y-3.2299
X5.5087Y-3.2087
X5.6087Y-3.2087
X5.7087Y-3.2087
T4
X6.9094Y-2.126
X6.9094Y-2.226
X6.9094Y-2.326
X6.9094Y-2.426
X6.9094Y-2.526
X6.9094Y-2.626
X6.9094Y-2.726
X6.9094Y-2.826
X6.9094Y-2.926
X6.9094Y-3.026
X6.9094Y-3.126
X6.9094Y-3.226
T5
X5.9449Y-2.0768
X5.9449Y-3.1693
T2
G00X5.3504Y-2.0669
M15
G01X5.3189Y-2.0669
M16
G05
G00X5.3504Y-2.4071
M15
G01X5.3189Y-2.4071
M16
G05
G00X5.5217Y-2.0669
M15
G01X5.4783Y-2.0669
M16
G05
G00X5.5217Y-2.4071
M15
G01X5.4783Y-2.4071
M16
G05
M30
