%TF.GenerationSoftware,KiCad,Pcbnew,8.0.5*%
%TF.CreationDate,2024-10-20T23:26:53-04:00*%
%TF.ProjectId,Sequencer,53657175-656e-4636-9572-2e6b69636164,rev?*%
%TF.SameCoordinates,Original*%
%TF.FileFunction,Legend,Bot*%
%TF.FilePolarity,Positive*%
%FSLAX46Y46*%
G04 Gerber Fmt 4.6, Leading zero omitted, Abs format (unit mm)*
G04 Created by KiCad (PCBNEW 8.0.5) date 2024-10-20 23:26:53*
%MOMM*%
%LPD*%
G01*
G04 APERTURE LIST*
%ADD10C,0.100000*%
%ADD11C,0.150000*%
%ADD12C,0.650000*%
%ADD13O,2.100000X1.000000*%
%ADD14O,1.800000X1.000000*%
%ADD15R,1.700000X1.700000*%
%ADD16O,1.700000X1.700000*%
%ADD17C,2.100000*%
%ADD18R,2.100000X2.100000*%
%ADD19C,0.600000*%
%ADD20C,5.560000*%
G04 APERTURE END LIST*
D10*
X136709133Y-63565789D02*
X136709133Y-63232455D01*
X136709133Y-63232455D02*
X137042466Y-63199122D01*
X137042466Y-63199122D02*
X137009133Y-63232455D01*
X137009133Y-63232455D02*
X136975800Y-63299122D01*
X136975800Y-63299122D02*
X136975800Y-63465789D01*
X136975800Y-63465789D02*
X137009133Y-63532455D01*
X137009133Y-63532455D02*
X137042466Y-63565789D01*
X137042466Y-63565789D02*
X137109133Y-63599122D01*
X137109133Y-63599122D02*
X137275800Y-63599122D01*
X137275800Y-63599122D02*
X137342466Y-63565789D01*
X137342466Y-63565789D02*
X137375800Y-63532455D01*
X137375800Y-63532455D02*
X137409133Y-63465789D01*
X137409133Y-63465789D02*
X137409133Y-63299122D01*
X137409133Y-63299122D02*
X137375800Y-63232455D01*
X137375800Y-63232455D02*
X137342466Y-63199122D01*
X136709133Y-63799122D02*
X137409133Y-64032456D01*
X137409133Y-64032456D02*
X136709133Y-64265789D01*
X136742466Y-66999121D02*
X136709133Y-66932454D01*
X136709133Y-66932454D02*
X136709133Y-66832454D01*
X136709133Y-66832454D02*
X136742466Y-66732454D01*
X136742466Y-66732454D02*
X136809133Y-66665788D01*
X136809133Y-66665788D02*
X136875800Y-66632454D01*
X136875800Y-66632454D02*
X137009133Y-66599121D01*
X137009133Y-66599121D02*
X137109133Y-66599121D01*
X137109133Y-66599121D02*
X137242466Y-66632454D01*
X137242466Y-66632454D02*
X137309133Y-66665788D01*
X137309133Y-66665788D02*
X137375800Y-66732454D01*
X137375800Y-66732454D02*
X137409133Y-66832454D01*
X137409133Y-66832454D02*
X137409133Y-66899121D01*
X137409133Y-66899121D02*
X137375800Y-66999121D01*
X137375800Y-66999121D02*
X137342466Y-67032454D01*
X137342466Y-67032454D02*
X137109133Y-67032454D01*
X137109133Y-67032454D02*
X137109133Y-66899121D01*
X137409133Y-68399120D02*
X136709133Y-68399120D01*
X136709133Y-68399120D02*
X136709133Y-68665787D01*
X136709133Y-68665787D02*
X136742466Y-68732454D01*
X136742466Y-68732454D02*
X136775800Y-68765787D01*
X136775800Y-68765787D02*
X136842466Y-68799120D01*
X136842466Y-68799120D02*
X136942466Y-68799120D01*
X136942466Y-68799120D02*
X137009133Y-68765787D01*
X137009133Y-68765787D02*
X137042466Y-68732454D01*
X137042466Y-68732454D02*
X137075800Y-68665787D01*
X137075800Y-68665787D02*
X137075800Y-68399120D01*
X137209133Y-69065787D02*
X137209133Y-69399120D01*
X137409133Y-68999120D02*
X136709133Y-69232454D01*
X136709133Y-69232454D02*
X137409133Y-69465787D01*
X136942466Y-69999120D02*
X137409133Y-69999120D01*
X136675800Y-69832454D02*
X137175800Y-69665787D01*
X137175800Y-69665787D02*
X137175800Y-70099120D01*
X137409133Y-70899120D02*
X136709133Y-70899120D01*
X136709133Y-70899120D02*
X136709133Y-71165787D01*
X136709133Y-71165787D02*
X136742466Y-71232454D01*
X136742466Y-71232454D02*
X136775800Y-71265787D01*
X136775800Y-71265787D02*
X136842466Y-71299120D01*
X136842466Y-71299120D02*
X136942466Y-71299120D01*
X136942466Y-71299120D02*
X137009133Y-71265787D01*
X137009133Y-71265787D02*
X137042466Y-71232454D01*
X137042466Y-71232454D02*
X137075800Y-71165787D01*
X137075800Y-71165787D02*
X137075800Y-70899120D01*
X137209133Y-71565787D02*
X137209133Y-71899120D01*
X137409133Y-71499120D02*
X136709133Y-71732454D01*
X136709133Y-71732454D02*
X137409133Y-71965787D01*
X136709133Y-72532454D02*
X136709133Y-72199120D01*
X136709133Y-72199120D02*
X137042466Y-72165787D01*
X137042466Y-72165787D02*
X137009133Y-72199120D01*
X137009133Y-72199120D02*
X136975800Y-72265787D01*
X136975800Y-72265787D02*
X136975800Y-72432454D01*
X136975800Y-72432454D02*
X137009133Y-72499120D01*
X137009133Y-72499120D02*
X137042466Y-72532454D01*
X137042466Y-72532454D02*
X137109133Y-72565787D01*
X137109133Y-72565787D02*
X137275800Y-72565787D01*
X137275800Y-72565787D02*
X137342466Y-72532454D01*
X137342466Y-72532454D02*
X137375800Y-72499120D01*
X137375800Y-72499120D02*
X137409133Y-72432454D01*
X137409133Y-72432454D02*
X137409133Y-72265787D01*
X137409133Y-72265787D02*
X137375800Y-72199120D01*
X137375800Y-72199120D02*
X137342466Y-72165787D01*
X137409133Y-73399120D02*
X136709133Y-73399120D01*
X136709133Y-73399120D02*
X136709133Y-73665787D01*
X136709133Y-73665787D02*
X136742466Y-73732454D01*
X136742466Y-73732454D02*
X136775800Y-73765787D01*
X136775800Y-73765787D02*
X136842466Y-73799120D01*
X136842466Y-73799120D02*
X136942466Y-73799120D01*
X136942466Y-73799120D02*
X137009133Y-73765787D01*
X137009133Y-73765787D02*
X137042466Y-73732454D01*
X137042466Y-73732454D02*
X137075800Y-73665787D01*
X137075800Y-73665787D02*
X137075800Y-73399120D01*
X137209133Y-74065787D02*
X137209133Y-74399120D01*
X137409133Y-73999120D02*
X136709133Y-74232454D01*
X136709133Y-74232454D02*
X137409133Y-74465787D01*
X136709133Y-74999120D02*
X136709133Y-74865787D01*
X136709133Y-74865787D02*
X136742466Y-74799120D01*
X136742466Y-74799120D02*
X136775800Y-74765787D01*
X136775800Y-74765787D02*
X136875800Y-74699120D01*
X136875800Y-74699120D02*
X137009133Y-74665787D01*
X137009133Y-74665787D02*
X137275800Y-74665787D01*
X137275800Y-74665787D02*
X137342466Y-74699120D01*
X137342466Y-74699120D02*
X137375800Y-74732454D01*
X137375800Y-74732454D02*
X137409133Y-74799120D01*
X137409133Y-74799120D02*
X137409133Y-74932454D01*
X137409133Y-74932454D02*
X137375800Y-74999120D01*
X137375800Y-74999120D02*
X137342466Y-75032454D01*
X137342466Y-75032454D02*
X137275800Y-75065787D01*
X137275800Y-75065787D02*
X137109133Y-75065787D01*
X137109133Y-75065787D02*
X137042466Y-75032454D01*
X137042466Y-75032454D02*
X137009133Y-74999120D01*
X137009133Y-74999120D02*
X136975800Y-74932454D01*
X136975800Y-74932454D02*
X136975800Y-74799120D01*
X136975800Y-74799120D02*
X137009133Y-74732454D01*
X137009133Y-74732454D02*
X137042466Y-74699120D01*
X137042466Y-74699120D02*
X137109133Y-74665787D01*
X137409133Y-75899120D02*
X136709133Y-75899120D01*
X136709133Y-75899120D02*
X136709133Y-76165787D01*
X136709133Y-76165787D02*
X136742466Y-76232454D01*
X136742466Y-76232454D02*
X136775800Y-76265787D01*
X136775800Y-76265787D02*
X136842466Y-76299120D01*
X136842466Y-76299120D02*
X136942466Y-76299120D01*
X136942466Y-76299120D02*
X137009133Y-76265787D01*
X137009133Y-76265787D02*
X137042466Y-76232454D01*
X137042466Y-76232454D02*
X137075800Y-76165787D01*
X137075800Y-76165787D02*
X137075800Y-75899120D01*
X137209133Y-76565787D02*
X137209133Y-76899120D01*
X137409133Y-76499120D02*
X136709133Y-76732454D01*
X136709133Y-76732454D02*
X137409133Y-76965787D01*
X136709133Y-77132454D02*
X136709133Y-77599120D01*
X136709133Y-77599120D02*
X137409133Y-77299120D01*
X137409133Y-78399120D02*
X136709133Y-78399120D01*
X136709133Y-78399120D02*
X136709133Y-78665787D01*
X136709133Y-78665787D02*
X136742466Y-78732454D01*
X136742466Y-78732454D02*
X136775800Y-78765787D01*
X136775800Y-78765787D02*
X136842466Y-78799120D01*
X136842466Y-78799120D02*
X136942466Y-78799120D01*
X136942466Y-78799120D02*
X137009133Y-78765787D01*
X137009133Y-78765787D02*
X137042466Y-78732454D01*
X137042466Y-78732454D02*
X137075800Y-78665787D01*
X137075800Y-78665787D02*
X137075800Y-78399120D01*
X137042466Y-79332454D02*
X137075800Y-79432454D01*
X137075800Y-79432454D02*
X137109133Y-79465787D01*
X137109133Y-79465787D02*
X137175800Y-79499120D01*
X137175800Y-79499120D02*
X137275800Y-79499120D01*
X137275800Y-79499120D02*
X137342466Y-79465787D01*
X137342466Y-79465787D02*
X137375800Y-79432454D01*
X137375800Y-79432454D02*
X137409133Y-79365787D01*
X137409133Y-79365787D02*
X137409133Y-79099120D01*
X137409133Y-79099120D02*
X136709133Y-79099120D01*
X136709133Y-79099120D02*
X136709133Y-79332454D01*
X136709133Y-79332454D02*
X136742466Y-79399120D01*
X136742466Y-79399120D02*
X136775800Y-79432454D01*
X136775800Y-79432454D02*
X136842466Y-79465787D01*
X136842466Y-79465787D02*
X136909133Y-79465787D01*
X136909133Y-79465787D02*
X136975800Y-79432454D01*
X136975800Y-79432454D02*
X137009133Y-79399120D01*
X137009133Y-79399120D02*
X137042466Y-79332454D01*
X137042466Y-79332454D02*
X137042466Y-79099120D01*
X136709133Y-80132454D02*
X136709133Y-79799120D01*
X136709133Y-79799120D02*
X137042466Y-79765787D01*
X137042466Y-79765787D02*
X137009133Y-79799120D01*
X137009133Y-79799120D02*
X136975800Y-79865787D01*
X136975800Y-79865787D02*
X136975800Y-80032454D01*
X136975800Y-80032454D02*
X137009133Y-80099120D01*
X137009133Y-80099120D02*
X137042466Y-80132454D01*
X137042466Y-80132454D02*
X137109133Y-80165787D01*
X137109133Y-80165787D02*
X137275800Y-80165787D01*
X137275800Y-80165787D02*
X137342466Y-80132454D01*
X137342466Y-80132454D02*
X137375800Y-80099120D01*
X137375800Y-80099120D02*
X137409133Y-80032454D01*
X137409133Y-80032454D02*
X137409133Y-79865787D01*
X137409133Y-79865787D02*
X137375800Y-79799120D01*
X137375800Y-79799120D02*
X137342466Y-79765787D01*
X137409133Y-80999120D02*
X136709133Y-80999120D01*
X136709133Y-80999120D02*
X136709133Y-81265787D01*
X136709133Y-81265787D02*
X136742466Y-81332454D01*
X136742466Y-81332454D02*
X136775800Y-81365787D01*
X136775800Y-81365787D02*
X136842466Y-81399120D01*
X136842466Y-81399120D02*
X136942466Y-81399120D01*
X136942466Y-81399120D02*
X137009133Y-81365787D01*
X137009133Y-81365787D02*
X137042466Y-81332454D01*
X137042466Y-81332454D02*
X137075800Y-81265787D01*
X137075800Y-81265787D02*
X137075800Y-80999120D01*
X137042466Y-81932454D02*
X137075800Y-82032454D01*
X137075800Y-82032454D02*
X137109133Y-82065787D01*
X137109133Y-82065787D02*
X137175800Y-82099120D01*
X137175800Y-82099120D02*
X137275800Y-82099120D01*
X137275800Y-82099120D02*
X137342466Y-82065787D01*
X137342466Y-82065787D02*
X137375800Y-82032454D01*
X137375800Y-82032454D02*
X137409133Y-81965787D01*
X137409133Y-81965787D02*
X137409133Y-81699120D01*
X137409133Y-81699120D02*
X136709133Y-81699120D01*
X136709133Y-81699120D02*
X136709133Y-81932454D01*
X136709133Y-81932454D02*
X136742466Y-81999120D01*
X136742466Y-81999120D02*
X136775800Y-82032454D01*
X136775800Y-82032454D02*
X136842466Y-82065787D01*
X136842466Y-82065787D02*
X136909133Y-82065787D01*
X136909133Y-82065787D02*
X136975800Y-82032454D01*
X136975800Y-82032454D02*
X137009133Y-81999120D01*
X137009133Y-81999120D02*
X137042466Y-81932454D01*
X137042466Y-81932454D02*
X137042466Y-81699120D01*
X136942466Y-82699120D02*
X137409133Y-82699120D01*
X136675800Y-82532454D02*
X137175800Y-82365787D01*
X137175800Y-82365787D02*
X137175800Y-82799120D01*
D11*
X146163220Y-79869819D02*
X146163220Y-78869819D01*
X146163220Y-78869819D02*
X145782268Y-78869819D01*
X145782268Y-78869819D02*
X145687030Y-78917438D01*
X145687030Y-78917438D02*
X145639411Y-78965057D01*
X145639411Y-78965057D02*
X145591792Y-79060295D01*
X145591792Y-79060295D02*
X145591792Y-79203152D01*
X145591792Y-79203152D02*
X145639411Y-79298390D01*
X145639411Y-79298390D02*
X145687030Y-79346009D01*
X145687030Y-79346009D02*
X145782268Y-79393628D01*
X145782268Y-79393628D02*
X146163220Y-79393628D01*
X145163220Y-79869819D02*
X145163220Y-78869819D01*
X145163220Y-78869819D02*
X144925125Y-78869819D01*
X144925125Y-78869819D02*
X144782268Y-78917438D01*
X144782268Y-78917438D02*
X144687030Y-79012676D01*
X144687030Y-79012676D02*
X144639411Y-79107914D01*
X144639411Y-79107914D02*
X144591792Y-79298390D01*
X144591792Y-79298390D02*
X144591792Y-79441247D01*
X144591792Y-79441247D02*
X144639411Y-79631723D01*
X144639411Y-79631723D02*
X144687030Y-79726961D01*
X144687030Y-79726961D02*
X144782268Y-79822200D01*
X144782268Y-79822200D02*
X144925125Y-79869819D01*
X144925125Y-79869819D02*
X145163220Y-79869819D01*
X144163220Y-79869819D02*
X144163220Y-78869819D01*
X142210840Y-78822200D02*
X143067982Y-80107914D01*
X141163220Y-79822200D02*
X141020363Y-79869819D01*
X141020363Y-79869819D02*
X140782268Y-79869819D01*
X140782268Y-79869819D02*
X140687030Y-79822200D01*
X140687030Y-79822200D02*
X140639411Y-79774580D01*
X140639411Y-79774580D02*
X140591792Y-79679342D01*
X140591792Y-79679342D02*
X140591792Y-79584104D01*
X140591792Y-79584104D02*
X140639411Y-79488866D01*
X140639411Y-79488866D02*
X140687030Y-79441247D01*
X140687030Y-79441247D02*
X140782268Y-79393628D01*
X140782268Y-79393628D02*
X140972744Y-79346009D01*
X140972744Y-79346009D02*
X141067982Y-79298390D01*
X141067982Y-79298390D02*
X141115601Y-79250771D01*
X141115601Y-79250771D02*
X141163220Y-79155533D01*
X141163220Y-79155533D02*
X141163220Y-79060295D01*
X141163220Y-79060295D02*
X141115601Y-78965057D01*
X141115601Y-78965057D02*
X141067982Y-78917438D01*
X141067982Y-78917438D02*
X140972744Y-78869819D01*
X140972744Y-78869819D02*
X140734649Y-78869819D01*
X140734649Y-78869819D02*
X140591792Y-78917438D01*
X140163220Y-79346009D02*
X139829887Y-79346009D01*
X139687030Y-79869819D02*
X140163220Y-79869819D01*
X140163220Y-79869819D02*
X140163220Y-78869819D01*
X140163220Y-78869819D02*
X139687030Y-78869819D01*
X138687030Y-79869819D02*
X139020363Y-79393628D01*
X139258458Y-79869819D02*
X139258458Y-78869819D01*
X139258458Y-78869819D02*
X138877506Y-78869819D01*
X138877506Y-78869819D02*
X138782268Y-78917438D01*
X138782268Y-78917438D02*
X138734649Y-78965057D01*
X138734649Y-78965057D02*
X138687030Y-79060295D01*
X138687030Y-79060295D02*
X138687030Y-79203152D01*
X138687030Y-79203152D02*
X138734649Y-79298390D01*
X138734649Y-79298390D02*
X138782268Y-79346009D01*
X138782268Y-79346009D02*
X138877506Y-79393628D01*
X138877506Y-79393628D02*
X139258458Y-79393628D01*
X173863700Y-53398684D02*
X173863700Y-52798684D01*
X173863700Y-53098684D02*
X172813700Y-53098684D01*
X172813700Y-53098684D02*
X172963700Y-52998684D01*
X172963700Y-52998684D02*
X173063700Y-52898684D01*
X173063700Y-52898684D02*
X173113700Y-52798684D01*
X172913700Y-53798684D02*
X172863700Y-53848684D01*
X172863700Y-53848684D02*
X172813700Y-53948684D01*
X172813700Y-53948684D02*
X172813700Y-54198684D01*
X172813700Y-54198684D02*
X172863700Y-54298684D01*
X172863700Y-54298684D02*
X172913700Y-54348684D01*
X172913700Y-54348684D02*
X173013700Y-54398684D01*
X173013700Y-54398684D02*
X173113700Y-54398684D01*
X173113700Y-54398684D02*
X173263700Y-54348684D01*
X173263700Y-54348684D02*
X173863700Y-53748684D01*
X173863700Y-53748684D02*
X173863700Y-54398684D01*
X172813700Y-54698684D02*
X173863700Y-55048684D01*
X173863700Y-55048684D02*
X172813700Y-55398684D01*
X172863700Y-57098684D02*
X172813700Y-56998684D01*
X172813700Y-56998684D02*
X172813700Y-56848684D01*
X172813700Y-56848684D02*
X172863700Y-56698684D01*
X172863700Y-56698684D02*
X172963700Y-56598684D01*
X172963700Y-56598684D02*
X173063700Y-56548684D01*
X173063700Y-56548684D02*
X173263700Y-56498684D01*
X173263700Y-56498684D02*
X173413700Y-56498684D01*
X173413700Y-56498684D02*
X173613700Y-56548684D01*
X173613700Y-56548684D02*
X173713700Y-56598684D01*
X173713700Y-56598684D02*
X173813700Y-56698684D01*
X173813700Y-56698684D02*
X173863700Y-56848684D01*
X173863700Y-56848684D02*
X173863700Y-56948684D01*
X173863700Y-56948684D02*
X173813700Y-57098684D01*
X173813700Y-57098684D02*
X173763700Y-57148684D01*
X173763700Y-57148684D02*
X173413700Y-57148684D01*
X173413700Y-57148684D02*
X173413700Y-56948684D01*
X173863700Y-59198684D02*
X172813700Y-59198684D01*
X173863700Y-59798684D02*
X173263700Y-59348684D01*
X172813700Y-59798684D02*
X173413700Y-59198684D01*
X173313700Y-60248684D02*
X173313700Y-60598684D01*
X173863700Y-60748684D02*
X173863700Y-60248684D01*
X173863700Y-60248684D02*
X172813700Y-60248684D01*
X172813700Y-60248684D02*
X172813700Y-60748684D01*
X173363700Y-61398684D02*
X173863700Y-61398684D01*
X172813700Y-61048684D02*
X173363700Y-61398684D01*
X173363700Y-61398684D02*
X172813700Y-61748684D01*
X173813700Y-64448684D02*
X173863700Y-64598684D01*
X173863700Y-64598684D02*
X173863700Y-64848684D01*
X173863700Y-64848684D02*
X173813700Y-64948684D01*
X173813700Y-64948684D02*
X173763700Y-64998684D01*
X173763700Y-64998684D02*
X173663700Y-65048684D01*
X173663700Y-65048684D02*
X173563700Y-65048684D01*
X173563700Y-65048684D02*
X173463700Y-64998684D01*
X173463700Y-64998684D02*
X173413700Y-64948684D01*
X173413700Y-64948684D02*
X173363700Y-64848684D01*
X173363700Y-64848684D02*
X173313700Y-64648684D01*
X173313700Y-64648684D02*
X173263700Y-64548684D01*
X173263700Y-64548684D02*
X173213700Y-64498684D01*
X173213700Y-64498684D02*
X173113700Y-64448684D01*
X173113700Y-64448684D02*
X173013700Y-64448684D01*
X173013700Y-64448684D02*
X172913700Y-64498684D01*
X172913700Y-64498684D02*
X172863700Y-64548684D01*
X172863700Y-64548684D02*
X172813700Y-64648684D01*
X172813700Y-64648684D02*
X172813700Y-64898684D01*
X172813700Y-64898684D02*
X172863700Y-65048684D01*
X173163700Y-65948684D02*
X173863700Y-65948684D01*
X172763700Y-65698684D02*
X173513700Y-65448684D01*
X173513700Y-65448684D02*
X173513700Y-66098684D01*
X173813700Y-69648684D02*
X173863700Y-69798684D01*
X173863700Y-69798684D02*
X173863700Y-70048684D01*
X173863700Y-70048684D02*
X173813700Y-70148684D01*
X173813700Y-70148684D02*
X173763700Y-70198684D01*
X173763700Y-70198684D02*
X173663700Y-70248684D01*
X173663700Y-70248684D02*
X173563700Y-70248684D01*
X173563700Y-70248684D02*
X173463700Y-70198684D01*
X173463700Y-70198684D02*
X173413700Y-70148684D01*
X173413700Y-70148684D02*
X173363700Y-70048684D01*
X173363700Y-70048684D02*
X173313700Y-69848684D01*
X173313700Y-69848684D02*
X173263700Y-69748684D01*
X173263700Y-69748684D02*
X173213700Y-69698684D01*
X173213700Y-69698684D02*
X173113700Y-69648684D01*
X173113700Y-69648684D02*
X173013700Y-69648684D01*
X173013700Y-69648684D02*
X172913700Y-69698684D01*
X172913700Y-69698684D02*
X172863700Y-69748684D01*
X172863700Y-69748684D02*
X172813700Y-69848684D01*
X172813700Y-69848684D02*
X172813700Y-70098684D01*
X172813700Y-70098684D02*
X172863700Y-70248684D01*
X172813700Y-70598684D02*
X172813700Y-71248684D01*
X172813700Y-71248684D02*
X173213700Y-70898684D01*
X173213700Y-70898684D02*
X173213700Y-71048684D01*
X173213700Y-71048684D02*
X173263700Y-71148684D01*
X173263700Y-71148684D02*
X173313700Y-71198684D01*
X173313700Y-71198684D02*
X173413700Y-71248684D01*
X173413700Y-71248684D02*
X173663700Y-71248684D01*
X173663700Y-71248684D02*
X173763700Y-71198684D01*
X173763700Y-71198684D02*
X173813700Y-71148684D01*
X173813700Y-71148684D02*
X173863700Y-71048684D01*
X173863700Y-71048684D02*
X173863700Y-70748684D01*
X173863700Y-70748684D02*
X173813700Y-70648684D01*
X173813700Y-70648684D02*
X173763700Y-70598684D01*
X173813700Y-74848684D02*
X173863700Y-74998684D01*
X173863700Y-74998684D02*
X173863700Y-75248684D01*
X173863700Y-75248684D02*
X173813700Y-75348684D01*
X173813700Y-75348684D02*
X173763700Y-75398684D01*
X173763700Y-75398684D02*
X173663700Y-75448684D01*
X173663700Y-75448684D02*
X173563700Y-75448684D01*
X173563700Y-75448684D02*
X173463700Y-75398684D01*
X173463700Y-75398684D02*
X173413700Y-75348684D01*
X173413700Y-75348684D02*
X173363700Y-75248684D01*
X173363700Y-75248684D02*
X173313700Y-75048684D01*
X173313700Y-75048684D02*
X173263700Y-74948684D01*
X173263700Y-74948684D02*
X173213700Y-74898684D01*
X173213700Y-74898684D02*
X173113700Y-74848684D01*
X173113700Y-74848684D02*
X173013700Y-74848684D01*
X173013700Y-74848684D02*
X172913700Y-74898684D01*
X172913700Y-74898684D02*
X172863700Y-74948684D01*
X172863700Y-74948684D02*
X172813700Y-75048684D01*
X172813700Y-75048684D02*
X172813700Y-75298684D01*
X172813700Y-75298684D02*
X172863700Y-75448684D01*
X172913700Y-75848684D02*
X172863700Y-75898684D01*
X172863700Y-75898684D02*
X172813700Y-75998684D01*
X172813700Y-75998684D02*
X172813700Y-76248684D01*
X172813700Y-76248684D02*
X172863700Y-76348684D01*
X172863700Y-76348684D02*
X172913700Y-76398684D01*
X172913700Y-76398684D02*
X173013700Y-76448684D01*
X173013700Y-76448684D02*
X173113700Y-76448684D01*
X173113700Y-76448684D02*
X173263700Y-76398684D01*
X173263700Y-76398684D02*
X173863700Y-75798684D01*
X173863700Y-75798684D02*
X173863700Y-76448684D01*
X173813700Y-80048684D02*
X173863700Y-80198684D01*
X173863700Y-80198684D02*
X173863700Y-80448684D01*
X173863700Y-80448684D02*
X173813700Y-80548684D01*
X173813700Y-80548684D02*
X173763700Y-80598684D01*
X173763700Y-80598684D02*
X173663700Y-80648684D01*
X173663700Y-80648684D02*
X173563700Y-80648684D01*
X173563700Y-80648684D02*
X173463700Y-80598684D01*
X173463700Y-80598684D02*
X173413700Y-80548684D01*
X173413700Y-80548684D02*
X173363700Y-80448684D01*
X173363700Y-80448684D02*
X173313700Y-80248684D01*
X173313700Y-80248684D02*
X173263700Y-80148684D01*
X173263700Y-80148684D02*
X173213700Y-80098684D01*
X173213700Y-80098684D02*
X173113700Y-80048684D01*
X173113700Y-80048684D02*
X173013700Y-80048684D01*
X173013700Y-80048684D02*
X172913700Y-80098684D01*
X172913700Y-80098684D02*
X172863700Y-80148684D01*
X172863700Y-80148684D02*
X172813700Y-80248684D01*
X172813700Y-80248684D02*
X172813700Y-80498684D01*
X172813700Y-80498684D02*
X172863700Y-80648684D01*
X173863700Y-81648684D02*
X173863700Y-81048684D01*
X173863700Y-81348684D02*
X172813700Y-81348684D01*
X172813700Y-81348684D02*
X172963700Y-81248684D01*
X172963700Y-81248684D02*
X173063700Y-81148684D01*
X173063700Y-81148684D02*
X173113700Y-81048684D01*
%LPC*%
D12*
%TO.C,J3*%
X139180000Y-53930000D03*
X139180000Y-59710000D03*
D13*
X139700000Y-52500000D03*
D14*
X135500000Y-52500000D03*
D13*
X139700000Y-61140000D03*
D14*
X135500000Y-61140000D03*
%TD*%
D15*
%TO.C,J4*%
X135000000Y-64260000D03*
D16*
X135000000Y-66800000D03*
X135000000Y-69340000D03*
X135000000Y-71880000D03*
X135000000Y-74420000D03*
X135000000Y-76960000D03*
X135000000Y-79500000D03*
X135000000Y-82040000D03*
%TD*%
D15*
%TO.C,J2*%
X145000000Y-81500000D03*
D16*
X142460000Y-81500000D03*
X139920000Y-81500000D03*
%TD*%
D17*
%TO.C,J1*%
X175500000Y-81940000D03*
X175500000Y-79400000D03*
X175500000Y-76860000D03*
X175500000Y-74320000D03*
X175500000Y-71780000D03*
X175500000Y-69240000D03*
X175500000Y-66700000D03*
X175500000Y-64160000D03*
X175500000Y-61620000D03*
X175500000Y-59080000D03*
X175500000Y-56540000D03*
D18*
X175500000Y-54000000D03*
%TD*%
D19*
X145500000Y-60500000D03*
X163600000Y-67500000D03*
X166500000Y-50250000D03*
X165000000Y-51000000D03*
X160750000Y-62500000D03*
X168000000Y-51000000D03*
X151760960Y-69454280D03*
X154500000Y-80500000D03*
X168000000Y-53250000D03*
X143325000Y-60500000D03*
X163600000Y-77000000D03*
X145500000Y-53000000D03*
X166500000Y-55850626D03*
X160376814Y-59209314D03*
X166500000Y-58000000D03*
X149000000Y-58225000D03*
X152425000Y-64500000D03*
X165000000Y-51750000D03*
D20*
X151000000Y-80500000D03*
D19*
X165000000Y-52500000D03*
X163505000Y-72250000D03*
X160500000Y-51250000D03*
X147000000Y-51500000D03*
X165750000Y-50250000D03*
X168000000Y-52500000D03*
X168000000Y-51750000D03*
X165000000Y-53250000D03*
X163500000Y-81750000D03*
X167250000Y-50250000D03*
X143325000Y-53500000D03*
D20*
X151000000Y-52750000D03*
D19*
X154366600Y-60000000D03*
X157000000Y-60000000D03*
X156000000Y-74576200D03*
X156000000Y-71473800D03*
X161011814Y-56357200D03*
X161011814Y-54500000D03*
X154891987Y-56051301D03*
X157000000Y-58159314D03*
X141944069Y-57624461D03*
X141919608Y-55900000D03*
X157000000Y-74131000D03*
X157000000Y-71473800D03*
X150000000Y-74500000D03*
X151500000Y-74500000D03*
X155017565Y-74576200D03*
X155017565Y-70667565D03*
%LPD*%
M02*
