%TF.GenerationSoftware,KiCad,Pcbnew,8.0.5*%
%TF.CreationDate,2024-10-20T23:26:53-04:00*%
%TF.ProjectId,Sequencer,53657175-656e-4636-9572-2e6b69636164,rev?*%
%TF.SameCoordinates,Original*%
%TF.FileFunction,Copper,L1,Top*%
%TF.FilePolarity,Positive*%
%FSLAX46Y46*%
G04 Gerber Fmt 4.6, Leading zero omitted, Abs format (unit mm)*
G04 Created by KiCad (PCBNEW 8.0.5) date 2024-10-20 23:26:53*
%MOMM*%
%LPD*%
G01*
G04 APERTURE LIST*
G04 Aperture macros list*
%AMRoundRect*
0 Rectangle with rounded corners*
0 $1 Rounding radius*
0 $2 $3 $4 $5 $6 $7 $8 $9 X,Y pos of 4 corners*
0 Add a 4 corners polygon primitive as box body*
4,1,4,$2,$3,$4,$5,$6,$7,$8,$9,$2,$3,0*
0 Add four circle primitives for the rounded corners*
1,1,$1+$1,$2,$3*
1,1,$1+$1,$4,$5*
1,1,$1+$1,$6,$7*
1,1,$1+$1,$8,$9*
0 Add four rect primitives between the rounded corners*
20,1,$1+$1,$2,$3,$4,$5,0*
20,1,$1+$1,$4,$5,$6,$7,0*
20,1,$1+$1,$6,$7,$8,$9,0*
20,1,$1+$1,$8,$9,$2,$3,0*%
%AMFreePoly0*
4,1,14,0.334644,0.085355,0.385355,0.034644,0.400000,-0.000711,0.400000,-0.050000,0.385355,-0.085355,0.350000,-0.100000,-0.350000,-0.100000,-0.385355,-0.085355,-0.400000,-0.050000,-0.400000,0.050000,-0.385355,0.085355,-0.350000,0.100000,0.299289,0.100000,0.334644,0.085355,0.334644,0.085355,$1*%
%AMFreePoly1*
4,1,14,0.385355,0.085355,0.400000,0.050000,0.400000,0.000711,0.385355,-0.034644,0.334644,-0.085355,0.299289,-0.100000,-0.350000,-0.100000,-0.385355,-0.085355,-0.400000,-0.050000,-0.400000,0.050000,-0.385355,0.085355,-0.350000,0.100000,0.350000,0.100000,0.385355,0.085355,0.385355,0.085355,$1*%
%AMFreePoly2*
4,1,14,0.085355,0.385355,0.100000,0.350000,0.100000,-0.350000,0.085355,-0.385355,0.050000,-0.400000,-0.050000,-0.400000,-0.085355,-0.385355,-0.100000,-0.350000,-0.100000,0.299289,-0.085355,0.334644,-0.034644,0.385355,0.000711,0.400000,0.050000,0.400000,0.085355,0.385355,0.085355,0.385355,$1*%
%AMFreePoly3*
4,1,14,0.034644,0.385355,0.085355,0.334644,0.100000,0.299289,0.100000,-0.350000,0.085355,-0.385355,0.050000,-0.400000,-0.050000,-0.400000,-0.085355,-0.385355,-0.100000,-0.350000,-0.100000,0.350000,-0.085355,0.385355,-0.050000,0.400000,-0.000711,0.400000,0.034644,0.385355,0.034644,0.385355,$1*%
%AMFreePoly4*
4,1,14,0.385355,0.085355,0.400000,0.050000,0.400000,-0.050000,0.385355,-0.085355,0.350000,-0.100000,-0.299289,-0.100000,-0.334644,-0.085355,-0.385355,-0.034644,-0.400000,0.000711,-0.400000,0.050000,-0.385355,0.085355,-0.350000,0.100000,0.350000,0.100000,0.385355,0.085355,0.385355,0.085355,$1*%
%AMFreePoly5*
4,1,14,0.385355,0.085355,0.400000,0.050000,0.400000,-0.050000,0.385355,-0.085355,0.350000,-0.100000,-0.350000,-0.100000,-0.385355,-0.085355,-0.400000,-0.050000,-0.400000,-0.000711,-0.385355,0.034644,-0.334644,0.085355,-0.299289,0.100000,0.350000,0.100000,0.385355,0.085355,0.385355,0.085355,$1*%
%AMFreePoly6*
4,1,14,0.085355,0.385355,0.100000,0.350000,0.100000,-0.299289,0.085355,-0.334644,0.034644,-0.385355,-0.000711,-0.400000,-0.050000,-0.400000,-0.085355,-0.385355,-0.100000,-0.350000,-0.100000,0.350000,-0.085355,0.385355,-0.050000,0.400000,0.050000,0.400000,0.085355,0.385355,0.085355,0.385355,$1*%
%AMFreePoly7*
4,1,14,0.085355,0.385355,0.100000,0.350000,0.100000,-0.350000,0.085355,-0.385355,0.050000,-0.400000,0.000711,-0.400000,-0.034644,-0.385355,-0.085355,-0.334644,-0.100000,-0.299289,-0.100000,0.350000,-0.085355,0.385355,-0.050000,0.400000,0.050000,0.400000,0.085355,0.385355,0.085355,0.385355,$1*%
%AMFreePoly8*
4,1,9,3.862500,-0.866500,0.737500,-0.866500,0.737500,-0.450000,-0.737500,-0.450000,-0.737500,0.450000,0.737500,0.450000,0.737500,0.866500,3.862500,0.866500,3.862500,-0.866500,3.862500,-0.866500,$1*%
G04 Aperture macros list end*
%ADD10C,0.300000*%
%TA.AperFunction,NonConductor*%
%ADD11C,0.300000*%
%TD*%
%TA.AperFunction,NonConductor*%
%ADD12C,0.200000*%
%TD*%
%TA.AperFunction,SMDPad,CuDef*%
%ADD13RoundRect,0.218750X-0.256250X0.218750X-0.256250X-0.218750X0.256250X-0.218750X0.256250X0.218750X0*%
%TD*%
%TA.AperFunction,SMDPad,CuDef*%
%ADD14RoundRect,0.225000X-0.225000X-0.250000X0.225000X-0.250000X0.225000X0.250000X-0.225000X0.250000X0*%
%TD*%
%TA.AperFunction,SMDPad,CuDef*%
%ADD15RoundRect,0.225000X0.225000X0.250000X-0.225000X0.250000X-0.225000X-0.250000X0.225000X-0.250000X0*%
%TD*%
%TA.AperFunction,SMDPad,CuDef*%
%ADD16RoundRect,0.150000X-0.750000X-0.150000X0.750000X-0.150000X0.750000X0.150000X-0.750000X0.150000X0*%
%TD*%
%TA.AperFunction,SMDPad,CuDef*%
%ADD17R,1.240000X0.600000*%
%TD*%
%TA.AperFunction,SMDPad,CuDef*%
%ADD18R,1.240000X0.300000*%
%TD*%
%TA.AperFunction,ComponentPad*%
%ADD19O,2.100000X1.000000*%
%TD*%
%TA.AperFunction,ComponentPad*%
%ADD20O,1.800000X1.000000*%
%TD*%
%TA.AperFunction,SMDPad,CuDef*%
%ADD21FreePoly0,270.000000*%
%TD*%
%TA.AperFunction,SMDPad,CuDef*%
%ADD22RoundRect,0.050000X-0.050000X0.350000X-0.050000X-0.350000X0.050000X-0.350000X0.050000X0.350000X0*%
%TD*%
%TA.AperFunction,SMDPad,CuDef*%
%ADD23FreePoly1,270.000000*%
%TD*%
%TA.AperFunction,SMDPad,CuDef*%
%ADD24FreePoly2,270.000000*%
%TD*%
%TA.AperFunction,SMDPad,CuDef*%
%ADD25RoundRect,0.050000X-0.350000X0.050000X-0.350000X-0.050000X0.350000X-0.050000X0.350000X0.050000X0*%
%TD*%
%TA.AperFunction,SMDPad,CuDef*%
%ADD26FreePoly3,270.000000*%
%TD*%
%TA.AperFunction,SMDPad,CuDef*%
%ADD27FreePoly4,270.000000*%
%TD*%
%TA.AperFunction,SMDPad,CuDef*%
%ADD28FreePoly5,270.000000*%
%TD*%
%TA.AperFunction,SMDPad,CuDef*%
%ADD29FreePoly6,270.000000*%
%TD*%
%TA.AperFunction,SMDPad,CuDef*%
%ADD30FreePoly7,270.000000*%
%TD*%
%TA.AperFunction,HeatsinkPad*%
%ADD31R,1.700000X1.700000*%
%TD*%
%TA.AperFunction,SMDPad,CuDef*%
%ADD32RoundRect,0.200000X0.200000X0.275000X-0.200000X0.275000X-0.200000X-0.275000X0.200000X-0.275000X0*%
%TD*%
%TA.AperFunction,SMDPad,CuDef*%
%ADD33RoundRect,0.200000X-0.200000X-0.275000X0.200000X-0.275000X0.200000X0.275000X-0.200000X0.275000X0*%
%TD*%
%TA.AperFunction,SMDPad,CuDef*%
%ADD34RoundRect,0.137500X0.662500X0.137500X-0.662500X0.137500X-0.662500X-0.137500X0.662500X-0.137500X0*%
%TD*%
%TA.AperFunction,SMDPad,CuDef*%
%ADD35RoundRect,0.225000X0.250000X-0.225000X0.250000X0.225000X-0.250000X0.225000X-0.250000X-0.225000X0*%
%TD*%
%TA.AperFunction,SMDPad,CuDef*%
%ADD36RoundRect,0.112500X-0.112500X0.187500X-0.112500X-0.187500X0.112500X-0.187500X0.112500X0.187500X0*%
%TD*%
%TA.AperFunction,SMDPad,CuDef*%
%ADD37RoundRect,0.218750X0.218750X0.256250X-0.218750X0.256250X-0.218750X-0.256250X0.218750X-0.256250X0*%
%TD*%
%TA.AperFunction,SMDPad,CuDef*%
%ADD38RoundRect,0.218750X-0.218750X-0.381250X0.218750X-0.381250X0.218750X0.381250X-0.218750X0.381250X0*%
%TD*%
%TA.AperFunction,SMDPad,CuDef*%
%ADD39RoundRect,0.225000X0.225000X-0.425000X0.225000X0.425000X-0.225000X0.425000X-0.225000X-0.425000X0*%
%TD*%
%TA.AperFunction,SMDPad,CuDef*%
%ADD40FreePoly8,90.000000*%
%TD*%
%TA.AperFunction,SMDPad,CuDef*%
%ADD41R,0.400000X1.200000*%
%TD*%
%TA.AperFunction,SMDPad,CuDef*%
%ADD42RoundRect,0.200000X-0.275000X0.200000X-0.275000X-0.200000X0.275000X-0.200000X0.275000X0.200000X0*%
%TD*%
%TA.AperFunction,ComponentPad*%
%ADD43R,1.700000X1.700000*%
%TD*%
%TA.AperFunction,ComponentPad*%
%ADD44O,1.700000X1.700000*%
%TD*%
%TA.AperFunction,SMDPad,CuDef*%
%ADD45RoundRect,0.225000X-0.250000X0.225000X-0.250000X-0.225000X0.250000X-0.225000X0.250000X0.225000X0*%
%TD*%
%TA.AperFunction,SMDPad,CuDef*%
%ADD46RoundRect,0.112500X-0.187500X-0.112500X0.187500X-0.112500X0.187500X0.112500X-0.187500X0.112500X0*%
%TD*%
%TA.AperFunction,SMDPad,CuDef*%
%ADD47RoundRect,0.112500X0.112500X-0.187500X0.112500X0.187500X-0.112500X0.187500X-0.112500X-0.187500X0*%
%TD*%
%TA.AperFunction,SMDPad,CuDef*%
%ADD48RoundRect,0.218750X0.256250X-0.218750X0.256250X0.218750X-0.256250X0.218750X-0.256250X-0.218750X0*%
%TD*%
%TA.AperFunction,ComponentPad*%
%ADD49C,2.100000*%
%TD*%
%TA.AperFunction,ComponentPad*%
%ADD50R,2.100000X2.100000*%
%TD*%
%TA.AperFunction,ViaPad*%
%ADD51C,0.600000*%
%TD*%
%TA.AperFunction,ViaPad*%
%ADD52C,5.560000*%
%TD*%
%TA.AperFunction,Conductor*%
%ADD53C,0.400000*%
%TD*%
%TA.AperFunction,Conductor*%
%ADD54C,0.200000*%
%TD*%
%TA.AperFunction,Conductor*%
%ADD55C,0.152400*%
%TD*%
G04 APERTURE END LIST*
D10*
D11*
X181027448Y-73626016D02*
X181027983Y-72697444D01*
X181027983Y-72697444D02*
X181599124Y-73197773D01*
X181599124Y-73197773D02*
X181599247Y-72983488D01*
X181599247Y-72983488D02*
X181670758Y-72840672D01*
X181670758Y-72840672D02*
X181742227Y-72769284D01*
X181742227Y-72769284D02*
X181885126Y-72697938D01*
X181885126Y-72697938D02*
X182242268Y-72698143D01*
X182242268Y-72698143D02*
X182385084Y-72769654D01*
X182385084Y-72769654D02*
X182456472Y-72841124D01*
X182456472Y-72841124D02*
X182527818Y-72984022D01*
X182527818Y-72984022D02*
X182527572Y-73412593D01*
X182527572Y-73412593D02*
X182456061Y-73555409D01*
X182456061Y-73555409D02*
X182384591Y-73626797D01*
X181528723Y-71412019D02*
X182528723Y-71412594D01*
X180957089Y-71768832D02*
X182028312Y-72126592D01*
X182028312Y-72126592D02*
X182028846Y-71198021D01*
X182386318Y-70626798D02*
X182457787Y-70555411D01*
X182457787Y-70555411D02*
X182529175Y-70626880D01*
X182529175Y-70626880D02*
X182457705Y-70698268D01*
X182457705Y-70698268D02*
X182386318Y-70626798D01*
X182386318Y-70626798D02*
X182529175Y-70626880D01*
X181029504Y-70054588D02*
X181030079Y-69054588D01*
X181030079Y-69054588D02*
X182529709Y-69698309D01*
X181030819Y-67768875D02*
X181030408Y-68483160D01*
X181030408Y-68483160D02*
X181744653Y-68555000D01*
X181744653Y-68555000D02*
X181673265Y-68483530D01*
X181673265Y-68483530D02*
X181601919Y-68340632D01*
X181601919Y-68340632D02*
X181602125Y-67983489D01*
X181602125Y-67983489D02*
X181673635Y-67840673D01*
X181673635Y-67840673D02*
X181745105Y-67769286D01*
X181745105Y-67769286D02*
X181888003Y-67697940D01*
X181888003Y-67697940D02*
X182245146Y-67698145D01*
X182245146Y-67698145D02*
X182387962Y-67769656D01*
X182387962Y-67769656D02*
X182459350Y-67841126D01*
X182459350Y-67841126D02*
X182530696Y-67984024D01*
X182530696Y-67984024D02*
X182530490Y-68341167D01*
X182530490Y-68341167D02*
X182458980Y-68483983D01*
X182458980Y-68483983D02*
X182387510Y-68555370D01*
X181031395Y-66768875D02*
X181031477Y-66626018D01*
X181031477Y-66626018D02*
X181102988Y-66483202D01*
X181102988Y-66483202D02*
X181174458Y-66411815D01*
X181174458Y-66411815D02*
X181317356Y-66340469D01*
X181317356Y-66340469D02*
X181603111Y-66269204D01*
X181603111Y-66269204D02*
X181960254Y-66269410D01*
X181960254Y-66269410D02*
X182245927Y-66341003D01*
X182245927Y-66341003D02*
X182388743Y-66412514D01*
X182388743Y-66412514D02*
X182460131Y-66483983D01*
X182460131Y-66483983D02*
X182531477Y-66626882D01*
X182531477Y-66626882D02*
X182531395Y-66769739D01*
X182531395Y-66769739D02*
X182459884Y-66912555D01*
X182459884Y-66912555D02*
X182388414Y-66983942D01*
X182388414Y-66983942D02*
X182245516Y-67055289D01*
X182245516Y-67055289D02*
X181959761Y-67126553D01*
X181959761Y-67126553D02*
X181602618Y-67126347D01*
X181602618Y-67126347D02*
X181316945Y-67054754D01*
X181316945Y-67054754D02*
X181174129Y-66983243D01*
X181174129Y-66983243D02*
X181102741Y-66911774D01*
X181102741Y-66911774D02*
X181031395Y-66768875D01*
X181032217Y-65340305D02*
X181032299Y-65197448D01*
X181032299Y-65197448D02*
X181103810Y-65054632D01*
X181103810Y-65054632D02*
X181175280Y-64983244D01*
X181175280Y-64983244D02*
X181318178Y-64911898D01*
X181318178Y-64911898D02*
X181603933Y-64840634D01*
X181603933Y-64840634D02*
X181961076Y-64840839D01*
X181961076Y-64840839D02*
X182246749Y-64912432D01*
X182246749Y-64912432D02*
X182389565Y-64983943D01*
X182389565Y-64983943D02*
X182460953Y-65055413D01*
X182460953Y-65055413D02*
X182532299Y-65198311D01*
X182532299Y-65198311D02*
X182532217Y-65341168D01*
X182532217Y-65341168D02*
X182460706Y-65483984D01*
X182460706Y-65483984D02*
X182389236Y-65555371D01*
X182389236Y-65555371D02*
X182246338Y-65626718D01*
X182246338Y-65626718D02*
X181960583Y-65697982D01*
X181960583Y-65697982D02*
X181603440Y-65697776D01*
X181603440Y-65697776D02*
X181317767Y-65626183D01*
X181317767Y-65626183D02*
X181174951Y-65554673D01*
X181174951Y-65554673D02*
X181103564Y-65483203D01*
X181103564Y-65483203D02*
X181032217Y-65340305D01*
X182533532Y-63055455D02*
X181533533Y-63054879D01*
X181676390Y-63054961D02*
X181605002Y-62983492D01*
X181605002Y-62983492D02*
X181533656Y-62840593D01*
X181533656Y-62840593D02*
X181533779Y-62626308D01*
X181533779Y-62626308D02*
X181605290Y-62483492D01*
X181605290Y-62483492D02*
X181748188Y-62412145D01*
X181748188Y-62412145D02*
X182533902Y-62412598D01*
X181748188Y-62412145D02*
X181605372Y-62340635D01*
X181605372Y-62340635D02*
X181534026Y-62197736D01*
X181534026Y-62197736D02*
X181534149Y-61983451D01*
X181534149Y-61983451D02*
X181605660Y-61840635D01*
X181605660Y-61840635D02*
X181748558Y-61769288D01*
X181748558Y-61769288D02*
X182534272Y-61769741D01*
X182534684Y-61055455D02*
X181534684Y-61054879D01*
X181677541Y-61054962D02*
X181606153Y-60983492D01*
X181606153Y-60983492D02*
X181534807Y-60840594D01*
X181534807Y-60840594D02*
X181534930Y-60626308D01*
X181534930Y-60626308D02*
X181606441Y-60483492D01*
X181606441Y-60483492D02*
X181749339Y-60412146D01*
X181749339Y-60412146D02*
X182535054Y-60412598D01*
X181749339Y-60412146D02*
X181606523Y-60340635D01*
X181606523Y-60340635D02*
X181535177Y-60197737D01*
X181535177Y-60197737D02*
X181535300Y-59983451D01*
X181535300Y-59983451D02*
X181606811Y-59840635D01*
X181606811Y-59840635D02*
X181749709Y-59769289D01*
X181749709Y-59769289D02*
X182535424Y-59769741D01*
D12*
X179770000Y-49250288D02*
X184249569Y-49252866D01*
X179750000Y-84000288D02*
X184229569Y-84002866D01*
X183663149Y-49252528D02*
X183643149Y-84002528D01*
X183663149Y-49252528D02*
X183643149Y-84002528D01*
X183663149Y-49252528D02*
X184248921Y-50379369D01*
X183663149Y-49252528D02*
X183076080Y-50378694D01*
X183643149Y-84002528D02*
X183057377Y-82875687D01*
X183643149Y-84002528D02*
X184230218Y-82876362D01*
D10*
D11*
X149660716Y-43878328D02*
X149660716Y-44878328D01*
X149303573Y-43306900D02*
X148946430Y-44378328D01*
X148946430Y-44378328D02*
X149875001Y-44378328D01*
X151089287Y-43378328D02*
X150803572Y-43378328D01*
X150803572Y-43378328D02*
X150660715Y-43449757D01*
X150660715Y-43449757D02*
X150589287Y-43521185D01*
X150589287Y-43521185D02*
X150446429Y-43735471D01*
X150446429Y-43735471D02*
X150375001Y-44021185D01*
X150375001Y-44021185D02*
X150375001Y-44592614D01*
X150375001Y-44592614D02*
X150446429Y-44735471D01*
X150446429Y-44735471D02*
X150517858Y-44806900D01*
X150517858Y-44806900D02*
X150660715Y-44878328D01*
X150660715Y-44878328D02*
X150946429Y-44878328D01*
X150946429Y-44878328D02*
X151089287Y-44806900D01*
X151089287Y-44806900D02*
X151160715Y-44735471D01*
X151160715Y-44735471D02*
X151232144Y-44592614D01*
X151232144Y-44592614D02*
X151232144Y-44235471D01*
X151232144Y-44235471D02*
X151160715Y-44092614D01*
X151160715Y-44092614D02*
X151089287Y-44021185D01*
X151089287Y-44021185D02*
X150946429Y-43949757D01*
X150946429Y-43949757D02*
X150660715Y-43949757D01*
X150660715Y-43949757D02*
X150517858Y-44021185D01*
X150517858Y-44021185D02*
X150446429Y-44092614D01*
X150446429Y-44092614D02*
X150375001Y-44235471D01*
X151875000Y-44735471D02*
X151946429Y-44806900D01*
X151946429Y-44806900D02*
X151875000Y-44878328D01*
X151875000Y-44878328D02*
X151803572Y-44806900D01*
X151803572Y-44806900D02*
X151875000Y-44735471D01*
X151875000Y-44735471D02*
X151875000Y-44878328D01*
X152446429Y-43378328D02*
X153446429Y-43378328D01*
X153446429Y-43378328D02*
X152803572Y-44878328D01*
X154732143Y-43378328D02*
X154017857Y-43378328D01*
X154017857Y-43378328D02*
X153946429Y-44092614D01*
X153946429Y-44092614D02*
X154017857Y-44021185D01*
X154017857Y-44021185D02*
X154160715Y-43949757D01*
X154160715Y-43949757D02*
X154517857Y-43949757D01*
X154517857Y-43949757D02*
X154660715Y-44021185D01*
X154660715Y-44021185D02*
X154732143Y-44092614D01*
X154732143Y-44092614D02*
X154803572Y-44235471D01*
X154803572Y-44235471D02*
X154803572Y-44592614D01*
X154803572Y-44592614D02*
X154732143Y-44735471D01*
X154732143Y-44735471D02*
X154660715Y-44806900D01*
X154660715Y-44806900D02*
X154517857Y-44878328D01*
X154517857Y-44878328D02*
X154160715Y-44878328D01*
X154160715Y-44878328D02*
X154017857Y-44806900D01*
X154017857Y-44806900D02*
X153946429Y-44735471D01*
X155732143Y-43378328D02*
X155875000Y-43378328D01*
X155875000Y-43378328D02*
X156017857Y-43449757D01*
X156017857Y-43449757D02*
X156089286Y-43521185D01*
X156089286Y-43521185D02*
X156160714Y-43664042D01*
X156160714Y-43664042D02*
X156232143Y-43949757D01*
X156232143Y-43949757D02*
X156232143Y-44306900D01*
X156232143Y-44306900D02*
X156160714Y-44592614D01*
X156160714Y-44592614D02*
X156089286Y-44735471D01*
X156089286Y-44735471D02*
X156017857Y-44806900D01*
X156017857Y-44806900D02*
X155875000Y-44878328D01*
X155875000Y-44878328D02*
X155732143Y-44878328D01*
X155732143Y-44878328D02*
X155589286Y-44806900D01*
X155589286Y-44806900D02*
X155517857Y-44735471D01*
X155517857Y-44735471D02*
X155446428Y-44592614D01*
X155446428Y-44592614D02*
X155375000Y-44306900D01*
X155375000Y-44306900D02*
X155375000Y-43949757D01*
X155375000Y-43949757D02*
X155446428Y-43664042D01*
X155446428Y-43664042D02*
X155517857Y-43521185D01*
X155517857Y-43521185D02*
X155589286Y-43449757D01*
X155589286Y-43449757D02*
X155732143Y-43378328D01*
X157160714Y-43378328D02*
X157303571Y-43378328D01*
X157303571Y-43378328D02*
X157446428Y-43449757D01*
X157446428Y-43449757D02*
X157517857Y-43521185D01*
X157517857Y-43521185D02*
X157589285Y-43664042D01*
X157589285Y-43664042D02*
X157660714Y-43949757D01*
X157660714Y-43949757D02*
X157660714Y-44306900D01*
X157660714Y-44306900D02*
X157589285Y-44592614D01*
X157589285Y-44592614D02*
X157517857Y-44735471D01*
X157517857Y-44735471D02*
X157446428Y-44806900D01*
X157446428Y-44806900D02*
X157303571Y-44878328D01*
X157303571Y-44878328D02*
X157160714Y-44878328D01*
X157160714Y-44878328D02*
X157017857Y-44806900D01*
X157017857Y-44806900D02*
X156946428Y-44735471D01*
X156946428Y-44735471D02*
X156874999Y-44592614D01*
X156874999Y-44592614D02*
X156803571Y-44306900D01*
X156803571Y-44306900D02*
X156803571Y-43949757D01*
X156803571Y-43949757D02*
X156874999Y-43664042D01*
X156874999Y-43664042D02*
X156946428Y-43521185D01*
X156946428Y-43521185D02*
X157017857Y-43449757D01*
X157017857Y-43449757D02*
X157160714Y-43378328D01*
X159446427Y-44878328D02*
X159446427Y-43878328D01*
X159446427Y-44021185D02*
X159517856Y-43949757D01*
X159517856Y-43949757D02*
X159660713Y-43878328D01*
X159660713Y-43878328D02*
X159874999Y-43878328D01*
X159874999Y-43878328D02*
X160017856Y-43949757D01*
X160017856Y-43949757D02*
X160089285Y-44092614D01*
X160089285Y-44092614D02*
X160089285Y-44878328D01*
X160089285Y-44092614D02*
X160160713Y-43949757D01*
X160160713Y-43949757D02*
X160303570Y-43878328D01*
X160303570Y-43878328D02*
X160517856Y-43878328D01*
X160517856Y-43878328D02*
X160660713Y-43949757D01*
X160660713Y-43949757D02*
X160732142Y-44092614D01*
X160732142Y-44092614D02*
X160732142Y-44878328D01*
X161446427Y-44878328D02*
X161446427Y-43878328D01*
X161446427Y-44021185D02*
X161517856Y-43949757D01*
X161517856Y-43949757D02*
X161660713Y-43878328D01*
X161660713Y-43878328D02*
X161874999Y-43878328D01*
X161874999Y-43878328D02*
X162017856Y-43949757D01*
X162017856Y-43949757D02*
X162089285Y-44092614D01*
X162089285Y-44092614D02*
X162089285Y-44878328D01*
X162089285Y-44092614D02*
X162160713Y-43949757D01*
X162160713Y-43949757D02*
X162303570Y-43878328D01*
X162303570Y-43878328D02*
X162517856Y-43878328D01*
X162517856Y-43878328D02*
X162660713Y-43949757D01*
X162660713Y-43949757D02*
X162732142Y-44092614D01*
X162732142Y-44092614D02*
X162732142Y-44878328D01*
D12*
X132500000Y-48750000D02*
X132500000Y-45413580D01*
X179250000Y-48750000D02*
X179250000Y-45413580D01*
X132500000Y-46000000D02*
X179250000Y-46000000D01*
X132500000Y-46000000D02*
X179250000Y-46000000D01*
X132500000Y-46000000D02*
X133626504Y-45413579D01*
X132500000Y-46000000D02*
X133626504Y-46586421D01*
X179250000Y-46000000D02*
X178123496Y-46586421D01*
X179250000Y-46000000D02*
X178123496Y-45413579D01*
D13*
%TO.P,D9,1,K*%
%TO.N,Net-(D9-K)*%
X154000000Y-67500000D03*
%TO.P,D9,2,A*%
%TO.N,/LED*%
X154000000Y-69075000D03*
%TD*%
D14*
%TO.P,C2,1*%
%TO.N,/5V*%
X163995000Y-58000000D03*
%TO.P,C2,2*%
%TO.N,GND*%
X165545000Y-58000000D03*
%TD*%
D15*
%TO.P,C4,1*%
%TO.N,Net-(D10-K)*%
X169275000Y-56500000D03*
%TO.P,C4,2*%
%TO.N,GND*%
X167725000Y-56500000D03*
%TD*%
D16*
%TO.P,U4,1*%
%TO.N,Net-(R3-Pad2)*%
X163600000Y-75230000D03*
%TO.P,U4,2*%
%TO.N,GND*%
X163600000Y-77770000D03*
%TO.P,U4,3*%
%TO.N,Net-(J1-Pin_10)*%
X169900000Y-77770000D03*
%TO.P,U4,4*%
%TO.N,Net-(J1-Pin_9)*%
X169900000Y-75230000D03*
%TD*%
D17*
%TO.P,J3,A1,GND*%
%TO.N,GND*%
X140300000Y-53620000D03*
%TO.P,J3,A4,VBUS*%
%TO.N,Net-(FB1-Pad1)*%
X140300000Y-54420000D03*
D18*
%TO.P,J3,A5,CC1*%
%TO.N,Net-(J3-CC1)*%
X140300000Y-55570000D03*
%TO.P,J3,A6,D+*%
%TO.N,Net-(D11-K)*%
X140300000Y-56570000D03*
%TO.P,J3,A7,D-*%
%TO.N,Net-(D12-K)*%
X140300000Y-57070000D03*
%TO.P,J3,A8,SBU1*%
%TO.N,unconnected-(J3-SBU1-PadA8)*%
X140300000Y-58070000D03*
D17*
%TO.P,J3,A9,VBUS*%
%TO.N,Net-(FB1-Pad1)*%
X140300000Y-59220000D03*
%TO.P,J3,A12,GND*%
%TO.N,GND*%
X140300000Y-60020000D03*
%TO.P,J3,B1,GND*%
X140300000Y-60020000D03*
%TO.P,J3,B4,VBUS*%
%TO.N,Net-(FB1-Pad1)*%
X140300000Y-59220000D03*
D18*
%TO.P,J3,B5,CC2*%
%TO.N,Net-(J3-CC2)*%
X140300000Y-58570000D03*
%TO.P,J3,B6,D+*%
%TO.N,Net-(D11-K)*%
X140300000Y-57570000D03*
%TO.P,J3,B7,D-*%
%TO.N,Net-(D12-K)*%
X140300000Y-56070000D03*
%TO.P,J3,B8,SBU2*%
%TO.N,unconnected-(J3-SBU2-PadB8)*%
X140300000Y-55070000D03*
D17*
%TO.P,J3,B9,VBUS*%
%TO.N,Net-(FB1-Pad1)*%
X140300000Y-54420000D03*
%TO.P,J3,B12,GND*%
%TO.N,GND*%
X140300000Y-53620000D03*
D19*
%TO.P,J3,S1,SHIELD*%
X139700000Y-52500000D03*
D20*
X135500000Y-52500000D03*
D19*
X139700000Y-61140000D03*
D20*
X135500000Y-61140000D03*
%TD*%
D21*
%TO.P,U9,1,PA2*%
%TO.N,/CTS\u005C*%
X152500000Y-70600000D03*
D22*
%TO.P,U9,2,PA3*%
%TO.N,/LED*%
X152100000Y-70600000D03*
%TO.P,U9,3,GND*%
%TO.N,GND*%
X151700000Y-70600000D03*
%TO.P,U9,4,VCC*%
%TO.N,/5V*%
X151300000Y-70600000D03*
D23*
%TO.P,U9,5,PA4*%
%TO.N,/X1*%
X150900000Y-70600000D03*
D24*
%TO.P,U9,6,PA5*%
%TO.N,/X2*%
X150250000Y-71250000D03*
D25*
%TO.P,U9,7,PA6*%
%TO.N,/X3*%
X150250000Y-71650000D03*
%TO.P,U9,8,PA7*%
%TO.N,/X4*%
X150250000Y-72050000D03*
%TO.P,U9,9,PB5*%
%TO.N,/X5*%
X150250000Y-72450000D03*
D26*
%TO.P,U9,10,PB4*%
%TO.N,/X6*%
X150250000Y-72850000D03*
D27*
%TO.P,U9,11,PB3*%
%TO.N,/RXD_M*%
X150900000Y-73500000D03*
D22*
%TO.P,U9,12,PB2*%
%TO.N,/TXD_M*%
X151300000Y-73500000D03*
%TO.P,U9,13,PB1*%
%TO.N,unconnected-(U9-PB1-Pad13)*%
X151700000Y-73500000D03*
%TO.P,U9,14,PB0*%
%TO.N,/SEQ4*%
X152100000Y-73500000D03*
D28*
%TO.P,U9,15,PC0*%
%TO.N,/SEQ3*%
X152500000Y-73500000D03*
D29*
%TO.P,U9,16,PC1*%
%TO.N,/SEQ2*%
X153150000Y-72850000D03*
D25*
%TO.P,U9,17,PC2*%
%TO.N,/SEQ1*%
X153150000Y-72450000D03*
%TO.P,U9,18,PC3*%
%TO.N,/KEY_M*%
X153150000Y-72050000D03*
%TO.P,U9,19,~{RESET}/PA0*%
%TO.N,/UPDI*%
X153150000Y-71650000D03*
D30*
%TO.P,U9,20,PA1*%
%TO.N,/RTS\u005C*%
X153150000Y-71250000D03*
D31*
%TO.P,U9,21,GND*%
%TO.N,GND*%
X151700000Y-72050000D03*
%TD*%
D32*
%TO.P,R20,1*%
%TO.N,Net-(D5-K)*%
X171075000Y-64000000D03*
%TO.P,R20,2*%
%TO.N,Net-(R20-Pad2)*%
X169425000Y-64000000D03*
%TD*%
D14*
%TO.P,C9,1*%
%TO.N,/5V*%
X150725000Y-68500000D03*
%TO.P,C9,2*%
%TO.N,GND*%
X152275000Y-68500000D03*
%TD*%
D33*
%TO.P,R19,1*%
%TO.N,GND*%
X134500000Y-50500000D03*
%TO.P,R19,2*%
%TO.N,Net-(J3-CC2)*%
X136150000Y-50500000D03*
%TD*%
D16*
%TO.P,U5,1*%
%TO.N,Net-(R4-Pad2)*%
X163600000Y-79980000D03*
%TO.P,U5,2*%
%TO.N,GND*%
X163600000Y-82520000D03*
%TO.P,U5,3*%
%TO.N,Net-(J1-Pin_12)*%
X169900000Y-82520000D03*
%TO.P,U5,4*%
%TO.N,Net-(J1-Pin_11)*%
X169900000Y-79980000D03*
%TD*%
D32*
%TO.P,R17,1*%
%TO.N,Net-(D9-K)*%
X154000000Y-66000000D03*
%TO.P,R17,2*%
%TO.N,GND*%
X152350000Y-66000000D03*
%TD*%
D34*
%TO.P,U8,1*%
%TO.N,Net-(R20-Pad2)*%
X167250000Y-63770000D03*
%TO.P,U8,3*%
%TO.N,/KEY-*%
X167250000Y-61230000D03*
%TO.P,U8,4*%
%TO.N,GND*%
X160750000Y-61230000D03*
%TO.P,U8,6*%
%TO.N,/KEY_M*%
X160750000Y-63770000D03*
%TD*%
D33*
%TO.P,R6,1*%
%TO.N,/SEQ2*%
X159675000Y-71500000D03*
%TO.P,R6,2*%
%TO.N,Net-(D2-A)*%
X161325000Y-71500000D03*
%TD*%
D35*
%TO.P,C1,1*%
%TO.N,Net-(D12-K)*%
X143325000Y-56275000D03*
%TO.P,C1,2*%
%TO.N,GND*%
X143325000Y-54725000D03*
%TD*%
D32*
%TO.P,R18,1*%
%TO.N,GND*%
X139650000Y-50500000D03*
%TO.P,R18,2*%
%TO.N,Net-(J3-CC1)*%
X138000000Y-50500000D03*
%TD*%
D36*
%TO.P,D11,1,K*%
%TO.N,Net-(D11-K)*%
X145500000Y-57450000D03*
%TO.P,D11,2,A*%
%TO.N,GND*%
X145500000Y-59550000D03*
%TD*%
D37*
%TO.P,D3,1,K*%
%TO.N,GND*%
X161287500Y-78000000D03*
%TO.P,D3,2,A*%
%TO.N,Net-(D3-A)*%
X159712500Y-78000000D03*
%TD*%
D33*
%TO.P,R1,1*%
%TO.N,/SEQ1*%
X159675000Y-65500000D03*
%TO.P,R1,2*%
%TO.N,Net-(R1-Pad2)*%
X161325000Y-65500000D03*
%TD*%
D13*
%TO.P,D8,1,K*%
%TO.N,Net-(D8-K)*%
X156000000Y-51425000D03*
%TO.P,D8,2,A*%
%TO.N,/5V*%
X156000000Y-53000000D03*
%TD*%
D38*
%TO.P,FB1,1*%
%TO.N,Net-(FB1-Pad1)*%
X142437500Y-62000000D03*
%TO.P,FB1,2*%
%TO.N,/5V*%
X144562500Y-62000000D03*
%TD*%
D37*
%TO.P,D7,1,K*%
%TO.N,Net-(D7-K)*%
X158787500Y-61500000D03*
%TO.P,D7,2,A*%
%TO.N,/5V*%
X157212500Y-61500000D03*
%TD*%
%TO.P,D6,1,K*%
%TO.N,GND*%
X145575000Y-51500000D03*
%TO.P,D6,2,A*%
%TO.N,Net-(D6-A)*%
X144000000Y-51500000D03*
%TD*%
D39*
%TO.P,U6,1,OUT*%
%TO.N,/5V*%
X165000000Y-54700000D03*
D40*
%TO.P,U6,2,GND*%
%TO.N,GND*%
X166500000Y-54612500D03*
D39*
%TO.P,U6,3,IN*%
%TO.N,Net-(D10-K)*%
X168000000Y-54700000D03*
%TD*%
D32*
%TO.P,R16,1*%
%TO.N,/TXLED{slash}*%
X159325000Y-51250000D03*
%TO.P,R16,2*%
%TO.N,Net-(D8-K)*%
X157675000Y-51250000D03*
%TD*%
D33*
%TO.P,R15,1*%
%TO.N,/RXLED{slash}*%
X157175000Y-63000000D03*
%TO.P,R15,2*%
%TO.N,Net-(D7-K)*%
X158825000Y-63000000D03*
%TD*%
%TO.P,R8,1*%
%TO.N,/SEQ4*%
X159675000Y-81000000D03*
%TO.P,R8,2*%
%TO.N,Net-(D4-A)*%
X161325000Y-81000000D03*
%TD*%
D32*
%TO.P,R14,1*%
%TO.N,/D+M*%
X152825000Y-58000000D03*
%TO.P,R14,2*%
%TO.N,Net-(D11-K)*%
X151175000Y-58000000D03*
%TD*%
D41*
%TO.P,U7,1,TXD*%
%TO.N,/TXD_U*%
X162281814Y-52959314D03*
%TO.P,U7,2,~{RTS}*%
%TO.N,/RTS\u005C*%
X161646814Y-52959314D03*
%TO.P,U7,3,VCCIO*%
%TO.N,/3V3*%
X161011814Y-52959314D03*
%TO.P,U7,4,RXD*%
%TO.N,/RXD_U*%
X160376814Y-52959314D03*
%TO.P,U7,5,GND*%
%TO.N,GND*%
X159741814Y-52959314D03*
%TO.P,U7,6,~{CTS}*%
%TO.N,/CTS\u005C*%
X159106814Y-52959314D03*
%TO.P,U7,7,CBUS2*%
%TO.N,/TXLED{slash}*%
X158471814Y-52959314D03*
%TO.P,U7,8,USBDP*%
%TO.N,/D+M*%
X157836814Y-52959314D03*
%TO.P,U7,9,USBDM*%
%TO.N,/D-M*%
X157836814Y-58159314D03*
%TO.P,U7,10,3V3OUT*%
%TO.N,/3V3*%
X158471814Y-58159314D03*
%TO.P,U7,11,~{RESET}*%
X159106814Y-58159314D03*
%TO.P,U7,12,VCC*%
%TO.N,/5V*%
X159741814Y-58159314D03*
%TO.P,U7,13,GND*%
%TO.N,GND*%
X160376814Y-58159314D03*
%TO.P,U7,14,CBUS1*%
%TO.N,/RXLED{slash}*%
X161011814Y-58159314D03*
%TO.P,U7,15,CBUS0*%
%TO.N,/TXDEN*%
X161646814Y-58159314D03*
%TO.P,U7,16,CBUS3*%
%TO.N,/SLEEP{slash}*%
X162281814Y-58159314D03*
%TD*%
D42*
%TO.P,R9,1*%
%TO.N,/KEY+*%
X169500000Y-58675000D03*
%TO.P,R9,2*%
%TO.N,Net-(D5-K)*%
X169500000Y-60325000D03*
%TD*%
D43*
%TO.P,J4,1,Pin_1*%
%TO.N,/5V*%
X135000000Y-64260000D03*
D44*
%TO.P,J4,2,Pin_2*%
%TO.N,GND*%
X135000000Y-66800000D03*
%TO.P,J4,3,Pin_3*%
%TO.N,/X1*%
X135000000Y-69340000D03*
%TO.P,J4,4,Pin_4*%
%TO.N,/X2*%
X135000000Y-71880000D03*
%TO.P,J4,5,Pin_5*%
%TO.N,/X3*%
X135000000Y-74420000D03*
%TO.P,J4,6,Pin_6*%
%TO.N,/X4*%
X135000000Y-76960000D03*
%TO.P,J4,7,Pin_7*%
%TO.N,/X5*%
X135000000Y-79500000D03*
%TO.P,J4,8,Pin_8*%
%TO.N,/X6*%
X135000000Y-82040000D03*
%TD*%
D33*
%TO.P,R7,1*%
%TO.N,/SEQ3*%
X159675000Y-76500000D03*
%TO.P,R7,2*%
%TO.N,Net-(D3-A)*%
X161325000Y-76500000D03*
%TD*%
D45*
%TO.P,C5,1*%
%TO.N,Net-(D11-K)*%
X143325000Y-57725000D03*
%TO.P,C5,2*%
%TO.N,GND*%
X143325000Y-59275000D03*
%TD*%
D37*
%TO.P,D1,1,K*%
%TO.N,GND*%
X161287500Y-68500000D03*
%TO.P,D1,2,A*%
%TO.N,Net-(D1-A)*%
X159712500Y-68500000D03*
%TD*%
%TO.P,D4,1,K*%
%TO.N,GND*%
X161287500Y-82500000D03*
%TO.P,D4,2,A*%
%TO.N,Net-(D4-A)*%
X159712500Y-82500000D03*
%TD*%
D15*
%TO.P,C7,1*%
%TO.N,/3V3*%
X162775000Y-51250000D03*
%TO.P,C7,2*%
%TO.N,GND*%
X161225000Y-51250000D03*
%TD*%
D46*
%TO.P,D5,1,K*%
%TO.N,Net-(D5-K)*%
X168950000Y-62000000D03*
%TO.P,D5,2,A*%
%TO.N,/KEY-*%
X171050000Y-62000000D03*
%TD*%
D37*
%TO.P,D2,1,K*%
%TO.N,GND*%
X161287500Y-73000000D03*
%TO.P,D2,2,A*%
%TO.N,Net-(D2-A)*%
X159712500Y-73000000D03*
%TD*%
D33*
%TO.P,R5,1*%
%TO.N,/SEQ1*%
X159675000Y-67000000D03*
%TO.P,R5,2*%
%TO.N,Net-(D1-A)*%
X161325000Y-67000000D03*
%TD*%
%TO.P,R2,1*%
%TO.N,/SEQ2*%
X159675000Y-70000000D03*
%TO.P,R2,2*%
%TO.N,Net-(R2-Pad2)*%
X161325000Y-70000000D03*
%TD*%
D47*
%TO.P,D12,1,K*%
%TO.N,Net-(D12-K)*%
X145500000Y-56050000D03*
%TO.P,D12,2,A*%
%TO.N,GND*%
X145500000Y-53950000D03*
%TD*%
D42*
%TO.P,R10,1*%
%TO.N,Net-(D6-A)*%
X142500000Y-50850000D03*
%TO.P,R10,2*%
%TO.N,Net-(FB1-Pad1)*%
X142500000Y-52500000D03*
%TD*%
D16*
%TO.P,U2,1*%
%TO.N,Net-(R1-Pad2)*%
X163600000Y-65730000D03*
%TO.P,U2,2*%
%TO.N,GND*%
X163600000Y-68270000D03*
%TO.P,U2,3*%
%TO.N,Net-(J1-Pin_6)*%
X169900000Y-68270000D03*
%TO.P,U2,4*%
%TO.N,Net-(J1-Pin_5)*%
X169900000Y-65730000D03*
%TD*%
D14*
%TO.P,C3,1*%
%TO.N,/5V*%
X163970000Y-56500000D03*
%TO.P,C3,2*%
%TO.N,GND*%
X165520000Y-56500000D03*
%TD*%
D48*
%TO.P,D10,1,K*%
%TO.N,Net-(D10-K)*%
X170500000Y-54787500D03*
%TO.P,D10,2,A*%
%TO.N,/12V*%
X170500000Y-53212500D03*
%TD*%
D35*
%TO.P,C8,1*%
%TO.N,/5V*%
X147724962Y-59775000D03*
%TO.P,C8,2*%
%TO.N,GND*%
X147724962Y-58225000D03*
%TD*%
D32*
%TO.P,R11,1*%
%TO.N,/TXD_U*%
X156825000Y-76000000D03*
%TO.P,R11,2*%
%TO.N,/UPDI*%
X155175000Y-76000000D03*
%TD*%
D43*
%TO.P,J2,1,Pin_1*%
%TO.N,/UPDI*%
X145000000Y-81500000D03*
D44*
%TO.P,J2,2,Pin_2*%
%TO.N,/RXD_U*%
X142460000Y-81500000D03*
%TO.P,J2,3,Pin_3*%
%TO.N,/TXD_M*%
X139920000Y-81500000D03*
%TD*%
D32*
%TO.P,R13,1*%
%TO.N,/D-M*%
X152825000Y-56500000D03*
%TO.P,R13,2*%
%TO.N,Net-(D12-K)*%
X151175000Y-56500000D03*
%TD*%
D49*
%TO.P,J1,12,Pin_12*%
%TO.N,Net-(J1-Pin_12)*%
X175500000Y-81940000D03*
%TO.P,J1,11,Pin_11*%
%TO.N,Net-(J1-Pin_11)*%
X175500000Y-79400000D03*
%TO.P,J1,10,Pin_10*%
%TO.N,Net-(J1-Pin_10)*%
X175500000Y-76860000D03*
%TO.P,J1,9,Pin_9*%
%TO.N,Net-(J1-Pin_9)*%
X175500000Y-74320000D03*
%TO.P,J1,8,Pin_8*%
%TO.N,Net-(J1-Pin_8)*%
X175500000Y-71780000D03*
%TO.P,J1,7,Pin_7*%
%TO.N,Net-(J1-Pin_7)*%
X175500000Y-69240000D03*
%TO.P,J1,6,Pin_6*%
%TO.N,Net-(J1-Pin_6)*%
X175500000Y-66700000D03*
%TO.P,J1,5,Pin_5*%
%TO.N,Net-(J1-Pin_5)*%
X175500000Y-64160000D03*
%TO.P,J1,4,Pin_4*%
%TO.N,/KEY-*%
X175500000Y-61620000D03*
%TO.P,J1,3,Pin_3*%
%TO.N,/KEY+*%
X175500000Y-59080000D03*
%TO.P,J1,2,Pin_2*%
%TO.N,GND*%
X175500000Y-56540000D03*
D50*
%TO.P,J1,1,Pin_1*%
%TO.N,/12V*%
X175500000Y-54000000D03*
%TD*%
D32*
%TO.P,R12,1*%
%TO.N,/TXD_U*%
X152825000Y-76000000D03*
%TO.P,R12,2*%
%TO.N,/RXD_M*%
X151175000Y-76000000D03*
%TD*%
D16*
%TO.P,U3,1*%
%TO.N,Net-(R2-Pad2)*%
X163600000Y-70480000D03*
%TO.P,U3,2*%
%TO.N,GND*%
X163600000Y-73020000D03*
%TO.P,U3,3*%
%TO.N,Net-(J1-Pin_8)*%
X169900000Y-73020000D03*
%TO.P,U3,4*%
%TO.N,Net-(J1-Pin_7)*%
X169900000Y-70480000D03*
%TD*%
D33*
%TO.P,R3,1*%
%TO.N,/SEQ3*%
X159675000Y-75000000D03*
%TO.P,R3,2*%
%TO.N,Net-(R3-Pad2)*%
X161325000Y-75000000D03*
%TD*%
%TO.P,R4,1*%
%TO.N,/SEQ4*%
X159675000Y-79500000D03*
%TO.P,R4,2*%
%TO.N,Net-(R4-Pad2)*%
X161325000Y-79500000D03*
%TD*%
D45*
%TO.P,C6,1*%
%TO.N,/KEY+*%
X171000000Y-58725000D03*
%TO.P,C6,2*%
%TO.N,/KEY-*%
X171000000Y-60275000D03*
%TD*%
D51*
%TO.N,GND*%
X145500000Y-60500000D03*
X163600000Y-67500000D03*
X166500000Y-50250000D03*
X165000000Y-51000000D03*
X160750000Y-62500000D03*
X168000000Y-51000000D03*
X151760960Y-69454280D03*
X154500000Y-80500000D03*
X168000000Y-53250000D03*
X143325000Y-60500000D03*
X163600000Y-77000000D03*
X145500000Y-53000000D03*
X166500000Y-55850626D03*
X160376814Y-59209314D03*
X166500000Y-58000000D03*
X149000000Y-58225000D03*
X152425000Y-64500000D03*
X165000000Y-51750000D03*
D52*
X151000000Y-80500000D03*
D51*
X165000000Y-52500000D03*
X163505000Y-72250000D03*
X160500000Y-51250000D03*
X147000000Y-51500000D03*
X165750000Y-50250000D03*
X168000000Y-52500000D03*
X168000000Y-51750000D03*
X165000000Y-53250000D03*
X163500000Y-81750000D03*
X167250000Y-50250000D03*
X143325000Y-53500000D03*
D52*
X151000000Y-52750000D03*
D51*
%TO.N,/5V*%
X154366600Y-60000000D03*
X157000000Y-60000000D03*
%TO.N,/UPDI*%
X156000000Y-74576200D03*
X156000000Y-71473800D03*
%TO.N,/3V3*%
X161011814Y-56357200D03*
X161011814Y-54500000D03*
%TO.N,/D-M*%
X154891987Y-56051301D03*
X157000000Y-58159314D03*
%TO.N,Net-(FB1-Pad1)*%
X141944069Y-57624461D03*
X141919608Y-55900000D03*
%TO.N,/TXD_U*%
X157000000Y-74131000D03*
X157000000Y-71473800D03*
%TO.N,/TXD_M*%
X150000000Y-74500000D03*
X151500000Y-74500000D03*
%TO.N,/RXD_U*%
X155017565Y-74576200D03*
X155017565Y-70667565D03*
%TD*%
D53*
%TO.N,Net-(J1-Pin_10)*%
X169900000Y-77770000D02*
X171480000Y-77770000D01*
X171480000Y-77770000D02*
X172390000Y-76860000D01*
X172390000Y-76860000D02*
X175500000Y-76860000D01*
%TO.N,Net-(J1-Pin_9)*%
X169900000Y-75230000D02*
X171270000Y-75230000D01*
X172180000Y-74320000D02*
X175500000Y-74320000D01*
X171270000Y-75230000D02*
X172180000Y-74320000D01*
%TO.N,Net-(J1-Pin_6)*%
X169900000Y-68270000D02*
X170980000Y-68270000D01*
X170980000Y-68270000D02*
X172550000Y-66700000D01*
X172550000Y-66700000D02*
X175500000Y-66700000D01*
%TO.N,Net-(J1-Pin_5)*%
X173402500Y-64160000D02*
X175500000Y-64160000D01*
X169900000Y-65730000D02*
X171832500Y-65730000D01*
X171832500Y-65730000D02*
X173402500Y-64160000D01*
%TO.N,Net-(J1-Pin_7)*%
X171520000Y-70480000D02*
X172760000Y-69240000D01*
X172760000Y-69240000D02*
X175500000Y-69240000D01*
X169900000Y-70480000D02*
X171520000Y-70480000D01*
%TO.N,Net-(J1-Pin_8)*%
X171480000Y-73020000D02*
X172720000Y-71780000D01*
X172720000Y-71780000D02*
X175500000Y-71780000D01*
X169900000Y-73020000D02*
X171480000Y-73020000D01*
D54*
%TO.N,Net-(D1-A)*%
X159825000Y-68500000D02*
X161325000Y-67000000D01*
X159712500Y-68500000D02*
X159825000Y-68500000D01*
%TO.N,Net-(D2-A)*%
X161325000Y-71500000D02*
X159825000Y-73000000D01*
X159825000Y-73000000D02*
X159712500Y-73000000D01*
%TO.N,Net-(D3-A)*%
X159825000Y-78000000D02*
X161325000Y-76500000D01*
X159712500Y-78000000D02*
X159825000Y-78000000D01*
%TO.N,Net-(D4-A)*%
X161325000Y-81000000D02*
X159825000Y-82500000D01*
X159825000Y-82500000D02*
X159712500Y-82500000D01*
%TO.N,GND*%
X162480000Y-73020000D02*
X162460000Y-73000000D01*
X160500000Y-52008186D02*
X160448872Y-52059314D01*
D53*
X166500000Y-55850626D02*
X166500000Y-54612500D01*
X140300000Y-60540000D02*
X139700000Y-61140000D01*
X166500000Y-58000000D02*
X165545000Y-58000000D01*
D54*
X134500000Y-51500000D02*
X135500000Y-52500000D01*
X151000000Y-80500000D02*
X154500000Y-80500000D01*
X160448872Y-52059314D02*
X159876814Y-52059314D01*
X147000000Y-51500000D02*
X145575000Y-51500000D01*
X160500000Y-51250000D02*
X160500000Y-52008186D01*
D53*
X166500000Y-55850626D02*
X166169374Y-55850626D01*
X140300000Y-53620000D02*
X140300000Y-53100000D01*
D54*
X159876814Y-52059314D02*
X159741814Y-52194314D01*
X163600000Y-77770000D02*
X162480000Y-77770000D01*
D53*
X143325000Y-60500000D02*
X143325000Y-59275000D01*
D54*
X134500000Y-50500000D02*
X134500000Y-51500000D01*
D55*
X151760960Y-69454280D02*
X152275000Y-68940240D01*
D54*
X160750000Y-62500000D02*
X160750000Y-61230000D01*
X162480000Y-82520000D02*
X162460000Y-82500000D01*
X162250000Y-68500000D02*
X161287500Y-68500000D01*
X163600000Y-82520000D02*
X162480000Y-82520000D01*
X159741814Y-52194314D02*
X159741814Y-52959314D01*
X163600000Y-67500000D02*
X163600000Y-68270000D01*
X163500000Y-81750000D02*
X163500000Y-82420000D01*
X149750000Y-51500000D02*
X151000000Y-52750000D01*
X162460000Y-82500000D02*
X161287500Y-82500000D01*
X163600000Y-77000000D02*
X163600000Y-77770000D01*
D53*
X145500000Y-53000000D02*
X145500000Y-53950000D01*
X145500000Y-60500000D02*
X145500000Y-59550000D01*
D54*
X160500000Y-51250000D02*
X161225000Y-51250000D01*
X139650000Y-50640000D02*
X139650000Y-52450000D01*
X162250000Y-78000000D02*
X161287500Y-78000000D01*
D53*
X149000000Y-58225000D02*
X147724962Y-58225000D01*
D54*
X152425000Y-64500000D02*
X152425000Y-66000000D01*
X163500000Y-82420000D02*
X163600000Y-82520000D01*
X163505000Y-72925000D02*
X163600000Y-73020000D01*
D53*
X140300000Y-60020000D02*
X140300000Y-60540000D01*
D54*
X162480000Y-68270000D02*
X162250000Y-68500000D01*
D55*
X152275000Y-68940240D02*
X152275000Y-68500000D01*
D53*
X143325000Y-53500000D02*
X143325000Y-54725000D01*
D54*
X163600000Y-73020000D02*
X162480000Y-73020000D01*
D55*
X151700000Y-69515240D02*
X151700000Y-70600000D01*
D53*
X166169374Y-55850626D02*
X165520000Y-56500000D01*
D54*
X147000000Y-51500000D02*
X149750000Y-51500000D01*
X162460000Y-73000000D02*
X161287500Y-73000000D01*
X162480000Y-77770000D02*
X162250000Y-78000000D01*
D53*
X167075626Y-55850626D02*
X167725000Y-56500000D01*
X165520000Y-56500000D02*
X167725000Y-56500000D01*
D55*
X151760960Y-69454280D02*
X151700000Y-69515240D01*
D54*
X160376814Y-58159314D02*
X160376814Y-59209314D01*
X163600000Y-68270000D02*
X162480000Y-68270000D01*
D53*
X166500000Y-55850626D02*
X167075626Y-55850626D01*
D54*
X163505000Y-72250000D02*
X163505000Y-72925000D01*
X139650000Y-52450000D02*
X139700000Y-52500000D01*
D53*
X140300000Y-53100000D02*
X139700000Y-52500000D01*
%TO.N,/5V*%
X147949962Y-60000000D02*
X147724962Y-59775000D01*
X155125000Y-53000000D02*
X156000000Y-53000000D01*
X150725000Y-68500000D02*
X150725000Y-60225000D01*
X154366600Y-60000000D02*
X150500000Y-60000000D01*
X157212500Y-60212500D02*
X157212500Y-61500000D01*
X150500000Y-60000000D02*
X147949962Y-60000000D01*
X163625000Y-50625000D02*
X163375000Y-50375000D01*
X163970000Y-56500000D02*
X163970000Y-57975000D01*
X163970000Y-55730000D02*
X163970000Y-56500000D01*
X150725000Y-60225000D02*
X150500000Y-60000000D01*
X145499962Y-62000000D02*
X144562500Y-62000000D01*
X155693894Y-50375000D02*
X155125000Y-50943894D01*
D55*
X151300000Y-70600000D02*
X151300000Y-69800000D01*
D53*
X135000000Y-64260000D02*
X136260000Y-63000000D01*
X163970000Y-57975000D02*
X163995000Y-58000000D01*
X157000000Y-60000000D02*
X163000000Y-60000000D01*
X155125000Y-50943894D02*
X155125000Y-53000000D01*
X143562500Y-63000000D02*
X144562500Y-62000000D01*
X165000000Y-54700000D02*
X164200000Y-54700000D01*
X163625000Y-54125000D02*
X163625000Y-50625000D01*
X136260000Y-63000000D02*
X143562500Y-63000000D01*
X163000000Y-60000000D02*
X163995000Y-59005000D01*
D55*
X151300000Y-69800000D02*
X150725000Y-69225000D01*
D53*
X157000000Y-60000000D02*
X157212500Y-60212500D01*
X163375000Y-50375000D02*
X155693894Y-50375000D01*
X147724962Y-59775000D02*
X145499962Y-62000000D01*
X163995000Y-59005000D02*
X163995000Y-58000000D01*
D54*
X150725000Y-69225000D02*
X150725000Y-68500000D01*
D53*
X164200000Y-54700000D02*
X163625000Y-54125000D01*
D54*
X159741814Y-58159314D02*
X159741814Y-60000000D01*
D53*
X165000000Y-54700000D02*
X163970000Y-55730000D01*
D54*
%TO.N,Net-(R1-Pad2)*%
X161325000Y-65500000D02*
X162250000Y-65500000D01*
X162480000Y-65730000D02*
X163600000Y-65730000D01*
X162250000Y-65500000D02*
X162480000Y-65730000D01*
%TO.N,Net-(R2-Pad2)*%
X161805000Y-70480000D02*
X163600000Y-70480000D01*
X161325000Y-70000000D02*
X161805000Y-70480000D01*
%TO.N,Net-(R3-Pad2)*%
X162480000Y-75230000D02*
X162250000Y-75000000D01*
X163600000Y-75230000D02*
X162480000Y-75230000D01*
X162250000Y-75000000D02*
X161325000Y-75000000D01*
%TO.N,Net-(R4-Pad2)*%
X162540000Y-79500000D02*
X161325000Y-79500000D01*
X163020000Y-79980000D02*
X162540000Y-79500000D01*
X163600000Y-79980000D02*
X163020000Y-79980000D01*
D55*
%TO.N,/UPDI*%
X149056200Y-77443800D02*
X154056200Y-77443800D01*
X155175000Y-76325000D02*
X155175000Y-76000000D01*
X154056200Y-77443800D02*
X155175000Y-76325000D01*
X156000000Y-71473800D02*
X155823800Y-71650000D01*
X145000000Y-81500000D02*
X149056200Y-77443800D01*
X155175000Y-75401200D02*
X155175000Y-76000000D01*
X156000000Y-74576200D02*
X155175000Y-75401200D01*
X155823800Y-71650000D02*
X153150000Y-71650000D01*
D54*
%TO.N,Net-(D6-A)*%
X143350000Y-50850000D02*
X144000000Y-51500000D01*
X142500000Y-50850000D02*
X143350000Y-50850000D01*
%TO.N,/SEQ1*%
X159675000Y-65500000D02*
X159675000Y-67000000D01*
D55*
X158998800Y-71001200D02*
X157550000Y-72450000D01*
X157550000Y-72450000D02*
X153150000Y-72450000D01*
X158998800Y-66176200D02*
X158998800Y-71001200D01*
X159675000Y-65500000D02*
X158998800Y-66176200D01*
%TO.N,/SEQ2*%
X159000000Y-71500000D02*
X157650000Y-72850000D01*
X159675000Y-71500000D02*
X159000000Y-71500000D01*
D54*
X159675000Y-71500000D02*
X159675000Y-70000000D01*
D55*
X157650000Y-72850000D02*
X153150000Y-72850000D01*
%TO.N,/SEQ3*%
X159675000Y-76500000D02*
X159675000Y-75081431D01*
X153672520Y-73202400D02*
X153374920Y-73500000D01*
X157795969Y-73202400D02*
X153672520Y-73202400D01*
X159675000Y-75081431D02*
X157795969Y-73202400D01*
D54*
X159675000Y-76500000D02*
X159675000Y-75000000D01*
D55*
X153374920Y-73500000D02*
X152500000Y-73500000D01*
%TO.N,/SEQ4*%
X159675000Y-79500000D02*
X158000000Y-77825000D01*
X153818488Y-73554800D02*
X153187088Y-74186200D01*
X152311280Y-74186200D02*
X152100000Y-73974920D01*
X153187088Y-74186200D02*
X152311280Y-74186200D01*
X158000000Y-73904799D02*
X157650001Y-73554800D01*
X157650001Y-73554800D02*
X153818488Y-73554800D01*
X152100000Y-73974920D02*
X152100000Y-73500000D01*
D54*
X159675000Y-81000000D02*
X159675000Y-79500000D01*
D55*
X158000000Y-77825000D02*
X158000000Y-73904799D01*
%TO.N,/3V3*%
X161011814Y-56357200D02*
X160108928Y-56357200D01*
X159031814Y-59209314D02*
X158531814Y-59209314D01*
X159106814Y-57359314D02*
X159106814Y-58159314D01*
X159106814Y-58159314D02*
X159106814Y-59134314D01*
X161011814Y-52959314D02*
X161011814Y-52159314D01*
X161011814Y-52159314D02*
X161146128Y-52025000D01*
X161146128Y-52025000D02*
X162775000Y-52025000D01*
X158471814Y-58159314D02*
X158471814Y-59149314D01*
X161011814Y-54500000D02*
X161011814Y-52959314D01*
X160108928Y-56357200D02*
X159106814Y-57359314D01*
X159106814Y-59134314D02*
X159031814Y-59209314D01*
X162775000Y-52025000D02*
X162775000Y-51250000D01*
X158471814Y-59149314D02*
X158531814Y-59209314D01*
%TO.N,/RTS\u005C*%
X161250484Y-55076200D02*
X161646814Y-54679870D01*
X153150000Y-71250000D02*
X155250000Y-71250000D01*
X158177063Y-55076200D02*
X161250484Y-55076200D01*
X155647600Y-70852400D02*
X155647600Y-57605663D01*
X155647600Y-57605663D02*
X158177063Y-55076200D01*
X161646814Y-54679870D02*
X161646814Y-52959314D01*
X155250000Y-71250000D02*
X155647600Y-70852400D01*
%TO.N,/CTS\u005C*%
X159106814Y-52959314D02*
X159106814Y-53893186D01*
X158628600Y-54371400D02*
X157885126Y-54371400D01*
X154942800Y-57313726D02*
X154942800Y-69557200D01*
X154942800Y-69557200D02*
X153900000Y-70600000D01*
X153900000Y-70600000D02*
X152500000Y-70600000D01*
X157885126Y-54371400D02*
X154942800Y-57313726D01*
X159106814Y-53893186D02*
X158628600Y-54371400D01*
D53*
%TO.N,/12V*%
X170787500Y-53500000D02*
X175000000Y-53500000D01*
X175000000Y-53500000D02*
X175500000Y-54000000D01*
X170500000Y-53212500D02*
X170787500Y-53500000D01*
D55*
%TO.N,Net-(D7-K)*%
X158787500Y-62462500D02*
X158825000Y-62500000D01*
X158787500Y-61500000D02*
X158787500Y-62462500D01*
D54*
%TO.N,Net-(D8-K)*%
X156287500Y-51250000D02*
X157675000Y-51250000D01*
D55*
%TO.N,/RXLED{slash}*%
X161281000Y-55781000D02*
X158469000Y-55781000D01*
X156400000Y-62225000D02*
X157175000Y-63000000D01*
X156400000Y-57850000D02*
X156400000Y-62225000D01*
X161011814Y-58159314D02*
X161011814Y-57441914D01*
X161622500Y-56831228D02*
X161622500Y-56122500D01*
X158469000Y-55781000D02*
X156400000Y-57850000D01*
X161622500Y-56122500D02*
X161281000Y-55781000D01*
X161011814Y-57441914D02*
X161622500Y-56831228D01*
D54*
%TO.N,/TXLED{slash}*%
X158471814Y-52959314D02*
X158471814Y-52103186D01*
X158471814Y-52103186D02*
X159325000Y-51250000D01*
D53*
%TO.N,Net-(J1-Pin_11)*%
X169900000Y-79980000D02*
X172340000Y-79980000D01*
X172920000Y-79400000D02*
X175500000Y-79400000D01*
X172340000Y-79980000D02*
X172920000Y-79400000D01*
%TO.N,Net-(J1-Pin_12)*%
X171980000Y-82520000D02*
X172560000Y-81940000D01*
X172560000Y-81940000D02*
X175500000Y-81940000D01*
X169900000Y-82520000D02*
X171980000Y-82520000D01*
D54*
%TO.N,/D-M*%
X154443288Y-56500000D02*
X152825000Y-56500000D01*
X157000000Y-58159314D02*
X157836814Y-58159314D01*
X154891987Y-56051301D02*
X154443288Y-56500000D01*
D55*
%TO.N,/D+M*%
X153758158Y-58000000D02*
X157836814Y-53921344D01*
X152825000Y-58000000D02*
X153758158Y-58000000D01*
X157836814Y-53921344D02*
X157836814Y-52959314D01*
D53*
%TO.N,Net-(FB1-Pad1)*%
X141320000Y-54420000D02*
X140300000Y-54420000D01*
X141825000Y-59250000D02*
X141825000Y-60287500D01*
X141919608Y-55900000D02*
X141919608Y-55019608D01*
X141944069Y-59130931D02*
X141825000Y-59250000D01*
X141944069Y-57624461D02*
X141944069Y-59130931D01*
D54*
X142500000Y-52500000D02*
X142500000Y-53240000D01*
D53*
X141919608Y-55019608D02*
X141320000Y-54420000D01*
X141825000Y-60287500D02*
X142437500Y-60900000D01*
X142437500Y-60900000D02*
X142437500Y-62000000D01*
X141795000Y-59220000D02*
X140300000Y-59220000D01*
X141825000Y-59250000D02*
X141795000Y-59220000D01*
D54*
X142500000Y-53240000D02*
X141320000Y-54420000D01*
%TO.N,Net-(J3-CC1)*%
X137950000Y-54090000D02*
X137950000Y-50715000D01*
X140300000Y-55570000D02*
X139430000Y-55570000D01*
X137950000Y-50715000D02*
X138025000Y-50640000D01*
X139430000Y-55570000D02*
X137950000Y-54090000D01*
%TO.N,Net-(J3-CC2)*%
X136825000Y-51000000D02*
X136825000Y-56065000D01*
X136325000Y-50500000D02*
X136825000Y-51000000D01*
X136150000Y-50500000D02*
X136325000Y-50500000D01*
X136825000Y-56065000D02*
X139330000Y-58570000D01*
X140300000Y-58570000D02*
X139330000Y-58570000D01*
%TO.N,Net-(D12-K)*%
X141665686Y-56500000D02*
X143100000Y-56500000D01*
X141235686Y-56070000D02*
X141665686Y-56500000D01*
X143325000Y-56275000D02*
X145275000Y-56275000D01*
X140300000Y-56070000D02*
X141235686Y-56070000D01*
X139380000Y-57020000D02*
X139380000Y-56210000D01*
X139430000Y-57070000D02*
X139380000Y-57020000D01*
X145500000Y-56050000D02*
X145550000Y-56050000D01*
X143100000Y-56500000D02*
X143325000Y-56275000D01*
X140300000Y-57070000D02*
X139430000Y-57070000D01*
X145275000Y-56275000D02*
X145500000Y-56050000D01*
X146000000Y-56500000D02*
X151175000Y-56500000D01*
X139520000Y-56070000D02*
X140300000Y-56070000D01*
X145550000Y-56050000D02*
X146000000Y-56500000D01*
X139380000Y-56210000D02*
X139520000Y-56070000D01*
%TO.N,Net-(D11-K)*%
X141170000Y-57570000D02*
X140300000Y-57570000D01*
X143325000Y-57725000D02*
X142600000Y-57000000D01*
X143600000Y-57450000D02*
X145500000Y-57450000D01*
X149750000Y-57000000D02*
X150750000Y-58000000D01*
X145500000Y-57450000D02*
X145950000Y-57000000D01*
X141170000Y-56570000D02*
X141220000Y-56620000D01*
X141220000Y-56620000D02*
X141220000Y-57520000D01*
X141220000Y-57520000D02*
X141170000Y-57570000D01*
X150750000Y-58000000D02*
X151175000Y-58000000D01*
X141720000Y-57000000D02*
X141220000Y-57500000D01*
X145950000Y-57000000D02*
X149750000Y-57000000D01*
X140300000Y-56570000D02*
X141170000Y-56570000D01*
X143325000Y-57725000D02*
X143600000Y-57450000D01*
X142600000Y-57000000D02*
X141720000Y-57000000D01*
D55*
%TO.N,/TXD_U*%
X157000000Y-75825000D02*
X156825000Y-76000000D01*
X157000000Y-74131000D02*
X157000000Y-75825000D01*
X156000000Y-62000000D02*
X156047600Y-61952400D01*
X157000000Y-74131000D02*
X156869000Y-74000000D01*
X158323031Y-55428600D02*
X161759586Y-55428600D01*
X152825000Y-75175000D02*
X152825000Y-76000000D01*
X156000000Y-70473800D02*
X156000000Y-62000000D01*
X156047600Y-61952400D02*
X156047600Y-57704031D01*
X162281814Y-54906372D02*
X162281814Y-52959314D01*
X154000000Y-74000000D02*
X152825000Y-75175000D01*
X156869000Y-74000000D02*
X154000000Y-74000000D01*
X161759586Y-55428600D02*
X162281814Y-54906372D01*
X156047600Y-57704031D02*
X158323031Y-55428600D01*
X157000000Y-71473800D02*
X156000000Y-70473800D01*
%TO.N,/RXD_M*%
X150900000Y-75725000D02*
X151175000Y-76000000D01*
X150900000Y-73500000D02*
X150900000Y-75725000D01*
%TO.N,/TXD_M*%
X144967972Y-74500000D02*
X150000000Y-74500000D01*
X151300000Y-74300000D02*
X151500000Y-74500000D01*
X139920000Y-81500000D02*
X139920000Y-79547972D01*
X139920000Y-79547972D02*
X144967972Y-74500000D01*
X151300000Y-73500000D02*
X151300000Y-74300000D01*
%TO.N,/RXD_U*%
X155501631Y-57253263D02*
X155501632Y-57253263D01*
X158031094Y-54723800D02*
X159464114Y-54723800D01*
X159464114Y-54723800D02*
X160376814Y-53811100D01*
X155501632Y-57253263D02*
X156000000Y-56754894D01*
X142460000Y-81040000D02*
X142460000Y-81500000D01*
X155017565Y-70667565D02*
X155295200Y-70389930D01*
X154000000Y-75593765D02*
X154000000Y-76500000D01*
X155017565Y-74576200D02*
X154000000Y-75593765D01*
X156000000Y-56754894D02*
X156000000Y-56754895D01*
X146432400Y-77067600D02*
X142460000Y-81040000D01*
X160376814Y-53811100D02*
X160376814Y-52959314D01*
X153432400Y-77067600D02*
X146432400Y-77067600D01*
X155295200Y-70389930D02*
X155295200Y-57459695D01*
X156000000Y-56754895D02*
X158031094Y-54723800D01*
X155295200Y-57459695D02*
X155501631Y-57253263D01*
X154000000Y-76500000D02*
X153432400Y-77067600D01*
D53*
%TO.N,/KEY+*%
X173580000Y-59080000D02*
X173225000Y-58725000D01*
D54*
X171000000Y-58725000D02*
X169550000Y-58725000D01*
D53*
X173225000Y-58725000D02*
X171000000Y-58725000D01*
D54*
X169550000Y-58725000D02*
X169500000Y-58675000D01*
D53*
X175500000Y-59080000D02*
X173580000Y-59080000D01*
%TO.N,/KEY-*%
X173620000Y-61620000D02*
X175500000Y-61620000D01*
D54*
X168500000Y-59500000D02*
X170225000Y-59500000D01*
X167250000Y-61230000D02*
X167250000Y-60750000D01*
X171050000Y-62000000D02*
X171000000Y-61950000D01*
X170225000Y-59500000D02*
X171000000Y-60275000D01*
D53*
X172275000Y-60275000D02*
X173620000Y-61620000D01*
D54*
X167250000Y-60750000D02*
X168500000Y-59500000D01*
X171000000Y-61950000D02*
X171000000Y-60275000D01*
D53*
X171000000Y-60275000D02*
X172275000Y-60275000D01*
D54*
%TO.N,Net-(D5-K)*%
X169500000Y-60325000D02*
X169500000Y-62000000D01*
X171075000Y-63575000D02*
X171075000Y-64000000D01*
X169500000Y-62000000D02*
X171075000Y-63575000D01*
X168950000Y-62000000D02*
X169500000Y-62000000D01*
%TO.N,Net-(R20-Pad2)*%
X168835000Y-64000000D02*
X169175000Y-64000000D01*
X167250000Y-63770000D02*
X168605000Y-63770000D01*
X168605000Y-63770000D02*
X168835000Y-64000000D01*
D55*
%TO.N,/KEY_M*%
X160750000Y-63770000D02*
X159730000Y-63770000D01*
X159730000Y-63770000D02*
X158646400Y-64853600D01*
X157451632Y-72050000D02*
X153150000Y-72050000D01*
X158646400Y-70855232D02*
X157451632Y-72050000D01*
X158646400Y-64853600D02*
X158646400Y-70855232D01*
D53*
%TO.N,Net-(D10-K)*%
X169275000Y-56500000D02*
X169275000Y-55975000D01*
X168000000Y-54700000D02*
X170412500Y-54700000D01*
X169275000Y-55975000D02*
X168000000Y-54700000D01*
X170412500Y-54700000D02*
X170500000Y-54787500D01*
D55*
%TO.N,/LED*%
X153225080Y-69000000D02*
X154000000Y-69000000D01*
X152100000Y-70600000D02*
X152100000Y-70125080D01*
X152100000Y-70125080D02*
X153225080Y-69000000D01*
D54*
%TO.N,Net-(D9-K)*%
X154000000Y-67500000D02*
X154000000Y-66000000D01*
%TO.N,/X3*%
X145000000Y-71650000D02*
X139744314Y-71650000D01*
X139744314Y-71650000D02*
X136974314Y-74420000D01*
D55*
X145000000Y-71650000D02*
X150250000Y-71650000D01*
D54*
X136974314Y-74420000D02*
X135000000Y-74420000D01*
%TO.N,/X4*%
X135000000Y-76960000D02*
X139910000Y-72050000D01*
X139910000Y-72050000D02*
X144500000Y-72050000D01*
D55*
X144500000Y-72050000D02*
X150250000Y-72050000D01*
D54*
%TO.N,/X2*%
X137120000Y-71880000D02*
X135000000Y-71880000D01*
X137750000Y-71250000D02*
X137120000Y-71880000D01*
X145250000Y-71250000D02*
X137750000Y-71250000D01*
D55*
X145250000Y-71250000D02*
X150250000Y-71250000D01*
D54*
%TO.N,/X6*%
X135000000Y-82000000D02*
X135000000Y-82040000D01*
X137500000Y-77000000D02*
X137500000Y-79500000D01*
D55*
X143000000Y-72850000D02*
X150250000Y-72850000D01*
D54*
X137500000Y-79500000D02*
X135000000Y-82000000D01*
X141650000Y-72850000D02*
X137500000Y-77000000D01*
X143000000Y-72850000D02*
X141650000Y-72850000D01*
D55*
%TO.N,/X1*%
X136160000Y-70500000D02*
X150800000Y-70500000D01*
X135000000Y-69340000D02*
X136160000Y-70500000D01*
X150800000Y-70500000D02*
X150900000Y-70600000D01*
D54*
%TO.N,/X5*%
X137000000Y-76125000D02*
X137000000Y-77500000D01*
X137000000Y-77500000D02*
X135000000Y-79500000D01*
D55*
X142805000Y-72450000D02*
X150250000Y-72450000D01*
D54*
X140675000Y-72450000D02*
X137000000Y-76125000D01*
X142805000Y-72450000D02*
X140675000Y-72450000D01*
%TD*%
%TA.AperFunction,Conductor*%
%TO.N,GND*%
G36*
X168443039Y-49770185D02*
G01*
X168488794Y-49822989D01*
X168500000Y-49874500D01*
X168500000Y-53435341D01*
X168480315Y-53502380D01*
X168427511Y-53548135D01*
X168363399Y-53558699D01*
X168273348Y-53549500D01*
X167726662Y-53549500D01*
X167726644Y-53549501D01*
X167627292Y-53559650D01*
X167627289Y-53559651D01*
X167466305Y-53612996D01*
X167466294Y-53613001D01*
X167321959Y-53702029D01*
X167321955Y-53702032D01*
X167310307Y-53713681D01*
X167248984Y-53747166D01*
X167222626Y-53750000D01*
X165777374Y-53750000D01*
X165710335Y-53730315D01*
X165689693Y-53713681D01*
X165678044Y-53702032D01*
X165678040Y-53702029D01*
X165533705Y-53613001D01*
X165533699Y-53612998D01*
X165533697Y-53612997D01*
X165436792Y-53580886D01*
X165372709Y-53559651D01*
X165273346Y-53549500D01*
X164726662Y-53549500D01*
X164726644Y-53549501D01*
X164636601Y-53558700D01*
X164567908Y-53545930D01*
X164517024Y-53498049D01*
X164500000Y-53435342D01*
X164500000Y-49874500D01*
X164519685Y-49807461D01*
X164572489Y-49761706D01*
X164624000Y-49750500D01*
X168376000Y-49750500D01*
X168443039Y-49770185D01*
G37*
%TD.AperFunction*%
%TD*%
M02*
