%TF.GenerationSoftware,KiCad,Pcbnew,8.0.5*%
%TF.CreationDate,2024-10-20T23:26:53-04:00*%
%TF.ProjectId,Sequencer,53657175-656e-4636-9572-2e6b69636164,rev?*%
%TF.SameCoordinates,Original*%
%TF.FileFunction,Soldermask,Bot*%
%TF.FilePolarity,Negative*%
%FSLAX46Y46*%
G04 Gerber Fmt 4.6, Leading zero omitted, Abs format (unit mm)*
G04 Created by KiCad (PCBNEW 8.0.5) date 2024-10-20 23:26:53*
%MOMM*%
%LPD*%
G01*
G04 APERTURE LIST*
%ADD10C,0.650000*%
%ADD11O,2.100000X1.000000*%
%ADD12O,1.800000X1.000000*%
%ADD13R,1.700000X1.700000*%
%ADD14O,1.700000X1.700000*%
%ADD15C,2.100000*%
%ADD16R,2.100000X2.100000*%
%ADD17C,0.600000*%
%ADD18C,5.560000*%
G04 APERTURE END LIST*
D10*
%TO.C,J3*%
X139180000Y-53930000D03*
X139180000Y-59710000D03*
D11*
X139700000Y-52500000D03*
D12*
X135500000Y-52500000D03*
D11*
X139700000Y-61140000D03*
D12*
X135500000Y-61140000D03*
%TD*%
D13*
%TO.C,J4*%
X135000000Y-64260000D03*
D14*
X135000000Y-66800000D03*
X135000000Y-69340000D03*
X135000000Y-71880000D03*
X135000000Y-74420000D03*
X135000000Y-76960000D03*
X135000000Y-79500000D03*
X135000000Y-82040000D03*
%TD*%
D13*
%TO.C,J2*%
X145000000Y-81500000D03*
D14*
X142460000Y-81500000D03*
X139920000Y-81500000D03*
%TD*%
D15*
%TO.C,J1*%
X175500000Y-81940000D03*
X175500000Y-79400000D03*
X175500000Y-76860000D03*
X175500000Y-74320000D03*
X175500000Y-71780000D03*
X175500000Y-69240000D03*
X175500000Y-66700000D03*
X175500000Y-64160000D03*
X175500000Y-61620000D03*
X175500000Y-59080000D03*
X175500000Y-56540000D03*
D16*
X175500000Y-54000000D03*
%TD*%
D17*
X145500000Y-60500000D03*
X163600000Y-67500000D03*
X166500000Y-50250000D03*
X165000000Y-51000000D03*
X160750000Y-62500000D03*
X168000000Y-51000000D03*
X151760960Y-69454280D03*
X154500000Y-80500000D03*
X168000000Y-53250000D03*
X143325000Y-60500000D03*
X163600000Y-77000000D03*
X145500000Y-53000000D03*
X166500000Y-55850626D03*
X160376814Y-59209314D03*
X166500000Y-58000000D03*
X149000000Y-58225000D03*
X152425000Y-64500000D03*
X165000000Y-51750000D03*
D18*
X151000000Y-80500000D03*
D17*
X165000000Y-52500000D03*
X163505000Y-72250000D03*
X160500000Y-51250000D03*
X147000000Y-51500000D03*
X165750000Y-50250000D03*
X168000000Y-52500000D03*
X168000000Y-51750000D03*
X165000000Y-53250000D03*
X163500000Y-81750000D03*
X167250000Y-50250000D03*
X143325000Y-53500000D03*
D18*
X151000000Y-52750000D03*
D17*
X154366600Y-60000000D03*
X157000000Y-60000000D03*
X156000000Y-74576200D03*
X156000000Y-71473800D03*
X161011814Y-56357200D03*
X161011814Y-54500000D03*
X154891987Y-56051301D03*
X157000000Y-58159314D03*
X141944069Y-57624461D03*
X141919608Y-55900000D03*
X157000000Y-74131000D03*
X157000000Y-71473800D03*
X150000000Y-74500000D03*
X151500000Y-74500000D03*
X155017565Y-74576200D03*
X155017565Y-70667565D03*
M02*
